<svg width="180" height="33" viewBox="0 0 180 33" fill="none" xmlns="http://www.w3.org/2000/svg">
<path d="M21.4278 21.5196L14.375 10.8071V25.118L21.4278 21.5196Z" fill="white"/>
<path d="M21.8024 21.8897L14.3742 25.6926V25.1242L7.82958 21.5194L14.3742 10.8101V9.83626L7.302 21.4108L0.9613 23.8502L14.3742 1.89214V9.83307L21.9578 21.4076L29.0785 24.144L14.6299 0.5L0 24.4409L14.6299 32.5L28.9232 24.6261L21.8024 21.8897ZM14.3742 31.7848L0.95159 24.3898L7.45412 21.8897L14.371 25.7022V31.7848H14.3742Z" fill="white"/>
<path d="M68.7095 10.9762H64.5018V22.0047H66.159V17.9401H68.7095C71.4348 17.9401 72.7392 16.5703 72.7392 14.4725C72.7392 12.3747 71.4316 10.9762 68.7095 10.9762ZM68.6448 16.5064H66.159V12.4098H68.6448C70.2534 12.4098 71.0496 13.1666 71.0496 14.4725C71.0496 15.7784 70.2534 16.5064 68.6448 16.5064ZM51.3543 15.7976L49.9205 15.5134C48.5966 15.2452 48.1208 14.6481 48.1208 13.8754C48.1208 12.9622 48.7585 12.2214 50.3671 12.2214C51.9758 12.2214 52.7105 12.8824 52.7267 13.9233H54.4162C54.4162 11.9852 52.9176 10.8357 50.3995 10.8357C47.8813 10.8357 46.3989 11.9692 46.3989 13.8754C46.3989 15.5773 47.5933 16.4585 49.49 16.8385L50.9886 17.1386C52.2153 17.3749 52.9953 17.8315 52.9953 18.9203C52.9953 20.0091 52.1344 20.7786 50.4772 20.7786C48.629 20.7786 47.8328 19.8495 47.768 18.6681H46.0785C46.0785 20.7946 47.6386 22.1644 50.461 22.1644C53.0277 22.1644 54.7302 21.0468 54.7302 18.9043C54.7302 17.1386 53.5844 16.2414 51.3511 15.8008L51.3543 15.7976ZM83.8379 17.0269H88.9518V15.7209H83.8379V12.413H89.4309V10.9794H82.1807V22.0079H89.5895V20.5743H83.8379V17.0301V17.0269ZM156.599 10.9762L152.407 22.0047H154.145L157.586 12.694H157.683L161.124 22.0047H162.862L158.67 10.9762H156.599ZM103.65 12.2534C105.084 12.2534 106.152 12.9622 106.501 14.3959H108.126C107.809 11.9852 106.006 10.8357 103.695 10.8357C100.636 10.8357 98.581 12.8377 98.581 16.4905C98.581 20.1432 100.636 22.1612 103.679 22.1612C106.006 22.1612 107.806 21.0117 108.123 18.585H106.498C106.148 20.0347 105.08 20.7435 103.646 20.7435C101.494 20.7435 100.251 19.1374 100.251 16.4905C100.251 13.8435 101.51 12.2534 103.646 12.2534H103.65ZM173.88 20.5711V10.9762H172.222V22.0047H179.408V20.5711H173.88ZM143.147 14.4725C143.147 12.346 141.84 10.9762 139.117 10.9762H134.91V22.0047H136.567V17.9401H139.179L141.584 22.0047H143.241L140.691 17.7357C142.348 17.311 143.144 16.0977 143.144 14.4757L143.147 14.4725ZM139.053 16.5064H136.567V12.4098H139.053C140.661 12.4098 141.458 13.1666 141.458 14.4725C141.458 15.7784 140.661 16.5064 139.053 16.5064ZM117.008 12.4418H120.432V22.0047H122.089V12.4418H125.514V10.9762H117.004V12.4418H117.008Z" fill="white"/>
</svg>
