<svg width="21" height="16" viewBox="0 0 21 16" fill="none" xmlns="http://www.w3.org/2000/svg">
<g clip-path="url(#clip0_90_399044)">
<path d="M3.50024 12.25C8.50024 14.75 11.5002 14.75 16.5002 12.25" stroke="white" stroke-linecap="round" stroke-linejoin="round"/>
<path d="M13.5002 13.75L14.5002 15.75C14.5002 15.75 18.6712 14.422 20.0002 12.25C20.0002 11.25 20.5302 4.103 17.0002 1.75C15.5002 0.75 13.0002 0.25 13.0002 0.25L12.0002 2.25H10.0002" stroke="white" stroke-linecap="round" stroke-linejoin="round"/>
<path d="M6.52827 13.75L5.52827 15.75C5.52827 15.75 1.35727 14.422 0.0282659 12.25C0.0282659 11.25 -0.501734 4.103 3.02827 1.75C4.52827 0.75 7.02827 0.25 7.02827 0.25L8.02827 2.25H10.0283" stroke="white" stroke-linecap="round" stroke-linejoin="round"/>
<path d="M6.50024 10.25C5.67224 10.25 5.00024 9.355 5.00024 8.25C5.00024 7.145 5.67224 6.25 6.50024 6.25C7.32824 6.25 8.00024 7.145 8.00024 8.25C8.00024 9.355 7.32824 10.25 6.50024 10.25ZM13.5002 10.25C12.6722 10.25 12.0002 9.355 12.0002 8.25C12.0002 7.145 12.6722 6.25 13.5002 6.25C14.3282 6.25 15.0002 7.145 15.0002 8.25C15.0002 9.355 14.3282 10.25 13.5002 10.25Z" stroke="white" stroke-linecap="round" stroke-linejoin="round"/>
</g>
<defs>
<clipPath id="clip0_90_399044">
<rect width="20.0285" height="15.5" fill="white" transform="translate(0 0.25)"/>
</clipPath>
</defs>
</svg>
