<svg width="17" height="18" viewBox="0 0 17 18" fill="none" xmlns="http://www.w3.org/2000/svg">
<g clip-path="url(#clip0_90_399045)">
<path d="M13.447 17.768L0.380012 0.968C0.31114 0.87931 0.268539 0.773072 0.257053 0.66137C0.245568 0.549668 0.265659 0.436984 0.315042 0.336134C0.364425 0.235285 0.441117 0.150317 0.536397 0.0908949C0.631677 0.0314725 0.741721 -1.9736e-05 0.854012 9.27937e-09H3.33401C3.42531 0.000136196 3.51537 0.0211047 3.59734 0.0613086C3.67931 0.101513 3.75102 0.159892 3.80701 0.232L16.874 17.032C16.9429 17.1207 16.9855 17.2269 16.997 17.3386C17.0085 17.4503 16.9884 17.563 16.939 17.6639C16.8896 17.7647 16.8129 17.8497 16.7176 17.9091C16.6223 17.9685 16.5123 18 16.4 18H13.92C13.8287 17.9999 13.7387 17.9789 13.6567 17.9387C13.5747 17.8985 13.503 17.8401 13.447 17.768Z" stroke="white"/>
<path d="M16.627 0L0.626953 18" stroke="white" stroke-linecap="round"/>
</g>
<defs>
<clipPath id="clip0_90_399045">
<rect width="16.7462" height="18" fill="white" transform="translate(0.253906)"/>
</clipPath>
</defs>
</svg>
