<svg width="359" height="64" viewBox="0 0 359 64" fill="none" xmlns="http://www.w3.org/2000/svg">
<g clip-path="url(#clip0_90_399011)">
<path d="M42.9476 42.0391L28.842 20.6143V49.2361L42.9476 42.0391Z" fill="white"/>
<path d="M43.6969 42.7795L28.8404 50.3852V49.2485L15.7512 42.0387L28.8404 20.6202V18.6725L14.696 41.8216L2.01464 46.7005L28.8404 2.78427V18.6661L44.0076 41.8152L58.2491 47.288L29.3518 0L0.092041 47.8819L29.3518 64L57.9384 48.2522L43.6969 42.7795ZM28.8404 62.5696L1.99522 47.7797L15.0003 42.7795L28.834 50.4043V62.5696H28.8404Z" fill="white"/>
<path d="M137.511 20.9523H129.096V43.0094H132.41V34.8801H137.511C142.962 34.8801 145.57 32.1405 145.57 27.9449C145.57 23.7494 142.955 20.9523 137.511 20.9523ZM137.382 32.0128H132.41V23.8196H137.382C140.599 23.8196 142.191 25.3331 142.191 27.9449C142.191 30.5568 140.599 32.0128 137.382 32.0128ZM102.801 30.5951L99.933 30.0267C97.2853 29.4903 96.3337 28.2962 96.3337 26.7508C96.3337 24.9244 97.609 23.4428 100.826 23.4428C104.044 23.4428 105.513 24.7647 105.545 26.8465H108.925C108.925 22.9703 105.927 20.6713 100.891 20.6713C95.8547 20.6713 92.8899 22.9383 92.8899 26.7508C92.8899 30.1545 95.2786 31.917 99.072 32.6769L102.069 33.2772C104.523 33.7498 106.083 34.6629 106.083 36.8406C106.083 39.0182 104.361 40.5572 101.046 40.5572C97.3501 40.5572 95.7576 38.6989 95.6281 36.3361H92.249C92.249 40.5891 95.3692 43.3287 101.014 43.3287C106.147 43.3287 109.552 41.0936 109.552 36.8086C109.552 33.2772 107.261 31.4827 102.794 30.6015L102.801 30.5951ZM167.768 33.0537H177.996V30.4418H167.768V23.826H178.954V20.9587H164.453V43.0158H179.271V40.1485H167.768V33.0601V33.0537ZM313.29 20.9523L304.907 43.0094H308.383L315.264 24.3879H315.458L322.34 43.0094H325.816L317.433 20.9523H313.29ZM207.391 23.5067C210.259 23.5067 212.395 24.9244 213.095 27.7917H216.344C215.71 22.9703 212.104 20.6713 207.482 20.6713C201.365 20.6713 197.254 24.6753 197.254 31.9808C197.254 39.2864 201.365 43.3223 207.45 43.3223C212.104 43.3223 215.703 41.0233 216.338 36.17H213.088C212.389 39.0692 210.253 40.4869 207.385 40.4869C203.08 40.4869 200.594 37.2748 200.594 31.9808C200.594 26.6869 203.113 23.5067 207.385 23.5067H207.391ZM347.851 40.1421V20.9523H344.537V43.0094H358.908V40.1421H347.851ZM286.386 27.9449C286.386 23.6919 283.771 20.9523 278.327 20.9523H269.912V43.0094H273.226V34.8801H278.45L283.26 43.0094H286.574L281.473 34.4714C284.787 33.622 286.38 31.1954 286.38 27.9513L286.386 27.9449ZM278.198 32.0128H273.226V23.8196H278.198C281.415 23.8196 283.007 25.3331 283.007 27.9449C283.007 30.5568 281.415 32.0128 278.198 32.0128ZM234.107 23.8835H240.956V43.0094H244.27V23.8835H251.119V20.9523H234.101V23.8835H234.107Z" fill="white"/>
</g>
<defs>
<clipPath id="clip0_90_399011">
<rect width="358.816" height="64" fill="white" transform="translate(0.092041)"/>
</clipPath>
</defs>
</svg>
