<?xml version="1.0" encoding="UTF-8"?><svg id="Layer_2" xmlns="http://www.w3.org/2000/svg" viewBox="0 0 171.39 170.88"><defs><style>.cls-1{fill:#181c2d;}.cls-1,.cls-2{stroke-miterlimit:10;stroke-width:.5px;}.cls-1,.cls-2,.cls-3,.cls-4{stroke:#fff;}.cls-2,.cls-3,.cls-4{fill:none;}.cls-3{stroke-linecap:round;stroke-width:5px;}.cls-3,.cls-4{stroke-linejoin:round;}.cls-4{stroke-width:2px;}</style></defs><g id="Layer_1-2"><path class="cls-1" d="M19.85,111.86c-3.25-.37-6.47-.88-9.47-1.36-1.3-.21-2.29-1.08-2.49-2.18-2.29-13.2-5.32-28.1-7.61-41.29-.18-1.04.38-2.07,1.44-2.62,3.85-1.98,7.85-3.73,11.99-5.21,2.09-.75,4.41.6,4.3,2.52-.83,14.81,1.15,30.47,5.15,46.83,0,.01,0,.02.01.04.52,1.79-1.17,3.5-3.33,3.26Z"/><path class="cls-1" d="M151.54,111.86c3.25-.37,6.47-.88,9.47-1.36,1.3-.21,2.29-1.08,2.49-2.18,2.29-13.2,5.32-28.1,7.61-41.29.18-1.04-.38-2.07-1.44-2.62-3.85-1.98-7.85-3.73-11.99-5.21-2.09-.75-4.41.6-4.3,2.52.83,14.81-1.15,30.47-5.15,46.83,0,.01,0,.02-.01.04-.52,1.79,1.17,3.5,3.33,3.26Z"/><path class="cls-1" d="M157.99,49.03C156.84,29.11,139.19.25,85.69.25S14.55,29.11,13.4,49.03c-1.03,17.8,7.14,66.79,8.88,76.99.21,1.2.86,2.25,1.77,3,12.3,10.15,19.35,26.69,21.35,33.66.39,1.37,1.43,2.41,2.74,2.76,23.63,6.26,37.55,5.11,37.55,5.11,0,0,13.92,1.15,37.55-5.11,1.31-.35,2.35-1.39,2.74-2.76,2-6.97,9.05-23.51,21.35-33.66.91-.75,1.57-1.79,1.77-3,1.75-10.2,9.91-59.18,8.88-76.99Z"/><path class="cls-2" d="M16.06,83.24s59.95,14.58,139.26-2.7"/><path class="cls-3" d="M45.91,87.28s34.64,5.42,79.57-1.53"/><line class="cls-2" x1="84.91" y1="88.9" x2="84.91" y2="170.59"/><path class="cls-4" d="M34,14.17c8.22,9.3,18.77,16.95,28.99,18.8,7.54,1.19,15.12,1.79,22.71,1.79s15.18-.6,22.71-1.79h.03c10.2-1.85,20.74-9.5,28.95-18.8"/></g></svg>