<svg width="73" height="20" viewBox="0 0 73 20" fill="none" xmlns="http://www.w3.org/2000/svg">
<g clip-path="url(#clip0_397_896)">
<mask id="mask0_397_896" style="mask-type:luminance" maskUnits="userSpaceOnUse" x="0" y="0" width="73" height="20">
<path d="M72.0397 0H0V20H72.0397V0Z" fill="white"/>
</mask>
<g mask="url(#mask0_397_896)">
<mask id="mask1_397_896" style="mask-type:luminance" maskUnits="userSpaceOnUse" x="0" y="0" width="73" height="20">
<path d="M72.0397 0H0V20H72.0397V0Z" fill="white"/>
</mask>
<g mask="url(#mask1_397_896)">
<path d="M38.096 15.9002V17.8068H26.8751C26.8751 17.1802 26.8609 16.5693 26.8861 15.9585C26.8908 15.8215 27.0168 15.6798 27.1097 15.557C29.8303 11.9437 32.5556 8.33348 35.2699 4.71544C35.3675 4.58476 35.3959 4.38009 35.3912 4.21162C35.3912 4.16911 35.1314 4.10298 34.9897 4.10298C32.5651 4.09669 30.1404 4.09826 27.7158 4.09826C27.5631 4.09826 27.4104 4.09826 27.2183 4.09826C27.2183 3.48423 27.2104 2.92374 27.2277 2.36481C27.2293 2.29554 27.3568 2.2058 27.445 2.16801C27.5222 2.13495 27.6261 2.15856 27.7174 2.15856C31.0205 2.15856 34.3237 2.15856 37.6269 2.15856H38.1275C38.1275 2.81825 38.137 3.42913 38.1197 4.04001C38.1165 4.15494 38.0157 4.2746 37.9386 4.37694C35.2369 7.97451 32.5336 11.5721 29.8318 15.1681C29.7767 15.2405 29.7169 15.3114 29.6713 15.3885C29.4713 15.7254 29.5658 15.9002 29.9499 15.9002C32.4926 15.9018 35.0353 15.9002 37.578 15.9002C37.7449 15.9002 37.9118 15.9002 38.1008 15.9002H38.096Z" fill="white"/>
<path d="M48.7404 12.5261H40.8211C40.5518 14.4343 40.958 15.7852 42.7545 16.3315C44.5902 16.8904 46.012 16.056 46.5614 14.1399H48.5799C48.5531 14.9003 48.3201 15.5774 47.8603 16.163C46.6024 17.7658 44.8815 18.2932 42.9434 18.0618C40.6605 17.7894 39.2545 16.3551 38.7727 13.9557C38.4736 12.4616 38.494 10.9627 38.9144 9.48903C39.941 5.89933 43.4614 5.06645 46.0938 6.35906C47.588 7.09274 48.3012 8.42944 48.5562 10.0086C48.6869 10.8147 48.6806 11.6429 48.7404 12.5245V12.5261ZM46.5126 10.873C46.7268 9.6937 46.2591 8.50816 45.368 7.93349C44.3683 7.28797 42.8474 7.32104 41.9121 7.96183C40.9754 8.6042 40.6195 9.79604 40.8116 10.873H46.5126Z" fill="white"/>
<path d="M71.9728 9.90437C71.3068 9.90437 70.7069 9.91697 70.1086 9.8902C70.0236 9.88706 69.8977 9.69812 69.8741 9.58004C69.6836 8.61334 69.227 7.88753 68.2256 7.58524C66.837 7.16801 65.335 7.68128 64.7619 8.84321C64.5777 9.21635 64.469 9.66191 64.4564 10.0776C64.4171 11.3576 64.4029 12.6407 64.4517 13.9192C64.5194 15.6668 66.0608 16.7059 67.7769 16.4272C68.9798 16.232 69.7261 15.5251 69.9307 14.3206C69.9921 13.9585 70.1401 13.8845 70.4645 13.8987C70.973 13.9223 71.4815 13.905 72.0373 13.905C72.0279 14.6261 71.8216 15.2606 71.4815 15.8478C70.5495 17.4601 69.0617 18.0757 67.2778 18.115C64.8658 18.1686 63.0757 16.7657 62.5136 14.3616C62.0507 12.3809 62.079 10.4035 62.9308 8.53147C63.7259 6.787 65.1618 5.86911 67.0873 5.81085C68.254 5.77464 69.3876 5.96357 70.3527 6.70041C71.3871 7.4892 71.8484 8.57241 71.9712 9.9028L71.9728 9.90437Z" fill="white"/>
<path d="M50.2734 2.17773H52.3029V17.8212H50.2734V2.17773Z" fill="white"/>
<path d="M56.4654 17.8192H54.4375V2.17871H56.4654V17.8192Z" fill="white"/>
<path d="M58.6016 6.08381C59.2219 6.08381 59.8107 6.07278 60.398 6.09483C60.4846 6.09798 60.5822 6.24597 60.6436 6.34516C60.6782 6.40184 60.6515 6.49788 60.6515 6.5766C60.6515 10.1615 60.6515 13.7465 60.6515 17.3315C60.6515 17.6726 60.4809 17.8437 60.1398 17.8448C59.6328 17.8448 59.1258 17.8448 58.6016 17.8448V6.08381Z" fill="white"/>
<path d="M9.467 9.60122C9.04505 9.35876 8.65932 9.14621 8.28618 8.91319C8.22005 8.87068 8.17597 8.74158 8.17597 8.65341C8.17124 5.88241 8.17124 3.11141 8.17282 0.34042C8.17282 0.304209 8.19328 0.267997 8.2106 0.212891H9.46542V9.60122H9.467Z" fill="white"/>
<path d="M10.1209 11.5093C9.72104 11.7407 9.34003 11.969 8.94957 12.1768C8.87872 12.2146 8.74489 12.2052 8.67089 12.1627C6.24312 10.7693 3.8185 9.36966 1.39387 7.96999C1.3734 7.95897 1.36238 7.92906 1.32617 7.88025C1.52612 7.53545 1.73238 7.17963 1.95122 6.80176C4.68286 8.3762 7.38616 9.93331 10.1178 11.5077L10.1209 11.5093Z" fill="white"/>
<path d="M12.7773 8.48715C13.1883 8.25099 13.5551 8.02742 13.9361 7.82904C14.018 7.78653 14.1676 7.8007 14.251 7.84793C16.6788 9.24131 19.1003 10.6425 21.5233 12.0438C21.5328 12.0501 21.5359 12.0658 21.5674 12.1194C21.3737 12.4547 21.1659 12.8121 20.9455 13.1947C18.2233 11.6266 15.5216 10.0679 12.7773 8.48715Z" fill="white"/>
<path d="M4.57445 17.7326C4.35088 17.3453 4.14148 16.9847 3.92578 16.6116C6.62908 15.0529 9.32293 13.5005 12.0892 11.9072C12.0892 12.4047 12.0987 12.8518 12.0798 13.2974C12.0766 13.373 11.9695 13.4643 11.8877 13.5115C9.46463 14.9143 7.04001 16.3109 4.57287 17.7341L4.57445 17.7326Z" fill="white"/>
<path d="M18.3181 2.25977C18.5401 2.64393 18.7464 3.0029 18.9683 3.38706C16.2525 4.95362 13.5602 6.50443 10.8065 8.09304C10.8065 7.60339 10.7813 7.17514 10.8222 6.75162C10.8333 6.62881 11.0096 6.49026 11.1418 6.41312C13.4059 5.10004 15.6731 3.79484 17.9402 2.48806C18.0536 2.42351 18.1638 2.35423 18.3197 2.25977H18.3181Z" fill="white"/>
<path d="M13.4512 10.4082C13.8495 10.6381 14.2085 10.8255 14.5423 11.049C14.6367 11.112 14.706 11.2805 14.7076 11.4017C14.717 14.0971 14.7123 16.791 14.7186 19.4864C14.7186 19.7163 14.6556 19.8233 14.4084 19.8123C14.0983 19.7982 13.7865 19.8092 13.4527 19.8092V10.4098L13.4512 10.4082Z" fill="white"/>
<path d="M17.3059 19.7918H16.0605V11.9102C16.4746 12.1511 16.8761 12.3763 17.2666 12.6172C17.3217 12.6518 17.3453 12.7715 17.3453 12.8518C17.3484 15.1268 17.3453 17.4003 17.3421 19.6753C17.3421 19.699 17.328 19.7226 17.3043 19.7903L17.3059 19.7918Z" fill="white"/>
<path d="M0 10.1752C0.217272 9.7989 0.425096 9.4415 0.640794 9.06836C2.919 10.3815 5.16886 11.6788 7.49902 13.0234C7.05818 13.2753 6.67401 13.5052 6.27726 13.7114C6.21113 13.746 6.07573 13.6925 5.99229 13.6453C4.03212 12.5196 2.0751 11.3891 0.116508 10.2587C0.0834449 10.2398 0.0535307 10.2146 0 10.1768V10.1752Z" fill="white"/>
<path d="M22.8994 9.8132C22.6837 10.188 22.4853 10.5343 22.2586 10.9279C19.9867 9.61797 17.7305 8.31749 15.4004 6.97607C15.8412 6.72102 16.227 6.48957 16.6221 6.2786C16.6788 6.24869 16.7953 6.2912 16.8662 6.33213C18.8374 7.46415 20.807 8.60089 22.7766 9.73762C22.8097 9.75652 22.8427 9.77856 22.8978 9.8132H22.8994Z" fill="white"/>
<path d="M12.0918 14.9287C12.0918 15.4404 12.106 15.8671 12.0808 16.2937C12.076 16.3851 11.9517 16.4968 11.8556 16.5535C9.87813 17.7013 7.8975 18.8427 5.88695 20.0015C5.67597 19.6363 5.46185 19.2663 5.23828 18.8805C7.50861 17.5722 9.75847 16.2748 12.0918 14.9287Z" fill="white"/>
<path d="M10.8059 5.06809C10.8059 4.56113 10.7949 4.1439 10.8138 3.72825C10.8185 3.63694 10.9114 3.51885 10.9964 3.46847C12.9865 2.31441 14.9797 1.16823 17.0092 0C17.2296 0.376289 17.4422 0.743131 17.661 1.11785C15.397 2.42305 13.1455 3.72038 10.8059 5.06809Z" fill="white"/>
<path d="M5.59423 0.213867H6.81914V8.06871C6.40034 7.82782 6.01146 7.61212 5.63359 7.37596C5.58006 7.3429 5.56432 7.21537 5.56432 7.13035C5.56117 4.88206 5.56274 2.63377 5.56432 0.387055C5.56432 0.336673 5.58164 0.287866 5.59423 0.213867Z" fill="white"/>
<path d="M60.6774 2.15587V4.27348H58.5535C58.5535 3.62324 58.5488 2.96356 58.5629 2.30544C58.5629 2.25349 58.7078 2.16375 58.7881 2.16217C59.4021 2.14958 60.0177 2.15587 60.6774 2.15587Z" fill="white"/>
</g>
</g>
</g>
<defs>
<clipPath id="clip0_397_896">
<rect width="73" height="20" fill="white"/>
</clipPath>
</defs>
</svg>
