<svg width="187" height="18" viewBox="0 0 187 18" fill="none" xmlns="http://www.w3.org/2000/svg">
<g clip-path="url(#clip0_2707_6479)">
<path d="M121.239 0.369141H124.572C127.191 3.74801 129.841 7.16449 132.814 10.9993C133.182 7.19893 132.791 3.87298 133.088 0.419514H136.144C136.59 2.19216 136.735 12.7305 136.363 17.4203H133.321C130.73 14.0931 127.981 10.5638 124.886 6.58998V17.2514C123.685 17.8558 122.579 17.5345 121.509 17.5357C121.021 15.7242 120.873 6.53323 121.24 0.369141H121.239Z" fill="#ACB4C0"/>
<path d="M109.435 1.75152C108.62 2.38916 107.819 3.01724 106.712 3.88443C105.49 3.51141 103.641 2.99492 101.95 4.06552C101.036 4.6445 100.145 5.45495 99.5913 6.37251C98.2741 8.55389 98.7573 11.2613 100.555 13.018C102.238 14.6619 104.684 15.0425 106.783 13.9879C109.168 12.7885 110.147 10.4432 109.582 7.06308C110.383 6.30939 111.252 5.49257 112.119 4.67766C114.543 7.66501 113.982 12.4639 110.827 15.4659C107.283 18.8365 101.479 18.8454 97.9072 15.4857C94.4512 12.235 94.157 6.87944 97.2349 3.25699C100.27 -0.315714 105.646 -1.02158 109.435 1.75152Z" fill="#ACB4C0"/>
<path d="M25.8465 14.2375H33.6695V17.2293C32.0171 17.7012 25.3066 17.8019 22.1367 17.3747V0.414062H33.5166V3.62076H25.8869V6.9314H33.0377V10.3249H25.8465V14.2375Z" fill="#ACB4C0"/>
<path d="M13.5067 2.85227C12.7479 3.5167 12.0918 4.09121 11.4805 4.62683C10.3704 4.21109 9.37839 3.72903 8.33171 3.49183C7.75768 3.36175 7.03936 3.52562 6.47777 3.77048C5.51629 4.18941 5.37511 5.27723 6.21719 5.90275C6.84408 6.36823 7.6364 6.61309 8.36218 6.9402C9.60104 7.49941 10.899 7.95277 12.0756 8.62102C13.7828 9.59088 14.4296 11.206 14.2629 13.1272C14.0963 15.0421 13.1603 16.4723 11.3772 17.2541C7.72223 18.8565 2.4633 17.6296 0.859375 14.1137C1.63117 13.5596 2.45024 12.9717 3.32714 12.3423C3.8651 12.7969 4.28178 13.3396 4.82783 13.5678C5.84342 13.9919 6.91933 14.4032 7.9996 14.5052C9.28697 14.627 10.3417 13.8586 10.4487 12.9927C10.5992 11.771 9.67691 11.3176 8.7969 10.9089C8.14513 10.606 7.43677 10.4287 6.76883 10.1577C5.95288 9.8268 5.11267 9.52711 4.35455 9.08841C2.69092 8.12557 1.80345 6.65007 1.92285 4.69506C2.04288 2.73814 3.12688 1.42013 4.87323 0.62754C7.79562 -0.698755 11.1185 0.0931962 13.5067 2.85227Z" fill="#ACB4C0"/>
<path d="M159.358 9.42638C158.988 8.87354 158.639 8.35131 158.218 7.7226C159.533 6.51936 160.804 5.35567 162.478 3.82278C160.289 3.70673 158.598 3.61682 156.8 3.52117V0.408203H167.431C167.504 0.795252 167.605 1.16955 167.64 1.55022C167.676 1.94683 167.648 2.34855 167.648 2.90202C166.465 4.00833 165.25 5.14588 163.877 6.43073C164.273 6.64944 164.505 6.82543 164.766 6.91407C167.009 7.67477 168.163 9.29502 168.264 11.609C168.372 14.092 167.276 15.9635 165.052 17.0985C161.758 18.7793 157.859 17.8681 155.275 14.7698C155.815 13.7158 156.98 13.4709 157.496 13.0718C159.036 13.5774 160.261 14.2081 161.537 14.3426C163.253 14.5237 164.377 13.5475 164.521 12.2039C164.674 10.7705 163.641 9.67378 161.807 9.44359C161.025 9.3454 160.22 9.42701 159.358 9.42701V9.42638Z" fill="#ACB4C0"/>
<path d="M54.6032 12.637C55.4042 13.3238 56.1219 13.9385 56.8185 14.5359C54.574 18.356 47.7478 19.2966 43.5486 15.4911C39.8837 12.1696 39.8184 6.2689 43.2936 2.70002C47.0376 -1.14433 54.3799 -0.61062 56.8135 3.31726C56.1306 3.93704 55.4285 4.57405 54.6498 5.28056C54.0192 4.88904 53.4408 4.48095 52.8202 4.15384C50.3997 2.87792 47.4449 3.40079 45.79 5.3711C44.0984 7.38541 44.0766 10.5067 45.7402 12.5159C47.389 14.5066 50.32 15.062 52.7555 13.8135C53.3208 13.524 53.8339 13.1318 54.6038 12.6377L54.6032 12.637Z" fill="#ACB4C0"/>
<path d="M180.065 14.1744H186.517V17.2223C184.947 17.7038 177.752 17.8128 174.643 17.3741C174.137 16.0491 174.458 14.99 175.523 13.9857C177.569 12.0555 179.542 10.047 181.513 8.0371C182.009 7.53082 182.5 6.95247 182.776 6.31228C183.242 5.2353 182.812 4.10795 181.908 3.57743C180.998 3.04309 179.809 3.2076 179.077 4.07352C178.675 4.54793 178.422 5.14858 178.106 5.68612H175.254C175.256 3.01567 176.653 1.00646 178.92 0.290389C181.305 -0.463304 183.992 0.37392 185.399 2.30725C186.769 4.19085 186.796 6.6005 185.294 8.59313C184.429 9.74152 183.345 10.7248 182.355 11.7769C181.709 12.463 181.054 13.1402 180.065 14.1744Z" fill="#ACB4C0"/>
<path d="M71.2616 17.4853H67.5525V3.81421C65.8708 3.70581 64.3956 3.61016 62.834 3.50941V0.394531H75.7649V3.53109C74.2922 3.61399 72.8829 3.69305 71.2616 3.78424V17.4853Z" fill="#ACB4C0"/>
<path d="M83.9844 0.349609H87.2065C87.6954 2.0062 87.8154 14.1718 87.3601 17.4697C87.0137 17.5117 86.6344 17.5864 86.2531 17.5985C85.5466 17.6201 84.8389 17.6048 83.985 17.6048V0.349609H83.9844Z" fill="#ACB4C0"/>
</g>
<defs>
<clipPath id="clip0_2707_6479">
<rect width="185.657" height="18" fill="white" transform="translate(0.859375)"/>
</clipPath>
</defs>
</svg>
