<svg width="206" height="32" viewBox="0 0 206 32" fill="none" xmlns="http://www.w3.org/2000/svg">
<g clip-path="url(#clip0_2707_6491)">
<path d="M10.6271 3.12953C10.6271 2.37758 10.625 1.75822 10.6271 1.13885C10.6312 0.10933 10.6892 0.0575434 11.6941 0.0585791C18.2019 0.0606506 24.7086 0.0606506 31.2163 0.0585791C32.0278 0.0585791 32.1437 0.162152 32.1437 0.993846C32.1468 11.0394 32.1437 21.085 32.1561 31.1306C32.1561 31.7748 31.9036 32.0016 31.2764 32.0006C21.198 31.9923 11.1207 31.9944 1.04239 32.0006C0.452466 32.0006 0.192694 31.7727 0.197868 31.1637C0.248581 24.8271 0.286874 18.4905 0.325167 12.1549C0.327237 11.8514 0.332412 11.5397 0.26928 11.2455C0.136806 10.6241 0.455571 10.4273 0.989605 10.419C1.52985 10.4097 2.07009 10.4314 2.61034 10.4232C3.28409 10.4128 3.37102 10.2605 3.07606 9.67639C2.23361 8.00369 1.42118 6.31648 0.540437 4.66552C0.100583 3.84004 0.216498 2.98349 0.198903 2.1259C0.153366 -0.140282 0.191659 0.189081 2.24396 0.0181855C4.24349 -0.148567 5.74209 0.866451 7.37628 1.63082C8.20321 2.01819 9.0084 2.45112 9.83015 2.85195C10.0278 2.94827 10.2493 2.99902 10.6281 3.12746L10.6271 3.12953ZM20.8462 11.3791C20.665 11.3305 20.5978 11.2963 20.5305 11.2963C17.6927 11.2849 14.8559 11.2787 12.018 11.2683C11.5037 11.2662 11.4136 11.5728 11.4157 12.0078C11.426 14.6552 11.4405 17.3035 11.4105 19.9509C11.4033 20.6137 11.6506 20.8033 12.2757 20.7981C14.8786 20.7774 17.4826 20.7701 20.0844 20.8053C20.754 20.8147 20.93 20.5661 20.9248 19.9467C20.9031 17.346 20.9176 14.7453 20.9124 12.1445C20.9124 11.8949 20.87 11.6453 20.8462 11.3802V11.3791ZM31.1967 16.0275H31.1946C31.1946 14.7391 31.1625 13.4496 31.2081 12.1622C31.2308 11.4972 31.0383 11.2549 30.3429 11.2642C27.74 11.2984 25.1371 11.2942 22.5342 11.2662C21.9463 11.26 21.8169 11.4962 21.819 12.0161C21.8325 14.6873 21.8345 17.3584 21.8169 20.0285C21.8128 20.6075 22.0219 20.8022 22.6035 20.7971C25.2064 20.7743 27.8093 20.7743 30.4122 20.8012C31.0487 20.8074 31.2195 20.5526 31.206 19.9633C31.176 18.6521 31.1967 17.3398 31.1967 16.0275ZM20.9134 26.3797C20.9134 25.0415 20.9031 23.7033 20.9186 22.3662C20.9248 21.8545 20.7809 21.5925 20.1993 21.5977C17.5209 21.6205 14.8424 21.6143 12.165 21.606C11.6341 21.6039 11.4115 21.8017 11.4147 22.3579C11.4322 25.0332 11.4281 27.7095 11.4105 30.3859C11.4074 30.9048 11.6123 31.0985 12.1184 31.0964C14.8207 31.086 17.5219 31.0819 20.2241 31.0985C20.7478 31.1016 20.9289 30.9037 20.9207 30.3942C20.9 29.057 20.9134 27.7189 20.9134 26.3807V26.3797ZM23.6674 21.6111C22.442 21.6111 21.8294 22.1535 21.8294 23.2383C21.8294 23.3325 21.8418 23.4278 21.8283 23.52C21.731 24.1818 21.9939 24.6603 22.47 25.1285C24.1942 26.8198 25.9019 28.5298 27.5619 30.2833C28.1477 30.9027 28.7594 31.1357 29.5998 31.1047C31.4316 31.0363 31.1367 31.316 31.2122 29.4713C31.2474 28.6044 30.9938 27.9633 30.3925 27.346C28.9384 25.8525 27.5081 24.332 26.1347 22.7639C25.4041 21.9301 24.6589 21.3211 23.6674 21.6122V21.6111ZM20.8068 9.94361C20.8596 9.46511 20.9103 9.22067 20.9114 8.97624C20.9176 6.5868 20.8958 4.19633 20.9269 1.8069C20.9352 1.13574 20.7168 0.906844 20.0389 0.917202C17.7413 0.951381 15.4427 0.931702 13.1441 0.932738C12.8315 0.932738 12.5189 0.932738 12.2054 0.932738C12.165 1.00731 12.1246 1.08292 12.0853 1.15749C14.9418 4.03476 17.7982 6.91202 20.8068 9.94258V9.94361ZM10.3435 19.9043C10.4377 19.8463 10.5329 19.7883 10.6271 19.7292C10.6271 19.5014 10.6271 19.2725 10.6271 19.0446C10.6271 16.7494 10.5981 14.4532 10.6415 12.159C10.655 11.4599 10.417 11.259 9.75667 11.2662C7.4125 11.2911 5.06834 11.2756 2.72315 11.2818C2.50891 11.2818 2.29364 11.3315 1.85793 11.3843C4.78787 14.3258 7.56568 17.115 10.3424 19.9043H10.3435ZM1.46568 12.2202C1.39117 12.2543 1.31665 12.2875 1.2411 12.3217C1.21833 12.5216 1.17486 12.7204 1.17486 12.9203C1.16658 15.2662 1.18107 17.6132 1.15002 19.9581C1.14174 20.6086 1.37978 20.8064 2.01524 20.7981C4.33974 20.7691 6.66423 20.7867 8.98977 20.7826C9.18848 20.7826 9.38719 20.7473 9.5859 20.7277C9.62419 20.6624 9.66145 20.5982 9.69974 20.5329C6.95506 17.7613 4.21037 14.9897 1.46672 12.2191L1.46568 12.2202ZM2.14771 21.6143C2.04732 21.7468 1.94797 21.8784 1.84758 22.0109C4.63677 24.8167 7.42699 27.6215 10.2162 30.4273C10.3393 30.3299 10.4625 30.2326 10.5857 30.1352C10.6012 29.9353 10.6291 29.7365 10.6291 29.5366C10.6291 27.1896 10.5991 24.8416 10.6384 22.4957C10.6498 21.7862 10.3735 21.5987 9.73079 21.6049C7.52221 21.6246 5.31466 21.6132 3.10608 21.6143C2.78628 21.6143 2.46751 21.6143 2.14771 21.6143ZM22.8022 0.932738C22.8322 1.44853 30.3222 9.10053 31.0756 9.42471C31.1077 9.36671 31.1687 9.30767 31.1687 9.24864C31.1801 6.64688 31.1884 4.04512 31.1915 1.44335C31.1915 1.0011 30.909 0.921345 30.5281 0.926523C29.3545 0.941024 28.1819 0.933773 27.0082 0.933773C25.6069 0.933773 24.2056 0.933773 22.8022 0.933773V0.932738ZM1.23178 22.6531V30.9959H9.67801C6.81741 28.1704 4.04788 25.434 1.23282 22.6531H1.23178ZM30.2373 10.419C30.2797 10.3465 30.3222 10.274 30.3646 10.2005C27.5971 7.41228 24.8297 4.62409 22.0022 1.77479C21.909 1.97779 21.8118 2.09276 21.8107 2.20669C21.8066 4.74009 21.8118 7.27349 21.819 9.80793C21.82 10.2108 21.936 10.4522 22.4358 10.4439C24.455 10.4128 26.4742 10.4232 28.4934 10.419C29.074 10.418 29.6556 10.419 30.2363 10.419H30.2373ZM11.6009 1.9229C11.4778 2.2419 11.4312 2.30612 11.4312 2.37137C11.424 4.85609 11.4219 7.34185 11.4178 9.82658C11.4178 10.332 11.7148 10.4387 12.1567 10.4366C14.5733 10.4273 16.991 10.4356 19.4076 10.4325C19.5121 10.4325 19.6156 10.3859 19.923 10.3134C17.111 7.47753 14.4057 4.75045 11.6009 1.9229ZM2.16427 0.857129C2.12391 0.970024 2.08355 1.08292 2.04318 1.19581C4.84376 3.9664 7.56154 6.82088 10.4553 9.61943C10.5691 9.36464 10.6208 9.3025 10.6208 9.24035C10.6271 7.71472 10.654 6.18908 10.6053 4.66552C10.597 4.41384 10.3042 4.07308 10.0547 3.94361C8.20321 2.9866 6.35582 2.01197 4.44944 1.17613C3.77155 0.87888 2.93117 0.952417 2.16427 0.856093V0.857129ZM9.55071 10.4252C9.56313 10.2761 9.62419 10.1145 9.57451 10.0638C6.82569 7.33253 4.06858 4.60959 1.13864 1.71575C1.18211 2.61995 1.01237 3.45785 1.29181 4.10208C2.1384 6.04822 3.163 7.91668 4.11101 9.81933C4.32007 10.2388 4.60986 10.4428 5.10664 10.4346C6.55867 10.4087 8.0107 10.4252 9.55174 10.4252H9.55071ZM21.9132 26.1808C21.9173 26.1704 21.8087 26.302 21.8076 26.4346C21.8014 27.7934 21.819 29.1523 21.8169 30.5112C21.8169 30.9835 22.0622 31.0985 22.4897 31.0922C23.7326 31.0736 24.9766 31.0871 26.2196 31.0798C26.4163 31.0788 26.6129 31.0363 26.9006 31.0021C25.1847 29.3429 23.5546 27.7675 21.9132 26.1808ZM26.6088 21.6122C26.5622 21.693 26.5156 21.7738 26.469 21.8545C27.9707 23.4703 29.4735 25.086 31.0083 26.737C31.0994 26.5764 31.1615 26.5174 31.1615 26.4584C31.177 25.0094 31.207 23.5594 31.1687 22.1114C31.1646 21.9384 30.7972 21.6588 30.5736 21.6319C29.9961 21.5635 29.4062 21.6101 28.8215 21.6101C28.0836 21.6101 27.3467 21.6101 26.6088 21.6101V21.6122Z" fill="#ACB4C0"/>
<path d="M63.9825 17.6415C63.849 17.5068 63.6585 17.3929 63.5964 17.2313C63.4971 16.9745 63.5085 16.6772 63.4288 16.41C63.2321 15.7471 62.8295 15.4375 62.0792 15.4716C60.6489 15.5369 59.2145 15.5234 57.7821 15.5048C57.218 15.4975 57.0411 15.7347 57.0462 16.2619C57.0618 17.9729 57.0452 19.6829 57.0566 21.394C57.0628 22.2049 57.3277 22.4431 58.1433 22.5757C58.6545 22.6586 59.1513 22.8243 59.6553 22.9538C59.6605 23.0418 59.6657 23.1288 59.6709 23.2168C59.496 23.2966 59.3221 23.4416 59.1451 23.4447C57.2439 23.4789 55.3417 23.4975 53.4394 23.4975C53.278 23.4975 53.1165 23.3391 52.9551 23.2541C52.9737 23.1816 52.9913 23.1081 53.0099 23.0356C53.3908 22.9879 53.7748 22.9538 54.1535 22.8895C54.7528 22.788 55.1202 22.497 55.1212 21.8155C55.1274 17.7565 55.1575 13.6974 55.1657 9.63838C55.1668 8.96309 54.7476 8.67619 53.6412 8.50736C53.3121 8.45765 52.8692 8.52704 53.0358 7.84035C53.6837 7.84035 54.3533 7.84035 55.0219 7.84035C58.2623 7.84035 61.5027 7.84967 64.7432 7.83207C65.3672 7.82896 65.6612 8.03196 65.6322 8.68655C65.6084 9.22409 65.6674 9.76474 65.6705 10.3044C65.6715 10.5198 65.6218 10.7352 65.596 10.9517C65.509 10.9693 65.4221 10.9869 65.3352 11.0035C65.2306 10.7363 65.0743 10.4784 65.0298 10.2008C64.8022 8.77873 64.6003 8.46904 63.1845 8.40483C61.364 8.323 59.5353 8.39861 57.7096 8.43279C57.2004 8.44211 57.01 8.74455 57.0224 9.27899C57.0535 10.6845 57.0204 12.092 57.0162 13.4986C57.0162 13.8031 56.9552 14.1376 57.0628 14.4017C57.1518 14.6203 57.4426 14.9009 57.6496 14.9051C59.0106 14.933 60.3736 14.9092 61.7346 14.8699C62.8792 14.8367 63.0355 14.6959 63.3398 13.5887C63.4484 13.193 63.5312 12.7912 63.6264 12.3924C63.7155 12.3924 63.8045 12.3934 63.8935 12.3945C63.9825 14.0972 64.0715 15.8 64.1605 17.5027C64.1015 17.5493 64.0435 17.5949 63.9845 17.6415H63.9825Z" fill="#ACB4C0"/>
<path d="M79.6906 7.9469C79.9338 7.75115 80.0663 7.56782 80.2381 7.52018C80.8891 7.33789 81.5515 7.19703 82.2097 7.04374C82.7158 6.92567 82.9455 7.09138 82.9414 7.64861C82.9073 11.7553 82.8928 15.862 82.8721 19.9686C82.869 20.6491 82.8534 21.3296 82.8607 22.009C82.8658 22.4948 83.0946 22.8449 83.6058 22.8615C84.4462 22.8884 85.2918 22.9101 86.128 22.8459C86.7676 22.7972 87.1423 22.3705 87.1464 21.7087C87.1578 19.8081 87.1505 17.9065 87.1547 16.0059C87.1557 15.3079 86.6703 15.0572 86.127 14.8335C85.9552 14.7631 85.8186 14.6087 85.6664 14.4927C85.801 14.3581 85.92 14.2007 86.0742 14.0919C86.6983 13.6507 87.3327 13.225 87.9619 12.791C88.1089 12.6895 88.2497 12.5777 88.4991 12.3902C88.5322 12.7921 88.5777 13.0821 88.5777 13.3731C88.5777 16.0018 88.5664 18.6305 88.5622 21.2581C88.5601 22.3954 88.6833 22.5507 89.7969 22.8656C89.9729 22.9153 90.1436 22.9795 90.3175 23.0375C90.3372 23.1059 90.3558 23.1732 90.3754 23.2416C90.1933 23.3151 90.0111 23.4529 89.828 23.4539C86.5172 23.4787 83.2064 23.4901 79.8955 23.4881C79.7341 23.4881 79.5716 23.3327 79.4102 23.2499C79.4278 23.1773 79.4464 23.1048 79.464 23.0313C79.7745 22.9878 80.0839 22.9195 80.3965 22.905C81.0712 22.8739 81.3548 22.4907 81.3869 21.8651C81.4117 21.3969 81.4387 20.9277 81.4407 20.4586C81.4594 16.9163 81.4583 13.3741 81.5008 9.83193C81.509 9.11417 81.2472 8.68227 80.5941 8.43059C80.3199 8.32494 80.0705 8.15301 79.6927 7.94897L79.6906 7.9469Z" fill="#ACB4C0"/>
<path d="M127.363 23.9643C127.03 23.2072 126.693 22.4511 126.362 21.6919C125.232 19.0994 124.11 16.5029 122.973 13.9135C122.352 12.4977 121.7 11.0953 121.075 9.68153C120.744 8.93269 120.242 8.46868 119.375 8.42932C119.103 8.4169 118.839 8.23564 118.571 8.13103C118.594 8.05025 118.617 7.96946 118.64 7.88867H125.727C125.757 7.95703 125.788 8.02642 125.818 8.09478C125.619 8.19836 125.43 8.36614 125.221 8.39307C124.757 8.45315 124.281 8.41897 123.815 8.46868C123.126 8.54118 122.912 8.79908 123.135 9.45988C123.465 10.4335 123.877 11.3812 124.282 12.3278C125.428 15.0104 126.585 17.6867 127.747 20.362C127.834 20.5619 127.993 20.7297 128.198 21.028C128.639 20.0047 129.058 19.1326 129.397 18.2305C130.316 15.7778 131.208 13.3149 132.092 10.8488C132.241 10.4324 132.321 9.98707 132.396 9.54895C132.515 8.85708 132.272 8.56501 131.557 8.4604C131.096 8.39307 130.638 8.31643 130.181 8.22529C130.114 8.21182 130.068 8.09789 129.907 7.90732H135.783C135.814 7.96739 135.845 8.02642 135.876 8.0865C135.658 8.19421 135.437 8.40239 135.225 8.39307C134.152 8.34543 133.697 8.99794 133.346 9.86899C132.208 12.6883 131.021 15.4889 129.895 18.3133C129.23 19.9798 128.651 21.6805 128.017 23.3594C127.933 23.5821 127.75 23.7685 127.614 23.9715L127.362 23.9643H127.363Z" fill="#ACB4C0"/>
<path d="M158.637 23.1029C158.286 23.5534 154.077 23.6238 153.482 23.077C153.897 22.9972 154.214 22.9206 154.534 22.8771C155.293 22.7735 155.521 22.528 155.519 21.7875C155.513 20.2867 155.526 18.787 155.498 17.2862C155.478 16.1376 155.236 15.1008 154.001 14.5964C152.934 14.1604 150.531 14.9599 149.993 15.9915C149.902 16.1666 149.895 16.3996 149.896 16.6057C149.903 18.2484 149.911 19.89 149.943 21.5327C149.964 22.6409 150.092 22.7538 151.178 22.933C151.426 22.9734 151.659 23.1008 151.898 23.1878C151.878 23.2779 151.857 23.368 151.838 23.4592H146.792C146.601 23.1174 146.774 22.9931 147.165 22.9361C148.464 22.7466 148.475 22.7383 148.484 21.4643C148.495 20.1272 148.47 18.789 148.477 17.4519C148.48 16.7673 148.201 16.3458 147.505 16.2039C147.355 16.1728 147.198 16.0267 147.113 15.89C147.075 15.8289 147.176 15.5876 147.262 15.5544C148.279 15.1712 148.951 14.4017 149.564 13.5586C149.597 13.5141 149.684 13.5089 149.866 13.4395C149.918 13.947 149.965 14.4089 150.025 14.9941C150.309 14.8491 150.526 14.7507 150.731 14.6306C151.786 14.0154 152.828 13.3815 154.116 13.3887C155.728 13.3991 156.888 14.4814 156.919 16.0941C156.952 17.8538 156.929 19.6135 156.934 21.3732C156.937 22.5094 156.994 22.5746 158.099 22.8336C158.236 22.8657 158.373 22.9019 158.502 22.9558C158.558 22.9796 158.594 23.0521 158.637 23.1008V23.1029Z" fill="#ACB4C0"/>
<path d="M99.5767 23.8341C99.5395 23.543 99.5064 23.3193 99.4846 23.0935C99.4619 22.8657 99.4505 22.6368 99.4256 22.2815C99.0944 22.439 98.8543 22.5518 98.6163 22.6668C97.7977 23.0625 97.008 23.5379 96.1562 23.8393C94.7653 24.3302 93.1704 23.194 92.8568 21.4944C92.7171 20.7404 92.7223 19.9553 92.7129 19.1836C92.6995 17.9408 92.7202 16.6979 92.743 15.455C92.7544 14.8294 92.508 14.5001 91.8519 14.4462C91.5828 14.4245 91.3282 14.2287 91.0674 14.1117C91.0912 14.0329 91.114 13.9553 91.1378 13.8765H94.1588C94.1805 14.1728 94.2178 14.4431 94.2178 14.7145C94.2188 16.8015 94.1898 18.8885 94.2178 20.9744C94.2323 22.0557 94.9547 22.7352 96.0403 22.8191C97.2398 22.9123 98.2417 22.4369 99.1245 21.6943C99.3263 21.5244 99.4763 21.1774 99.4815 20.9092C99.5177 19.1505 99.5198 17.3908 99.5074 15.6321C99.5012 14.7445 99.2849 14.5632 98.3845 14.4472C97.9529 14.3913 97.5306 14.2556 97.1053 14.1562C97.1167 14.0619 97.127 13.9667 97.1384 13.8724C97.3744 13.8434 97.6103 13.7916 97.8473 13.7895C98.5749 13.7854 99.3025 13.8092 100.03 13.8051C101.024 13.7989 101.106 13.9024 101.076 14.8791C101.014 16.9413 100.967 19.0045 100.947 21.0666C100.936 22.2266 101.031 22.2784 102.195 22.3085C102.376 22.3136 102.553 22.4825 102.732 22.5757C102.584 22.6937 102.453 22.8595 102.284 22.9206C101.427 23.2261 100.561 23.5037 99.5747 23.833L99.5767 23.8341Z" fill="#ACB4C0"/>
<path d="M172.928 13.8117C173.642 13.8117 174.355 13.8086 175.069 13.8117C176.763 13.821 176.746 13.8221 176.715 15.5486C176.682 17.4254 176.677 19.3032 176.676 21.1809C176.676 22.2488 176.73 22.2861 177.797 22.2954C177.98 22.2975 178.163 22.3202 178.61 22.3534C178.354 22.631 178.25 22.8433 178.091 22.9003C177.213 23.213 176.323 23.4886 175.307 23.819C175.244 23.3529 175.183 22.892 175.107 22.314C174.846 22.4249 174.627 22.5067 174.416 22.6082C173.579 23.0163 172.772 23.5072 171.903 23.8252C170.488 24.342 168.785 23.1872 168.602 21.5238C168.449 20.1328 168.508 18.719 168.479 17.3145C168.467 16.7045 168.454 16.0934 168.469 15.4844C168.484 14.8257 168.215 14.4891 167.528 14.4435C167.282 14.4269 167.049 14.2177 166.81 14.0965C166.84 14.0043 166.87 13.9122 166.9 13.82C167.802 13.82 168.707 13.7858 169.603 13.8552C169.744 13.8666 169.95 14.3513 169.952 14.6185C169.966 16.4953 169.907 18.372 169.926 20.2488C169.949 22.5864 171.606 23.5041 173.734 22.4466C174.818 21.908 175.367 21.1965 175.262 19.9132C175.153 18.5844 175.262 17.24 175.254 15.9018C175.248 14.7884 175.031 14.5792 173.937 14.429C173.573 14.3793 173.221 14.2395 172.864 14.14C172.885 14.0292 172.905 13.9194 172.927 13.8086L172.928 13.8117Z" fill="#ACB4C0"/>
<path d="M72.7797 13.3981C75.8193 13.1868 78.2794 15.9594 78.2297 18.7973C78.1801 21.6435 75.7614 23.9449 72.6234 23.9491C69.6107 23.9532 67.2634 21.7057 67.2241 18.7166C67.1868 15.888 69.4306 13.221 72.7797 13.3981ZM68.969 18.6679C69.1584 19.5741 69.2433 20.5198 69.561 21.3784C69.9926 22.5426 70.8557 23.309 72.1805 23.4043C73.5828 23.5058 74.8092 23.2002 75.5492 21.8776C76.6908 19.8362 76.5624 17.7554 75.66 15.6736C74.5971 13.221 71.2107 13.2572 69.8756 15.3432C69.2205 16.3654 69.0963 17.4789 68.969 18.6689V18.6679Z" fill="#ACB4C0"/>
<path d="M145.507 21.764C145.417 21.9318 145.363 22.1389 145.23 22.2622C143.409 23.9536 140.481 24.7086 138.254 22.9064C136.909 21.8179 136.21 19.5196 136.726 17.8645C136.94 17.1778 137.174 16.4921 137.469 15.8365C138.254 14.0944 140.25 13.0846 142.409 13.446C143.994 13.7112 145.547 15.7588 145.196 17.2793H138.394C137.814 19.0846 138.668 21.4274 140.201 22.284C142.058 23.3218 143.779 22.8277 145.399 21.5393L145.508 21.764H145.507ZM140.945 16.8722V16.8774C141.555 16.8774 142.177 16.9499 142.77 16.8484C143.084 16.7946 143.505 16.489 143.599 16.2052C143.819 15.5444 143.218 14.4693 142.605 14.1141C140.773 13.0545 138.891 14.7345 138.561 16.2964C138.484 16.6599 138.626 16.8836 139.044 16.8764C139.678 16.866 140.311 16.8733 140.946 16.8733L140.945 16.8722Z" fill="#ACB4C0"/>
<path d="M197.109 21.6746C197.07 21.8372 197.086 22.0558 196.984 22.1552C194.828 24.2722 190.933 24.8906 189.038 21.9191C187.87 20.0868 188.021 18.1252 188.9 16.206C189.809 14.2256 191.347 13.2676 193.553 13.4033C194.99 13.4913 196.402 14.6171 196.776 16.0247C196.999 16.8623 196.669 17.2814 195.786 17.2821C194.119 17.2821 192.45 17.28 190.783 17.2831C189.804 17.2852 189.797 17.2893 189.789 18.2546C189.777 19.8217 190.308 21.1661 191.564 22.1324C192.852 23.1236 194.892 23.0439 196.316 22.0237C196.521 21.8766 196.726 21.7306 196.931 21.5835C196.99 21.6135 197.05 21.6446 197.109 21.6746ZM192.57 16.8823C192.57 16.8823 192.57 16.8771 192.57 16.875C193.204 16.875 193.838 16.8958 194.471 16.8688C195.015 16.845 195.399 16.5436 195.322 15.9791C195.166 14.8388 194.502 13.83 193.095 13.7968C191.798 13.7658 190.261 15.0957 190.124 16.3365C190.079 16.7414 190.306 16.8823 190.67 16.8823C191.304 16.8823 191.937 16.8823 192.57 16.8823Z" fill="#ACB4C0"/>
<path d="M185.934 23.2972C185.726 23.3562 185.518 23.465 185.31 23.467C183.504 23.4857 181.697 23.4909 179.891 23.4826C179.7 23.4826 179.51 23.3655 179.319 23.3034C179.322 23.2164 179.327 23.1304 179.33 23.0434C179.698 22.9854 180.066 22.8974 180.436 22.8756C181.044 22.8404 181.335 22.5421 181.33 21.9404C181.316 20.2521 181.301 18.5649 181.285 16.8767C181.278 16.2407 181.015 15.8792 180.32 15.843C180.039 15.8285 179.767 15.6151 179.425 15.4629C180.566 14.6177 181.585 13.8647 182.682 13.0527V15.6296C182.754 15.6628 182.828 15.6959 182.9 15.7291C183.084 15.5602 183.268 15.3904 183.453 15.2226C184.072 14.6623 184.646 14.0388 185.323 13.5602C185.887 13.1615 186.517 13.3883 186.915 13.9393C187.26 14.4178 187.382 14.9585 186.855 15.293C186.516 15.5074 185.96 15.5634 185.559 15.4629C184.174 15.1138 183.341 15.5602 182.997 16.9937C182.905 17.3738 182.888 17.7788 182.89 18.1724C182.896 19.3676 182.916 20.5628 182.955 21.757C182.982 22.597 183.163 22.7524 184.015 22.8228C184.649 22.8756 185.283 22.9471 185.917 23.0103C185.923 23.1056 185.929 23.2008 185.935 23.2951L185.934 23.2972Z" fill="#ACB4C0"/>
<path d="M199.456 20.5604C199.631 20.9095 199.782 21.215 199.938 21.5195C200.426 22.4713 201.046 23.245 202.213 23.3931C203.281 23.5288 204.25 23.1114 204.531 22.3398C204.836 21.5019 204.391 20.3098 203.488 19.8033C202.718 19.3704 201.881 19.0586 201.087 18.6661C200.11 18.1834 199.299 17.5682 199.199 16.3439C199.061 14.6381 200.386 13.6355 201.679 13.4563C202.501 13.3424 203.363 13.4563 204.2 13.535C204.87 13.5982 205.256 13.9721 205.195 14.7137C205.159 15.1477 205.189 15.5879 205.023 16.1047C204.87 15.9048 204.684 15.7215 204.569 15.5009C204.16 14.7189 203.549 14.1658 202.729 13.8592C202.03 13.5982 201.027 14.0384 200.697 14.721C200.334 15.4698 200.58 16.4444 201.333 16.8794C202.075 17.3093 202.876 17.6345 203.645 18.0198C204.567 18.4807 205.246 19.1156 205.678 20.1213C206.251 21.4501 205.14 23.1156 203.833 23.6666C202.5 24.2279 201.254 23.8282 199.977 23.5775C199.85 23.5526 199.724 23.4511 199.629 23.3548C199.281 23.0068 199.138 21.1166 199.459 20.5594L199.456 20.5604Z" fill="#ACB4C0"/>
<path d="M110.201 16.0616C109.901 15.6214 109.637 15.1522 109.296 14.7462C108.677 14.0077 107.447 13.5126 106.675 13.9942C105.552 14.6923 105.434 16.1651 106.572 16.8746C107.318 17.3397 108.156 17.6566 108.945 18.0554C109.755 18.4634 110.438 18.9906 110.828 19.8606C111.613 21.609 110.399 23.0642 109.065 23.6597C107.739 24.2511 106.488 23.8347 105.214 23.5655C105.03 23.5261 104.762 23.3448 104.736 23.1936C104.588 22.3454 104.501 21.4857 104.395 20.6302C104.49 20.6095 104.585 20.5888 104.68 20.568C104.836 20.8684 104.996 21.1667 105.15 21.4681C105.659 22.4665 106.308 23.2775 107.538 23.4059C108.583 23.5157 109.444 23.1232 109.785 22.335C110.101 21.5996 109.812 20.5411 108.971 19.9942C108.175 19.4774 107.274 19.1222 106.413 18.7079C105.454 18.247 104.603 17.6825 104.441 16.5225C104.181 14.6509 105.539 13.7115 106.804 13.4836C107.682 13.3252 108.625 13.4753 109.533 13.5603C110.105 13.6141 110.462 13.9466 110.409 14.6064C110.369 15.0787 110.401 15.5572 110.401 16.0336C110.335 16.044 110.269 16.0533 110.204 16.0636L110.201 16.0616Z" fill="#ACB4C0"/>
<path d="M159.817 14.7574C159.857 13.9412 160.681 14.0831 160.964 13.6471C161.268 13.18 161.604 12.7274 161.976 12.3131C162.324 11.9257 162.031 11.1489 162.906 10.9355C162.906 11.6637 162.904 12.3058 162.906 12.949C162.91 13.8801 162.971 13.9205 163.929 13.8532C164.514 13.8128 165.104 13.7859 165.688 13.8242C165.881 13.8377 166.06 14.0749 166.247 14.2095C166.059 14.3721 165.885 14.6559 165.683 14.6766C164.961 14.7533 164.231 14.7533 163.504 14.7564C163.063 14.7584 162.84 14.9573 162.843 15.3871C162.86 17.614 162.859 19.8418 162.919 22.0676C162.942 22.9076 163.487 23.355 164.327 23.2566C164.824 23.1986 165.3 22.9625 165.785 22.805C165.961 22.7481 166.135 22.6828 166.454 22.571C166.049 23.5238 165.295 23.6709 164.619 23.8087C164.016 23.9309 163.344 23.962 162.752 23.8211C161.719 23.5756 161.327 22.7533 161.319 21.7424C161.31 20.4291 161.319 19.1158 161.319 17.8025C161.319 16.9822 161.307 16.1619 161.313 15.3416C161.316 14.9169 161.103 14.7502 160.703 14.7574C160.43 14.7626 160.157 14.7574 159.814 14.7574H159.817Z" fill="#ACB4C0"/>
<path d="M87.7278 7.44922C88.207 7.45854 88.8456 8.00437 88.859 8.41659C88.8725 8.84331 88.1842 9.49168 87.7227 9.48547C87.1938 9.47925 86.6742 8.91685 86.6918 8.36791C86.7074 7.86973 87.1928 7.43886 87.7278 7.45025V7.44922Z" fill="#ACB4C0"/>
</g>
<defs>
<clipPath id="clip0_2707_6491">
<rect width="205.639" height="32" fill="white" transform="translate(0.189453)"/>
</clipPath>
</defs>
</svg>
