<svg width="103" height="32" viewBox="0 0 103 32" fill="none" xmlns="http://www.w3.org/2000/svg">
<g clip-path="url(#clip0_2707_6392)">
<path d="M59.4716 1.09201H58.1077V0.376953H63.6893C63.7003 0.523089 63.715 0.626946 63.715 0.730803C63.715 0.83558 63.7003 0.939437 63.6921 1.05432C63.2141 1.19219 62.7068 0.97712 62.2243 1.20781V5.31799C62.364 5.34648 62.4926 5.39427 62.6213 5.39427C63.7536 5.39795 64.885 5.39427 66.0174 5.3906C66.0449 5.3906 66.0734 5.37313 66.1341 5.35291V1.09293H64.6497V0.393497H69.9722V1.09201C69.6395 1.09201 69.3095 1.08925 68.9805 1.09201C68.5053 1.09752 68.452 1.14623 68.452 1.61956C68.4502 4.53584 68.4502 7.45212 68.452 10.3684C68.452 10.5017 68.4741 10.634 68.4897 10.8197C68.8334 10.8197 69.1487 10.8178 69.463 10.8197C69.9952 10.8243 70.099 10.9925 69.8775 11.52H64.6396C64.6157 11.4327 64.5882 11.3491 64.5707 11.2636C64.5009 10.907 64.5588 10.8289 64.9301 10.8178C65.2628 10.8077 65.5955 10.816 65.919 10.816C66.0486 10.0338 65.9981 6.6038 65.8473 6.24076H61.9651C61.9311 6.44204 61.875 6.62953 61.8732 6.81611C61.8649 7.97692 61.8649 9.13681 61.8704 10.2976C61.8732 10.8463 61.9357 10.9024 62.4743 10.9088C62.5818 10.9097 62.6884 10.9088 62.7959 10.9088C63.3979 10.9125 63.4264 10.9465 63.3731 11.6073H58.0957V10.9355C58.5589 10.9134 59.035 10.8914 59.4881 10.8702C59.6278 10.3316 59.6159 1.56074 59.4688 1.09109L59.4716 1.09201Z" fill="#ACB4C0"/>
<path d="M23.7016 5.92998C23.686 7.09814 23.368 8.1698 22.8092 9.17253C21.709 11.1467 19.5326 11.9105 17.6889 11.6771C16.983 11.5879 16.3112 11.4059 15.688 11.064C14.6247 10.4822 13.8774 9.61461 13.4703 8.48138C12.837 6.7204 12.8352 4.94563 13.5475 3.20947C14.5548 0.756413 16.7689 -0.306975 19.1971 0.076286C21.5031 0.440246 22.9158 1.83359 23.4397 4.17084C23.5693 4.74803 23.6161 5.34268 23.7007 5.92998H23.7016ZM15.5217 5.45297C15.6026 6.41342 15.6522 7.26542 15.7496 8.11282C15.8572 9.04845 16.2423 9.86461 16.9206 10.5346C17.7468 11.3508 19.1714 11.4013 19.9618 10.3214C20.6328 9.40506 20.9857 8.40785 21.096 7.28564C21.2173 6.05589 21.0831 4.85005 20.8809 3.64604C20.7715 2.99716 20.5583 2.37677 20.1622 1.83543C19.3157 0.677372 17.6145 0.560647 16.6439 1.61393C16.2055 2.0891 15.8581 2.64606 15.7505 3.28667C15.6246 4.03389 15.5869 4.79674 15.5217 5.45205V5.45297Z" fill="#ACB4C0"/>
<path d="M0.884766 10.8201H2.38105C2.38105 7.52058 2.38105 4.26424 2.38105 0.981247C1.85349 0.844302 1.37556 0.95735 0.89028 0.884742V0.102596C0.966565 0.0897284 1.02355 0.0722656 1.08053 0.0722656C3.2358 0.0796184 5.39199 0.0685893 7.54726 0.109029C8.3965 0.125573 9.21081 0.356265 9.87072 0.944483C10.8532 1.81946 11.1777 2.91777 10.8505 4.17417C10.5352 5.38461 9.68506 6.0629 8.48105 6.32668C7.57759 6.52521 6.66033 6.51601 5.744 6.5252C4.85248 6.5344 4.80193 6.58035 4.80193 7.44246C4.80193 8.15935 4.79458 8.87716 4.80469 9.59405C4.8102 9.98742 4.84697 10.3799 4.8727 10.8155H6.40299V11.5407H0.884766V10.8201ZM4.83134 0.800186V5.6778C5.60614 5.7449 6.34876 5.80648 7.09506 5.68883C7.76416 5.58314 8.16213 5.24123 8.21268 4.55743C8.2715 3.76885 8.2761 2.972 8.23841 2.18158C8.20808 1.55936 7.83309 1.14117 7.22558 1.0465C6.44619 0.925182 5.65393 0.881066 4.83134 0.800186Z" fill="#ACB4C0"/>
<path d="M91.8619 1.09017H90.4612V0.413714C90.5365 0.400847 90.6211 0.372355 90.7056 0.372355C91.7304 0.369598 92.7561 0.375112 93.7809 0.368679C94.166 0.365921 94.4381 0.51849 94.6651 0.834658C96.2367 3.01474 97.8203 5.18655 99.4021 7.35929C99.4894 7.47969 99.5997 7.58263 99.7752 7.77839C99.8276 7.52105 99.8892 7.35561 99.8892 7.19017C99.8956 5.37313 99.8975 3.55517 99.891 1.73812C99.8892 1.17932 99.8019 1.11222 99.2504 1.08833C98.9784 1.07638 98.7082 1.03686 98.4085 1.00745V0.283203H102.26V0.967926C101.938 1.01112 101.624 1.05708 101.31 1.09292C100.944 1.1352 100.798 1.26847 100.76 1.63611C100.74 1.81809 100.742 2.0019 100.742 2.1848C100.741 5.01009 100.742 7.83538 100.738 10.6607C100.738 10.873 100.716 11.0871 100.676 11.2958C100.645 11.4594 100.527 11.5825 100.347 11.5402C100.076 11.4768 99.8304 11.4244 99.642 11.1294C99.1659 10.384 98.6245 9.67999 98.0988 8.9677C96.4481 6.73155 94.7919 4.49907 93.1376 2.2666C93.087 2.19767 93.0245 2.13793 92.8977 1.99455C92.8977 2.21973 92.8977 2.3484 92.8977 2.47799C92.8977 4.93656 92.8968 7.39513 92.8995 9.85462C92.8995 10.0522 92.9179 10.2507 92.9464 10.4456C92.9813 10.6937 93.1422 10.8142 93.3894 10.8224C93.5273 10.827 93.6651 10.827 93.8021 10.8289C94.3912 10.8362 94.4509 10.9033 94.3995 11.5329H90.5117C90.4722 11.3766 90.4262 11.1956 90.3867 11.0384C90.5816 10.8123 90.8012 10.8362 91.0126 10.827C91.86 10.7912 91.9538 10.6983 91.9547 9.8537C91.9565 7.16628 91.9574 4.47794 91.9519 1.79051C91.9519 1.57085 91.8959 1.35211 91.8609 1.09017H91.8619Z" fill="#ACB4C0"/>
<path d="M43.3682 30.9499H44.8369C44.8516 31.221 44.8626 31.437 44.8764 31.6962C44.6706 31.7293 44.5125 31.7762 44.3535 31.7771C42.8848 31.7826 41.4161 31.7817 39.9473 31.778C39.7994 31.778 39.6514 31.7449 39.4759 31.7238V31.0317C39.9446 30.8433 40.4464 31.0105 40.9455 30.9039C40.9583 30.8001 40.9804 30.699 40.9804 30.5979C40.9822 27.7276 40.9822 24.8572 40.9813 21.986C40.9813 21.8941 40.9813 21.8022 40.9694 21.7121C40.9188 21.3298 40.8269 21.2397 40.4464 21.2121C40.2176 21.1956 39.9878 21.1983 39.7589 21.1873C39.5301 21.1763 39.4483 21.0402 39.4418 20.8233C39.4354 20.5963 39.4979 20.4272 39.7461 20.3923C39.8812 20.373 40.02 20.3693 40.1569 20.3693C41.9317 20.3675 43.7064 20.3656 45.4803 20.3693C46.0621 20.3711 46.6347 20.4392 47.1962 20.6129C48.5537 21.032 49.3441 22.4786 49.2678 23.7369C49.1952 24.9298 48.2789 26.0502 47.0152 26.3829C46.1071 26.6219 45.1751 26.6614 44.2413 26.6605C43.6672 26.6599 43.3789 26.9439 43.3765 27.5125C43.3728 28.4895 43.37 29.4665 43.3664 30.4444C43.3664 30.5933 43.3664 30.7413 43.3664 30.949L43.3682 30.9499ZM43.302 25.939C43.4197 25.9739 43.507 26.0254 43.5906 26.0199C44.2744 25.9739 44.9647 25.9583 45.6402 25.8526C46.3203 25.746 46.6006 25.371 46.6144 24.6789C46.6291 23.9777 46.6282 23.2755 46.6199 22.5742C46.608 21.6193 46.199 21.179 45.2533 21.0825C45.1623 21.0733 45.0704 21.0761 44.9785 21.0715C44.5667 21.0522 44.1559 21.0228 43.7441 21.0173C43.6035 21.0154 43.4619 21.0724 43.3011 21.1064V25.9399L43.302 25.939Z" fill="#ACB4C0"/>
<path d="M67.7136 24.3777C67.4857 24.4218 67.2844 24.4604 67.0151 24.5128C66.9058 24.056 66.8028 23.635 66.7035 23.2122C66.6447 22.9604 66.6227 22.6957 66.5298 22.4577C66.2789 21.8125 65.7936 21.4614 65.0951 21.4366C64.6843 21.4219 64.2726 21.4338 63.8295 21.4338V30.9317H65.9435V31.6173C65.6337 31.7138 60.0475 31.7478 59.2966 31.6513C59.2883 31.542 59.2736 31.4252 59.2718 31.3085C59.2699 31.2047 59.281 31.1017 59.2883 30.9464H61.4022C61.3737 27.7268 61.3452 24.5606 61.3168 21.3465C60.5659 21.3814 59.8582 21.4347 59.1937 21.7279C58.883 21.8649 58.6937 22.1351 58.6211 22.4614C58.519 22.9218 58.4428 23.3869 58.36 23.851C58.3444 23.9411 58.3536 24.0348 58.3371 24.124C58.27 24.5045 58.1496 24.5881 57.7718 24.5183C57.6992 24.5045 57.6294 24.476 57.4961 24.4356C57.5476 23.6939 57.5999 22.9512 57.6496 22.2086C57.6753 21.8134 57.7029 21.4173 57.7167 21.0211C57.7332 20.5046 57.7737 20.4577 58.3086 20.4559C59.349 20.4541 60.3885 20.4559 61.4289 20.4559C63.2027 20.4559 64.9775 20.4559 66.7513 20.4559C66.858 20.4559 66.9655 20.4559 67.0721 20.4568C67.3184 20.4577 67.4195 20.5836 67.4361 20.8263C67.494 21.7086 67.5629 22.5909 67.63 23.4733C67.6521 23.7591 67.6824 24.0449 67.7136 24.3767V24.3777Z" fill="#ACB4C0"/>
<path d="M33.1365 30.9313H34.3681C34.1347 30.2493 33.9159 29.6197 33.7036 28.9883C33.6356 28.7852 33.4959 28.6933 33.2928 28.6924C32.3139 28.6896 31.3342 28.6804 30.3563 28.7025C30.1973 28.7062 29.951 28.8155 29.8995 28.9396C29.6615 29.5094 29.4776 30.1013 29.258 30.7328C29.7028 30.81 30.0714 30.8734 30.4721 30.9432V31.6914C29.2874 31.6969 28.1045 31.6941 26.8849 31.6932C26.8389 31.4644 26.7994 31.2649 26.7461 30.9984C27.0696 30.9763 27.3389 30.9377 27.6064 30.9451C28.0558 30.9579 28.2966 30.7557 28.4437 30.3339C29.2212 28.106 30.0199 25.8855 30.8076 23.6603C31.1531 22.6843 31.4904 21.7054 31.8314 20.7284C31.9371 20.4242 32.0879 20.1788 32.4628 20.1623C32.9095 20.1421 33.1007 20.2606 33.2707 20.7386C33.6751 21.8718 34.0712 23.0069 34.4711 24.142C35.1999 26.2099 35.9278 28.2779 36.6567 30.3458C36.8377 30.8596 36.8947 30.9 37.4507 30.9157C37.5886 30.9193 37.7274 30.9092 37.8634 30.9221C38.1189 30.9469 38.2255 31.0636 38.2265 31.3008C38.2274 31.5498 38.0978 31.7116 37.8625 31.7428C37.7724 31.7548 37.6796 31.7493 37.5877 31.7493C36.3184 31.7493 35.0482 31.7493 33.779 31.7493C33.7634 31.7493 33.7486 31.7493 33.733 31.7493C33.1016 31.7382 33.0446 31.6675 33.1384 30.9322L33.1365 30.9313ZM30.3103 27.8395H33.336C32.8516 26.436 32.3792 25.0666 31.8728 23.5997C31.3305 25.0721 30.8269 26.4388 30.3103 27.8395Z" fill="#ACB4C0"/>
<path d="M73.7062 31.6217V30.9517H74.9746C74.7393 30.2477 74.5261 29.6025 74.3073 28.96C74.2375 28.756 74.0583 28.6963 73.868 28.6953C72.9204 28.6898 71.9719 28.6917 71.0243 28.6917C70.7642 28.6917 70.5804 28.8268 70.4949 29.0584C70.2872 29.6273 70.0988 30.2036 69.8837 30.8313C70.312 30.9067 70.6935 30.9738 71.0933 31.0445V31.7633H67.5162C67.484 31.6603 67.4426 31.5629 67.4243 31.4609C67.3719 31.1769 67.4243 31.1015 67.7092 31.0712C67.8912 31.0519 68.0759 31.0519 68.2588 31.0519C68.6531 31.0519 68.9095 30.8947 69.0455 30.4977C69.3865 29.5041 69.7606 28.5235 70.1135 27.5345C70.881 25.3848 71.6429 23.2332 72.4076 21.0816C72.4434 20.9814 72.4737 20.8785 72.516 20.781C72.6355 20.4998 72.846 20.3583 73.1566 20.3518C73.4875 20.3445 73.7108 20.4915 73.8423 20.7875C73.8855 20.8849 73.9176 20.9869 73.9526 21.0871C75.0279 24.1449 76.1032 27.2027 77.1786 30.2615C77.219 30.3764 77.2539 30.4931 77.299 30.6061C77.4543 30.9912 77.5582 31.0491 77.9929 31.0252C78.1445 31.017 78.2989 31.0197 78.4506 31.0363C78.7658 31.0721 78.8302 31.1447 78.8329 31.4324C78.8357 31.7237 78.7658 31.8101 78.4671 31.8506C78.332 31.869 78.1923 31.8653 78.0554 31.8653C76.9846 31.8662 75.9148 31.8579 74.8441 31.8699C74.4452 31.8745 74.061 31.8607 73.7062 31.6226V31.6217ZM72.4884 23.7102C71.9949 25.1348 71.5298 26.4757 71.0602 27.8314H74.05C73.5353 26.473 73.0316 25.144 72.4884 23.7102Z" fill="#ACB4C0"/>
<path d="M77.9654 8.69843C76.8442 8.69843 75.7734 8.70119 74.7036 8.6966C74.4683 8.69568 74.3396 8.80137 74.2689 9.02012C74.0915 9.57065 73.9049 10.1184 73.7082 10.7076C73.9306 10.748 74.1356 10.7857 74.3405 10.8234C74.5427 10.8611 74.744 10.8987 74.9481 10.9364V11.5292H71.3406C71.3296 11.4906 71.3066 11.4373 71.2984 11.3822C71.2303 10.9043 71.2772 10.8482 71.7496 10.8289C72.5364 10.7967 72.7119 10.6671 72.9766 9.91807C74.0418 6.90253 75.1071 3.88791 76.1723 0.872373C76.2026 0.785978 76.2366 0.701422 76.2624 0.614108C76.358 0.300698 76.5151 0.0534623 76.8837 0.0396759C77.2256 0.0268086 77.4581 0.216141 77.6024 0.630652C78.1943 2.32729 78.7862 4.02394 79.3717 5.72242C79.913 7.29131 80.4452 8.86295 80.9819 10.4328C81.1106 10.8096 81.2402 10.9052 81.6565 10.9144C81.9433 10.9208 82.23 10.9153 82.5517 10.9153V11.5384H77.5059C77.4848 11.4732 77.4572 11.4061 77.4425 11.3353C77.3607 10.9383 77.4305 10.8473 77.8441 10.8316C78.1024 10.8225 78.3607 10.8298 78.6924 10.8298C78.4406 10.0964 78.2081 9.41716 77.9618 8.69843H77.9654ZM76.3442 3.58737C76.3166 3.58277 76.2881 3.5791 76.2605 3.5745C75.7982 4.9081 75.3368 6.24078 74.8571 7.6231C75.8497 7.75361 76.7844 7.73982 77.7688 7.72971C77.278 6.30328 76.8111 4.94579 76.3442 3.58737Z" fill="#ACB4C0"/>
<path d="M56.5677 0.130548C56.6201 0.317123 56.7046 0.48256 56.7065 0.648915C56.7175 1.80973 56.7157 2.97054 56.7083 4.13043C56.7065 4.47509 56.6155 4.56332 56.326 4.57619C56.0015 4.58998 55.8545 4.46039 55.7883 4.14973C55.7001 3.7343 55.6431 3.30049 55.4813 2.91356C55.0245 1.82259 54.1983 1.13787 53.0172 0.956811C51.5678 0.734391 49.8188 1.76285 49.4833 3.30141C49.2168 4.52105 49.181 5.75355 49.3179 6.98973C49.3786 7.53291 49.4824 8.07333 49.6037 8.60641C49.9254 10.0172 50.9061 10.7387 52.259 10.9841C54.0154 11.303 55.5392 10.2644 55.9308 8.53564C55.9611 8.40237 55.9675 8.26451 55.9813 8.12848C56.0355 7.61287 56.224 7.49615 56.7717 7.65607C56.8784 7.98326 56.8186 8.31781 56.7359 8.63858C56.3269 10.2323 55.2745 11.2396 53.7222 11.6633C51.1028 12.3784 48.2076 10.962 47.2068 8.6974C46.2831 6.6083 46.2959 4.50175 47.5542 2.52938C48.4512 1.12317 49.8519 0.423738 51.452 0.103894C52.6643 -0.138746 53.7856 0.12871 54.8242 0.784941C55.1551 0.994494 55.2626 0.981626 55.5503 0.720604C55.8214 0.475207 56.076 0.205913 56.5668 0.131467L56.5677 0.130548Z" fill="#ACB4C0"/>
<path d="M24.7042 27.6169C24.8954 27.8356 24.8448 28.0737 24.8154 28.2933C24.4974 30.6636 22.2944 32.0175 20.7613 32C19.9286 31.9908 19.1125 31.9439 18.323 31.6701C16.8322 31.1526 15.7762 30.171 15.0905 28.7446C14.108 26.7005 14.5262 23.7144 15.756 22.1758C16.7201 20.97 17.9857 20.3009 19.4976 20.0812C20.7604 19.8974 21.9571 20.141 23.0986 20.6943C23.2217 20.754 23.3486 20.8073 23.4984 20.8753C23.719 20.6768 23.9304 20.4581 24.1712 20.2788C24.366 20.1336 24.5333 19.834 24.8274 19.9737C25.1114 20.1088 25.0388 20.4204 25.0406 20.6722C25.0461 21.6952 25.0434 22.7181 25.0425 23.7411C25.0425 23.833 25.0434 23.924 25.0415 24.0159C25.036 24.2171 25.0415 24.4193 24.7676 24.4671C24.4211 24.5278 24.161 24.4469 24.059 24.1969C23.991 24.0296 23.9598 23.8458 23.9248 23.6666C23.787 22.9516 23.4947 22.3008 23.0756 21.7108C22.6032 21.0454 21.9571 20.675 21.1262 20.7081C20.6556 20.7264 20.1722 20.7393 19.72 20.856C18.5233 21.163 17.7982 22.0003 17.4066 23.128C17.2642 23.5398 17.2063 23.9883 17.1631 24.4249C17.0188 25.889 16.9949 27.3503 17.3975 28.785C17.7844 30.1683 19.0059 31.0901 20.4222 31.1793C22.1813 31.2905 23.7631 30.1315 24.0002 28.1297C24.0636 27.5957 24.1151 27.5682 24.7042 27.6169Z" fill="#ACB4C0"/>
<path d="M33.4387 1.09683C33.4267 0.9847 33.4093 0.896467 33.4102 0.808235C33.4102 0.688753 33.424 0.569271 33.435 0.417621H38.5507V1.11613C38.1766 1.14646 37.8145 1.17587 37.3917 1.20988C38.3521 2.77509 39.2869 4.29894 40.2611 5.88621C41.1499 4.31641 42.0175 2.78428 42.9081 1.21172C42.5165 1.13267 42.1636 1.0619 41.7987 0.989296V0.302734H45.3722V0.957127C45.2417 0.972752 45.1396 0.999405 45.0376 0.995729C44.4292 0.972752 43.9843 1.25767 43.6424 1.73008C43.5358 1.87806 43.4476 2.03982 43.3584 2.19882C42.5855 3.58297 41.8236 4.97264 41.0377 6.34943C40.7887 6.78692 40.6444 7.22625 40.6591 7.73542C40.682 8.51298 40.6618 9.29237 40.6683 10.0708C40.6701 10.2648 40.705 10.4587 40.7289 10.6986C41.205 10.7289 41.6508 10.7565 42.1351 10.7868C42.1204 11.0451 42.1094 11.2362 42.0965 11.4587H36.8752V10.7381C37.2171 10.7381 37.5489 10.7445 37.8797 10.7363C38.3044 10.7261 38.3558 10.6756 38.3586 10.2537C38.3632 9.30707 38.3678 8.36041 38.3531 7.41466C38.3503 7.22533 38.3053 7.01394 38.2115 6.85126C37.2125 5.10407 36.196 3.36607 35.1923 1.62163C34.9405 1.18414 34.5177 1.13819 34.0894 1.09775C33.8808 1.07845 33.6694 1.09407 33.4378 1.09407L33.4387 1.09683Z" fill="#ACB4C0"/>
<path d="M88.1994 31.594C87.9099 31.6335 87.6875 31.6896 87.4642 31.6905C85.1848 31.6969 82.9055 31.696 80.6261 31.6923C80.4478 31.6923 80.2686 31.6574 80.0728 31.6372V30.9405H81.5085V30.436C81.5085 27.6116 81.5085 24.7872 81.5085 21.9619C81.5085 21.8856 81.5094 21.8094 81.5085 21.7331C81.4965 21.2414 81.4487 21.2129 80.9395 21.2331C80.627 21.246 80.3017 21.2836 79.957 21.1035C79.9984 20.9068 80.0379 20.7212 80.0829 20.5098H85.7519C85.7721 20.5622 85.8006 20.6136 85.8135 20.6697C85.9192 21.1246 85.8613 21.212 85.3879 21.2285C84.9321 21.2441 84.4744 21.2322 83.9817 21.2322V30.8192C85.5396 31.3266 87.0855 30.5223 87.5506 28.9461C87.671 28.538 87.7381 28.1152 87.8419 27.7017C87.9917 27.1061 88.079 27.0647 88.7031 27.2871C88.5386 28.6952 88.3722 30.1133 88.1994 31.5931V31.594Z" fill="#ACB4C0"/>
<path d="M26.6506 1.08822H25.2563V0.40625H31.0806V1.09557H29.1735C29.1652 1.25365 29.1533 1.37038 29.1533 1.48802C29.1523 4.37397 29.1533 7.25899 29.1533 10.1449C29.1533 10.2368 29.1477 10.3288 29.1579 10.4197C29.1891 10.6955 29.2874 10.8094 29.565 10.815C31.2405 10.848 32.3434 10.3242 32.8425 8.70748C32.9188 8.46025 32.9859 8.21025 33.0373 7.95658C33.0851 7.7213 33.1054 7.4805 33.144 7.20017C33.3085 7.0329 33.5153 7.06782 33.7717 7.19098C33.6136 8.62844 33.4564 10.0641 33.2947 11.5318H25.1543V10.8287C25.5036 10.8287 25.8491 10.8343 26.1938 10.8269C26.6065 10.8186 26.6754 10.7571 26.6763 10.3425C26.68 7.33528 26.6781 4.32709 26.6763 1.31983C26.6763 1.26192 26.6634 1.20402 26.6497 1.08913L26.6506 1.08822Z" fill="#ACB4C0"/>
<path d="M54.6078 30.9336H56.1978V31.6156C55.8715 31.7176 51.8018 31.7581 50.6832 31.6662V30.9621C51.1483 30.9474 51.6272 30.9318 52.0849 30.9171C52.2227 30.4851 52.2218 21.7519 52.0931 21.2997C51.6556 21.1076 51.1685 21.2786 50.6777 21.1729V20.4863H56.1932V21.16C55.673 21.308 55.1124 21.07 54.6078 21.3438V30.9336Z" fill="#ACB4C0"/>
<path d="M85.3141 1.09178H83.7966V0.373047H89.2753C89.2882 0.608334 89.2992 0.827078 89.313 1.08442H87.6587V5.95101C87.6587 6.75981 87.6449 7.56953 87.6623 8.37741C87.6798 9.17794 87.5759 9.98582 87.7478 10.8204C88.0814 10.8204 88.3829 10.8185 88.6844 10.8204C89.2882 10.824 89.3158 10.8562 89.2781 11.5198H83.7305V10.9362C83.9731 10.7487 84.2433 10.8277 84.4942 10.8231C85.337 10.8093 85.3729 10.7854 85.3738 9.94079C85.3766 7.20925 85.3766 4.47679 85.3738 1.74525C85.3738 1.53937 85.337 1.3335 85.3141 1.08994V1.09178Z" fill="#ACB4C0"/>
</g>
<defs>
<clipPath id="clip0_2707_6392">
<rect width="101.376" height="32" fill="white" transform="translate(0.884766)"/>
</clipPath>
</defs>
</svg>
