<svg width="121" height="28" viewBox="0 0 121 28" fill="none" xmlns="http://www.w3.org/2000/svg">
<g clip-path="url(#clip0_2707_6549)">
<path d="M4.2057 5.52124C4.2057 6.49741 4.2057 7.33606 4.2057 8.17471C4.2057 12.3499 4.20797 16.5274 4.20797 20.7026C4.20797 21.3992 4.18533 21.4217 3.47223 21.4217C2.60519 21.4217 1.73816 21.4059 0.871124 21.4262C0.418364 21.4375 0.230469 21.291 0.230469 20.8175C0.239524 14.0768 0.239524 7.33606 0.230469 0.593063C0.230469 0.162468 0.37988 0.000148647 0.825848 0.00691193C2.29505 0.0272018 3.76426 0.000148646 5.23347 0.0294562C5.43947 0.0339651 5.73377 0.207556 5.82885 0.38791C7.77571 4.06037 9.71126 7.73735 11.6196 11.4278C12.3056 12.7557 12.91 14.1287 13.5575 15.4768C13.6231 15.6143 13.7431 15.7248 13.8382 15.8465C13.8563 15.7045 13.8925 15.5647 13.8925 15.4227C13.8653 10.5373 13.8314 5.64975 13.8019 0.7644C13.7974 0.0159297 13.8019 0.0136752 14.5581 0.0136752C15.4432 0.0136752 16.3306 0.0294562 17.2158 0.0046575C17.621 -0.00661464 17.784 0.106107 17.784 0.536703C17.7749 7.31577 17.7749 14.0948 17.784 20.8739C17.784 21.2955 17.6119 21.433 17.209 21.4285C15.7579 21.4172 14.3068 21.4105 12.8557 21.4285C12.4844 21.433 12.3305 21.2459 12.1788 20.9596C10.6281 18.0311 9.04571 15.1206 7.5199 12.1808C6.40159 10.0233 5.35345 7.83203 4.2057 5.51899V5.52124Z" fill="#ACB4C0"/>
<path d="M101.918 8.05935C102.622 6.91184 103.457 6.00331 104.784 5.62231C106.961 4.99784 108.99 5.88833 109.95 7.91281C109.997 8.01201 110.045 8.11346 110.092 8.21265C110.171 8.12022 110.271 8.0368 110.328 7.9331C111.016 6.64582 111.978 5.69896 113.499 5.50734C115.276 5.28415 116.924 5.60202 118.274 6.85323C119.369 7.87223 119.856 9.20685 119.99 10.6542C120.087 11.7138 120.094 12.7846 120.101 13.851C120.114 16.1347 120.105 18.4207 120.103 20.7044C120.103 21.4011 120.078 21.4213 119.363 21.4213C118.514 21.4213 117.667 21.4033 116.818 21.4236C116.354 21.4349 116.198 21.2635 116.202 20.7991C116.22 18.2156 116.241 15.6297 116.191 13.0461C116.175 12.1782 116.032 11.2922 115.806 10.4536C115.589 9.64872 114.987 9.11668 114.108 9.01297C113.194 8.90251 112.496 9.29027 111.998 10.0297C111.303 11.06 111.084 12.2323 111.068 13.4407C111.041 15.8552 111.05 18.2719 111.043 20.6864C111.043 21.4011 111.027 21.4168 110.323 21.4191C109.531 21.4213 108.741 21.4213 107.948 21.4191C107.242 21.4191 107.238 21.4146 107.238 20.6864C107.231 17.8594 107.258 15.03 107.195 12.2052C107.179 11.459 106.993 10.6722 106.688 9.99139C106.298 9.12569 105.445 8.91152 104.537 9.00395C103.548 9.1054 102.945 9.70959 102.592 10.5843C102.133 11.7296 102.02 12.9402 102.015 14.1598C102.006 16.3511 101.997 18.5424 102.024 20.7337C102.031 21.2816 101.848 21.4529 101.309 21.4304C100.426 21.392 99.5384 21.4101 98.6533 21.4281C98.2367 21.4371 98.0466 21.3244 98.0488 20.8577C98.0624 16.0085 98.0624 11.1569 98.0511 6.30766C98.0511 5.83874 98.1824 5.62457 98.694 5.6426C99.5792 5.67416 100.464 5.66064 101.349 5.64486C101.764 5.63809 101.929 5.81168 101.922 6.21523C101.909 6.83069 101.92 7.44614 101.92 8.05935H101.918Z" fill="#ACB4C0"/>
<path d="M43.895 10.4087C43.6709 11.4998 43.4694 12.5955 43.2181 13.6798C42.6567 16.0988 42.0681 18.5133 41.4976 20.9301C41.4116 21.293 41.2396 21.4463 40.8343 21.4351C39.6662 21.4058 38.4981 21.4148 37.33 21.4306C36.9338 21.4351 36.7346 21.3156 36.6214 20.903C35.2971 16.0831 33.9546 11.2698 32.6054 6.45664C32.4764 5.99899 32.5941 5.84118 33.0695 5.8502C34.0294 5.87049 34.9915 5.87049 35.9536 5.8502C36.3226 5.84118 36.4901 5.96743 36.5693 6.33039C37.3503 9.87436 38.1449 13.4161 38.9373 16.9578C38.9758 17.1314 39.0437 17.2982 39.1003 17.4673C39.1682 17.305 39.2633 17.1494 39.3017 16.9803C40.0828 13.4612 40.8615 9.94424 41.6221 6.42057C41.7172 5.98321 41.9119 5.84118 42.3488 5.8502C43.4422 5.875 44.5356 5.87725 45.6291 5.8502C46.0547 5.83893 46.2244 5.98772 46.3127 6.39126C47.0734 9.8473 47.8499 13.2966 48.6218 16.7504C48.6807 17.0186 48.7441 17.2847 48.9365 17.5462C49.2059 16.2273 49.4639 14.9085 49.7492 13.5942C50.2766 11.1661 50.8245 8.74263 51.3542 6.31461C51.4244 5.98998 51.5738 5.84569 51.9315 5.85245C52.9117 5.87274 53.8919 5.86598 54.8722 5.85696C55.2887 5.85245 55.4562 5.96292 55.3272 6.42283C53.978 11.2405 52.6401 16.0605 51.3135 20.885C51.198 21.3021 50.9943 21.4463 50.5596 21.4373C49.4096 21.4103 48.2596 21.4125 47.1119 21.4373C46.6704 21.4463 46.4803 21.284 46.3852 20.8579C45.6223 17.4808 44.839 14.1104 44.0625 10.7355C44.0376 10.6296 44.0059 10.5236 43.9788 10.4177C43.9516 10.4177 43.9244 10.4132 43.8995 10.4132L43.895 10.4087Z" fill="#ACB4C0"/>
<path d="M59.4739 10.6815C59.4739 7.3472 59.4807 4.0129 59.4649 0.678602C59.4626 0.189392 59.5667 -0.00223479 60.1191 1.96404e-05C64.1328 0.0248183 68.1488 0.0225639 72.1625 1.96404e-05C72.7081 -0.00223479 72.8485 0.1939 72.8258 0.689875C72.7964 1.41805 72.8168 2.15074 72.8145 2.88118C72.8145 3.53947 72.7715 3.58681 72.115 3.58907C69.4754 3.59132 66.8381 3.6026 64.1985 3.5778C63.6846 3.57329 63.5329 3.7063 63.5488 4.22482C63.5873 5.57297 63.5805 6.92111 63.551 8.26926C63.5397 8.77425 63.7276 8.90501 64.2098 8.90276C66.6411 8.88247 69.0724 8.90501 71.5038 8.88247C71.9905 8.87796 72.124 9.04479 72.1082 9.49793C72.081 10.2644 72.0901 11.0332 72.1105 11.802C72.1218 12.2325 71.9701 12.3904 71.5196 12.3881C69.0883 12.3701 66.657 12.3949 64.2257 12.3678C63.6959 12.361 63.551 12.5234 63.5556 13.0351C63.5782 15.5826 63.5669 18.1301 63.5646 20.6776C63.5646 21.4058 63.542 21.4238 62.7927 21.4261C61.9437 21.4261 61.0971 21.4306 60.2482 21.4261C59.4785 21.4261 59.4739 21.4193 59.4739 20.628C59.4739 17.3118 59.4739 13.9978 59.4739 10.6815Z" fill="#ACB4C0"/>
<path d="M27.8802 14.7552C26.1846 14.7552 24.489 14.7552 22.7935 14.7552C22.1211 14.7552 22.1098 14.7732 22.2615 15.4203C22.9134 18.1842 25.7296 19.467 28.2379 18.1098C28.6341 17.8956 28.917 17.4831 29.2725 17.1877C29.4581 17.0344 29.6845 16.8406 29.8995 16.8315C30.8775 16.7932 31.8577 16.818 32.8379 16.8135C33.2522 16.8135 33.3767 16.9555 33.2069 17.3681C32.0524 20.1726 29.8678 21.5388 26.9136 21.7935C24.7969 21.9761 22.841 21.5365 21.1613 20.1546C19.5381 18.8177 18.7254 17.0547 18.447 15.0257C18.2047 13.2515 18.37 11.5201 19.1442 9.87437C20.2874 7.43959 22.2026 5.98773 24.8513 5.55038C26.7461 5.23701 28.5775 5.49401 30.2165 6.5581C32.1973 7.84538 33.0892 9.79772 33.4582 12.0319C33.5669 12.6924 33.5963 13.3687 33.6393 14.0383C33.6801 14.674 33.594 14.753 32.9624 14.753C31.2669 14.753 29.5713 14.753 27.8757 14.753L27.8802 14.7552ZM25.9605 12.0905C27.072 12.0905 28.1836 12.086 29.2951 12.095C29.646 12.0972 29.8407 12.0093 29.7524 11.6103C29.5328 10.6319 29.1072 9.76616 28.29 9.15295C26.1394 7.53878 22.6056 9.04248 22.2456 11.7027C22.1913 12.0995 22.4245 12.0882 22.6803 12.0882C23.7737 12.0882 24.8671 12.0882 25.9583 12.0882L25.9605 12.0905Z" fill="#ACB4C0"/>
<path d="M25.5605 27.9978C17.4018 27.9978 9.24306 27.9978 1.08433 27.9978C0.242193 27.9978 0.239929 27.9978 0.237665 27.1659C0.237665 26.6609 0.246721 26.1536 0.237665 25.6487C0.22861 25.2519 0.38934 25.049 0.801352 25.0648C0.950762 25.0715 1.10244 25.0648 1.25411 25.0648C17.4969 25.0648 33.7374 25.0648 49.9801 25.0625C50.1499 25.0625 50.3197 25.0693 50.4895 25.067C50.8472 25.0625 50.9988 25.2496 50.9966 25.5923C50.9921 26.2483 50.9898 26.9021 50.9921 27.5582C50.9921 27.858 50.8585 28.0113 50.5484 28.0023C50.3605 27.9955 50.1726 28.0023 49.9824 28.0023C41.8418 28.0023 33.7034 28.0023 25.5628 28.0023L25.5605 27.9978Z" fill="#ACB4C0"/>
<path d="M72.6562 13.8079C72.7242 10.7396 73.6795 8.3071 76.1787 6.70871C79.9774 4.28069 85.6437 5.29744 87.7151 9.81757C89.345 13.3751 88.6613 18.7316 84.4348 20.9206C80.0521 23.1886 73.9715 21.3016 72.8464 15.4897C72.7264 14.8697 72.7015 14.2295 72.6562 13.8057V13.8079ZM84.7178 14.004C84.7268 12.6198 84.5186 11.6414 84.0251 10.7351C82.7935 8.47618 79.9547 7.90356 78.1392 9.54703C76.0203 11.4656 75.9025 15.4536 77.906 17.4916C79.4069 19.0201 81.7364 19.0404 83.2508 17.53C84.3261 16.4569 84.6838 15.1087 84.7178 14.004Z" fill="#ACB4C0"/>
<path d="M92.9471 8.28086C93.8345 6.6712 95.186 5.91145 96.9405 5.74688C97.3593 5.70856 97.5109 5.83029 97.4974 6.26089C97.4702 7.15815 97.4702 8.05767 97.4974 8.95493C97.5109 9.39229 97.3593 9.54108 96.9178 9.55686C95.9897 9.58617 95.0841 9.74849 94.328 10.3504C93.427 11.0651 93.1554 12.0863 93.1056 13.1414C93.0241 14.8412 93.0445 16.5456 93.0264 18.2477C93.0173 19.1089 93.0105 19.9701 93.0264 20.8313C93.0331 21.2461 92.9064 21.4467 92.4446 21.4332C91.5028 21.4061 90.5611 21.4174 89.6193 21.4264C89.2435 21.4309 89.0964 21.3002 89.0987 20.9011C89.11 16.0902 89.11 11.2815 89.0987 6.47055C89.0987 6.08955 89.2028 5.93625 89.608 5.94527C90.5294 5.97007 91.453 5.97458 92.3766 5.94527C92.8453 5.92949 92.963 6.13464 92.9516 6.5472C92.9335 7.12434 92.9471 7.70372 92.9471 8.28311V8.28086Z" fill="#ACB4C0"/>
</g>
<defs>
<clipPath id="clip0_2707_6549">
<rect width="119.875" height="28" fill="white" transform="translate(0.230469)"/>
</clipPath>
</defs>
</svg>
