<svg width="148" height="32" viewBox="0 0 148 32" fill="none" xmlns="http://www.w3.org/2000/svg">
<g clip-path="url(#clip0_2707_6529)">
<path d="M5.43359 3.14118C6.06098 2.69561 6.66372 2.20809 7.32175 1.81314C8.69107 0.991282 10.2003 0.528402 11.7607 0.220703C11.7381 0.427834 11.6961 0.634964 11.6961 0.842095C11.6928 9.69676 11.6935 18.5514 11.6901 27.4061C11.6901 27.6019 11.6475 27.7984 11.6249 27.9942C11.196 28.1054 10.773 28.2526 10.3375 28.3212C8.81828 28.561 7.29444 28.7741 5.7726 28.9972C5.66004 28.9086 5.54815 28.8194 5.43559 28.7308C5.43493 20.2011 5.43426 11.6708 5.43359 3.14118Z" fill="#E0E0E0"/>
<path d="M11.625 27.9934C11.6476 27.7976 11.6903 27.6011 11.6903 27.4053C11.6936 18.5507 11.6929 9.69601 11.6963 0.84135C11.6963 0.634219 11.7382 0.427089 11.7609 0.219958C13.1935 -0.0517755 14.6427 -0.0111487 16.088 0.0288122C16.7114 0.0461286 17.3314 0.188656 17.9528 0.274572C17.9521 3.60664 17.9501 6.93871 17.9508 10.2708C17.9515 15.1633 17.9535 20.0565 17.9555 24.9491C17.9528 24.9657 17.9495 24.983 17.9475 24.9997C17.1769 25.4772 16.4223 25.9827 15.6324 26.4263C14.3916 27.1229 13.0509 27.5858 11.6949 28.0028C11.6716 27.9994 11.649 27.9968 11.6257 27.9934H11.625Z" fill="#CECECE"/>
<path d="M17.9549 24.9499C17.9535 20.0574 17.9509 15.1641 17.9502 10.2716C17.9502 6.93953 17.9515 3.60746 17.9522 0.275391C19.6152 0.527144 21.1617 1.10391 22.5863 1.98638C23.1751 2.35136 23.7119 2.80025 24.2727 3.21118C24.2507 3.34039 24.2101 3.46893 24.2101 3.59814C24.2074 8.16633 24.2087 12.7345 24.2101 17.3021C24.1848 17.3866 24.1594 17.4719 24.1341 17.5565C24.0835 17.6417 24.0276 17.725 23.983 17.8136C22.918 19.9182 21.5513 21.8036 19.8257 23.4154C19.2376 23.9649 18.5802 24.4411 17.9549 24.9506V24.9499Z" fill="#BCBCBC"/>
<path d="M87.1442 9.39977C88.9911 9.39977 90.81 9.37646 92.6275 9.41376C93.1943 9.42575 93.7711 9.55429 94.3192 9.71213C96.4345 10.3222 97.1085 11.936 97.0032 13.8181C96.922 15.28 96.2793 16.4142 94.9612 17.1489C95.8763 18.7826 96.7808 20.3983 97.7079 22.054C97.562 22.0614 97.4575 22.0714 97.3529 22.0714C96.3545 22.0727 95.3555 22.0567 94.3578 22.0814C94.0515 22.0887 93.9129 21.9795 93.7837 21.7204C93.1876 20.5249 92.5636 19.3434 91.9675 18.1472C91.8403 17.8921 91.6904 17.7896 91.406 17.8169C91.1217 17.8442 90.8326 17.8229 90.4936 17.8229V22.0534H87.1436V9.39911L87.1442 9.39977ZM90.5069 15.1521C91.0644 15.1521 91.5952 15.1828 92.1207 15.1402C92.4197 15.1162 92.7294 15.0129 92.9985 14.8757C93.5899 14.574 93.827 13.946 93.7098 13.1334C93.6365 12.6239 93.2849 12.2144 92.7001 12.1378C91.9835 12.0439 91.2542 12.0445 90.5069 12.0032V15.1515V15.1521Z" fill="#ACB4C0"/>
<path d="M147.231 15.6716C147.199 17.0583 146.962 18.3836 146.262 19.5945C145.458 20.9844 144.258 21.8336 142.682 22.1559C141.612 22.3751 140.544 22.3551 139.494 22.058C137.986 21.6311 136.838 20.718 136.185 19.2974C135.111 16.9577 135.066 14.5567 136.125 12.2077C136.995 10.2769 138.62 9.35514 140.699 9.18664C141.703 9.10539 142.691 9.18864 143.636 9.56161C145.601 10.3368 146.627 11.8634 147.024 13.8634C147.141 14.4561 147.165 15.0682 147.231 15.671L147.231 15.6716ZM138.794 15.681C138.856 16.1731 138.89 16.67 138.987 17.1548C139.119 17.8142 139.38 18.4289 139.897 18.8858C140.972 19.8395 142.561 19.5385 143.219 18.1952C143.997 16.6034 143.999 14.9443 143.291 13.3239C142.922 12.4801 142.227 12.0232 141.263 12.0379C140.297 12.0525 139.666 12.5593 139.265 13.3852C138.915 14.1045 138.822 14.8824 138.795 15.6803L138.794 15.681Z" fill="#ACB4C0"/>
<path d="M46.8901 9.17626C48.6484 9.15628 50.1057 9.63248 51.2625 10.8486C52.0737 11.7011 52.5173 12.7441 52.7284 13.887C53.0521 15.6446 52.9762 17.3776 52.2409 19.0273C51.3052 21.1279 49.6195 22.1569 47.353 22.2801C46.1209 22.3467 44.9434 22.1309 43.8751 21.4802C42.5411 20.6677 41.7692 19.4475 41.3889 17.9663C41.0079 16.4831 41.0046 14.9886 41.3562 13.4974C41.987 10.822 44.1002 9.11099 46.8901 9.1756V9.17626ZM44.4965 15.9689C44.5698 16.3426 44.665 17.0212 44.8428 17.6779C45.002 18.2654 45.3463 18.7649 45.8745 19.0985C47.0174 19.8218 48.4173 19.3423 49.0227 18.0422C49.3424 17.3556 49.4616 16.6243 49.4803 15.883C49.5029 14.9839 49.417 14.0895 48.9841 13.2729C48.5612 12.475 47.9171 12.0301 46.9834 12.0388C46.0643 12.0475 45.4376 12.4943 45.0206 13.2809C44.6264 14.0255 44.5464 14.8374 44.4978 15.9696L44.4965 15.9689Z" fill="#ACB4C0"/>
<path d="M5.43364 3.14062C5.4343 11.6703 5.43497 20.2006 5.43564 28.7302C4.33804 27.7778 3.43693 26.6636 2.7123 25.4082C1.8245 23.8697 1.25373 22.2166 0.893416 20.4796C0.51512 18.6601 0.381251 16.8219 0.44985 14.973C0.577059 11.5571 1.31101 8.30823 3.30239 5.44703C3.9038 4.58321 4.57714 3.77467 5.43297 3.14062H5.43364Z" fill="#F1F1F1"/>
<path d="M114.824 22.0541H111.5V9.40783C111.58 9.40184 111.674 9.38918 111.769 9.38918C113.344 9.38785 114.92 9.35455 116.493 9.40384C117.192 9.42581 117.909 9.54037 118.578 9.74417C120.116 10.2124 121.029 11.2594 121.22 12.8864C121.4 14.4209 121.093 15.7956 119.881 16.8552C119.135 17.5086 118.235 17.8516 117.262 17.9535C116.471 18.0361 115.671 18.0314 114.823 18.0674V22.0535L114.824 22.0541ZM114.831 15.4579C115.529 15.402 116.209 15.41 116.862 15.2794C117.619 15.1276 118.036 14.4083 118.004 13.5158C117.978 12.7486 117.569 12.2417 116.76 12.1205C116.133 12.0266 115.489 12.0433 114.832 12.01V15.4586L114.831 15.4579Z" fill="#ACB4C0"/>
<path d="M56.3615 15.7054C56.3615 13.7453 56.3675 11.7852 56.3555 9.82514C56.3535 9.50013 56.4354 9.37891 56.7824 9.38291C58.2909 9.40022 59.7995 9.37625 61.3073 9.39623C62.1292 9.40755 62.9397 9.53143 63.717 9.82714C65.2401 10.4079 66.0121 11.5441 66.1386 13.1326C66.2165 14.1089 66.094 15.06 65.5632 15.9158C64.7766 17.1819 63.5664 17.77 62.1432 17.9525C61.4652 18.0391 60.7725 18.0244 60.0859 18.0251C59.7775 18.0251 59.6842 18.131 59.6876 18.4314C59.7009 19.5057 59.6803 20.5799 59.7002 21.6536C59.7062 21.9979 59.585 22.0905 59.2573 22.0831C58.4481 22.0645 57.6383 22.0778 56.8284 22.0765C56.3628 22.0765 56.3615 22.0745 56.3615 21.6196C56.3615 19.6482 56.3615 17.6775 56.3615 15.706V15.7054ZM59.6949 13.7366C59.6949 14.1895 59.7016 14.6424 59.6922 15.0953C59.6869 15.3384 59.7915 15.4396 60.0286 15.4283C60.5141 15.4043 61.0036 15.4137 61.4851 15.3557C62.3163 15.2558 62.8571 14.6184 62.8858 13.7646C62.9184 12.7862 62.5708 12.2767 61.635 12.1162C61.0749 12.0203 60.4901 12.0543 59.9167 12.0603C59.8421 12.061 59.7102 12.2428 59.7049 12.3453C59.6816 12.8082 59.6949 13.2731 59.6949 13.7366Z" fill="#ACB4C0"/>
<path d="M82.447 18.3482C83.0337 19.0502 83.6072 19.7368 84.1873 20.4315C83.3607 21.3879 82.3457 21.9939 81.1289 22.1931C79.3174 22.4895 77.6204 22.1838 76.1471 21.0202C75.0089 20.1224 74.3882 18.9136 74.1158 17.5117C73.8028 15.9006 73.896 14.3195 74.5394 12.7983C75.99 9.36963 80.1732 8.08489 83.1929 10.1362C83.4826 10.3334 83.7444 10.5725 84.0421 10.8102C83.4413 11.5435 82.8692 12.2422 82.2978 12.9401C81.9908 12.7357 81.719 12.5225 81.4206 12.3614C80.2358 11.7213 78.9131 12.035 78.1279 13.1246C77.6603 13.7727 77.4452 14.5053 77.4006 15.2925C77.3599 16.0025 77.3972 16.7071 77.6064 17.3938C78.2238 19.4238 80.321 20.0705 81.9821 18.7425C82.1286 18.6252 82.2698 18.5 82.4476 18.3495L82.447 18.3482Z" fill="#ACB4C0"/>
<path d="M24.1345 17.5555C24.1598 17.471 24.1851 17.3857 24.2104 17.3011C24.2603 17.2152 24.3176 17.1326 24.3589 17.0427C25.6363 14.2534 26.4235 11.3243 26.8731 8.29727C26.947 7.79709 27.0463 7.30091 27.1335 6.80273C28.1832 8.74616 28.7519 10.8328 29.011 13.0153C29.2181 14.7569 29.2368 16.5006 29.0603 18.2435C28.7253 21.5629 27.7629 24.6499 25.599 27.268C25.1781 27.7775 24.6773 28.2204 24.2137 28.6946C24.2117 25.1767 24.211 21.6595 24.2051 18.1416C24.2051 17.9458 24.1591 17.7507 24.1338 17.5549L24.1345 17.5555Z" fill="#616161"/>
<path d="M105.825 22.056H102.499C102.492 21.9301 102.48 21.8135 102.48 21.6963C102.479 20.4895 102.487 19.282 102.473 18.0752C102.47 17.8514 102.422 17.6116 102.329 17.4085C101.159 14.849 99.9779 12.2942 98.7997 9.73868C98.7544 9.64011 98.7151 9.53888 98.6592 9.407C98.7697 9.39968 98.8523 9.38969 98.9342 9.38969C99.9326 9.38836 100.931 9.39635 101.929 9.38303C102.156 9.3797 102.252 9.4483 102.326 9.66475C102.861 11.2412 103.411 12.8123 103.957 14.3848C104.01 14.5386 104.065 14.6918 104.141 14.9083C104.209 14.7851 104.258 14.7198 104.284 14.6459C104.866 13.0035 105.451 11.3624 106.019 9.71603C106.105 9.46695 106.212 9.37637 106.485 9.38103C107.516 9.39968 108.547 9.38836 109.626 9.38836C109.571 9.53088 109.532 9.64877 109.481 9.76066C108.317 12.2869 107.148 14.811 105.993 17.3419C105.888 17.573 105.835 17.8467 105.832 18.1018C105.816 19.4079 105.825 20.7139 105.825 22.056Z" fill="#ACB4C0"/>
<path d="M133.44 9.41211V12.1727H130.133V22.0411H126.763V12.1827H123.414V9.41278H133.44V9.41211Z" fill="#ACB4C0"/>
<path d="M24.1342 17.5547C24.1589 17.7505 24.2048 17.9456 24.2055 18.1414C24.2115 21.6593 24.2122 25.1766 24.2142 28.6944C22.4452 30.2416 20.4132 31.2479 18.0915 31.6589C18.0442 31.5104 17.9569 31.3618 17.9563 31.2126C17.9463 29.142 17.9476 27.0707 17.9463 25.0001C17.949 24.9827 17.9516 24.9661 17.9543 24.9494C18.5797 24.4399 19.2364 23.9637 19.8251 23.4143C21.5508 21.8025 22.9174 19.917 23.9824 17.8124C24.027 17.7239 24.0829 17.6413 24.1336 17.5554L24.1342 17.5547Z" fill="#6F6F6F"/>
<path d="M17.9466 25C17.9479 27.0706 17.9466 29.1419 17.9566 31.2126C17.9572 31.3618 18.0445 31.5103 18.0918 31.6588C17.3159 31.766 16.5426 31.9266 15.7627 31.9698C14.4007 32.0451 13.038 31.9892 11.6947 31.7074C11.6947 30.4726 11.694 29.2379 11.6934 28.0031C13.0494 27.5861 14.3901 27.1233 15.6308 26.4266C16.4207 25.983 17.1753 25.4775 17.9459 25H17.9466Z" fill="#7C7C7C"/>
<path d="M27.1342 6.80342C27.0469 7.3016 26.9477 7.79778 26.8737 8.29796C26.4242 11.325 25.637 14.2541 24.3595 17.0434C24.3182 17.1333 24.261 17.2159 24.211 17.3018C24.2104 12.7336 24.209 8.16542 24.211 3.59789C24.211 3.46868 24.2516 3.34014 24.2736 3.21094C25.3372 4.12205 26.2077 5.19166 26.9064 6.40248C26.983 6.53568 27.0582 6.67022 27.1342 6.80342Z" fill="#A6A6A6"/>
<path d="M11.6943 28.0028C11.6943 29.2376 11.695 30.4724 11.6956 31.7072C9.56706 31.3282 7.65426 30.4657 5.94261 29.1523C5.882 29.1057 5.82938 29.0491 5.77344 28.9972C7.29528 28.774 8.81912 28.5609 10.3383 28.3212C10.7739 28.2526 11.1968 28.1054 11.6257 27.9941C11.649 27.9975 11.6717 28.0001 11.695 28.0035L11.6943 28.0028Z" fill="#898989"/>
</g>
<defs>
<clipPath id="clip0_2707_6529">
<rect width="146.798" height="32" fill="white" transform="translate(0.432617)"/>
</clipPath>
</defs>
</svg>
