<svg width="100" height="32" viewBox="0 0 100 32" fill="none" xmlns="http://www.w3.org/2000/svg">
<g clip-path="url(#clip0_2707_6591)">
<path d="M0.239258 8.92296C0.292775 8.8094 0.347494 8.69584 0.399808 8.58167C0.79487 7.72126 1.45752 7.22436 2.4118 7.20753C3.79722 7.1829 5.18325 7.19011 6.56927 7.20513C7.76107 7.21775 8.70213 8.15988 8.71476 9.35256C8.72979 10.7351 8.72919 12.1177 8.71476 13.4996C8.70273 14.6905 7.76468 15.6356 6.57108 15.6507C5.17242 15.6681 3.77317 15.6639 2.37452 15.6519C1.45571 15.644 0.664386 15.0498 0.358919 14.1768C0.321638 14.0686 0.279546 13.9617 0.239258 13.8541C0.239258 12.2102 0.239258 10.5669 0.239258 8.92296Z" fill="#ACB4C0"/>
<path d="M16.2456 0C17.5276 0.48128 17.8812 1.00101 17.8812 2.404C17.8812 3.40801 17.8842 4.41143 17.8806 5.41545C17.8758 6.73732 17.0814 7.52202 15.7495 7.52323C14.6124 7.52443 13.476 7.52683 12.3389 7.52202C11.2108 7.51722 10.3942 6.81603 10.3449 5.69785C10.289 4.42345 10.3016 3.14364 10.3365 1.86744C10.3606 0.980585 10.8693 0.400165 11.6931 0.0883248C11.749 0.0672951 11.7989 0.0294416 11.8518 0C13.3166 0 14.7808 0 16.2456 0Z" fill="#ACB4C0"/>
<path d="M35.1472 21.9657C35.1472 23.2413 35.1472 24.4502 35.1472 25.6597C35.1472 26.0899 35.1628 26.5213 35.1394 26.9503C35.1117 27.4646 34.6854 27.8594 34.1923 27.866C33.7083 27.872 33.2687 27.4748 33.211 26.9749C33.2008 26.8848 33.205 26.7929 33.205 26.7016C33.205 22.1237 33.205 17.5464 33.205 12.9686C33.205 12.8646 33.2014 12.7589 33.217 12.6561C33.2909 12.1688 33.7143 11.8101 34.1977 11.8179C34.6878 11.8263 35.0865 12.1917 35.14 12.6928C35.155 12.8316 35.1424 12.9728 35.1424 13.1873C36.6908 11.9063 38.4093 11.4652 40.3095 11.8438C41.7189 12.125 42.8693 12.8628 43.7478 14.0038C45.5138 16.2973 45.325 19.5491 43.3148 21.6328C41.3197 23.7009 37.8254 24.1684 35.1478 21.9657H35.1472ZM42.9516 17.5759C42.9619 15.3774 41.2866 13.698 39.0654 13.6812C36.8573 13.6643 35.1376 15.3527 35.1069 17.5669C35.0768 19.7263 36.8423 21.4988 39.0281 21.5042C41.2168 21.5096 42.9408 19.7828 42.951 17.5753L42.9516 17.5759Z" fill="#ACB4C0"/>
<path d="M13.3569 18.3454C13.6383 19.7015 14.3719 20.625 15.5631 21.1736C16.9834 21.8279 18.9016 21.5846 19.9635 20.4514C20.3916 19.9947 20.9508 20.0002 21.3477 20.4009C21.7506 20.8077 21.7343 21.3947 21.2713 21.8213C19.5191 23.434 17.4758 23.887 15.2444 23.1065C12.9726 22.3116 11.6732 20.6389 11.3671 18.2505C10.9925 15.3298 12.954 12.5562 15.8192 11.9037C18.809 11.2224 21.8558 12.8639 22.786 15.6849C22.943 16.1607 22.9953 16.6757 23.0602 17.1768C23.1312 17.7247 22.5966 18.3712 21.8967 18.361C19.2166 18.3226 16.536 18.3454 13.8553 18.3454H13.3563H13.3569ZM20.8787 16.3692C20.5479 14.7103 18.6719 13.5236 16.7194 13.6997C15.2281 13.8348 13.5637 15.2246 13.536 16.3692H20.8787Z" fill="#ACB4C0"/>
<path d="M48.3602 18.3464C48.6049 19.5817 49.2465 20.4577 50.2808 21.0358C51.7738 21.8697 53.8574 21.6384 54.9626 20.4547C55.401 19.9849 55.9794 20.0017 56.3727 20.4289C56.7611 20.8507 56.7256 21.4131 56.247 21.8469C54.4587 23.4698 52.3854 23.9 50.1383 23.0714C47.9302 22.2567 46.6374 20.6013 46.3734 18.2568C45.9646 14.6247 48.7847 11.6343 52.4473 11.7472C55.2626 11.8344 57.6739 14.0052 58.0389 16.7866C58.0612 16.9536 58.0696 17.1254 58.06 17.2937C58.0251 17.9174 57.5651 18.3458 56.9403 18.3458C54.2603 18.3458 51.5796 18.3458 48.8996 18.3458H48.3602V18.3464ZM55.8688 16.3618C55.6493 14.9029 53.8874 13.6513 52.1232 13.6814C50.4107 13.7108 48.6681 15.0044 48.5207 16.3618H55.8682H55.8688Z" fill="#ACB4C0"/>
<path d="M80.7676 13.2118C80.7833 12.9672 80.7863 12.8122 80.8049 12.659C80.8632 12.1711 81.2878 11.8058 81.773 11.819C82.2469 11.8322 82.669 12.2324 82.7075 12.7059C82.7129 12.7708 82.7123 12.8363 82.7123 12.9011C82.7123 16.0298 82.7135 19.1584 82.7111 22.287C82.7111 22.9233 82.3298 23.3409 81.7598 23.3463C81.2529 23.3511 80.8602 23.0074 80.8019 22.5033C80.7857 22.3633 80.7791 22.2221 80.7628 22.01C79.0371 23.3613 77.1598 23.812 75.081 23.1829C73.7714 22.7863 72.7359 22.0028 71.9704 20.8732C70.4593 18.6429 70.6902 15.5911 72.5116 13.6492C73.5958 12.4926 74.9343 11.8533 76.5146 11.7559C78.0954 11.658 79.4886 12.1729 80.7676 13.2124V13.2118ZM76.8591 13.681C74.6499 13.684 72.9349 15.3995 72.944 17.598C72.9536 19.7761 74.6589 21.4837 76.8453 21.5047C79.0214 21.5251 80.7767 19.7821 80.7839 17.5926C80.7917 15.4019 79.0617 13.6786 76.8585 13.681H76.8591Z" fill="#ACB4C0"/>
<path d="M86.5712 12.6766C89.0901 10.9341 92.3769 11.7891 93.8405 14.0748C94.2957 14.7856 94.5296 15.5637 94.5332 16.4025C94.5416 18.3582 94.5386 20.3146 94.5344 22.2703C94.5332 22.9187 94.1279 23.3519 93.5495 23.3471C92.9638 23.3423 92.5964 22.9235 92.5952 22.2493C92.5934 20.4366 92.5549 18.6232 92.6048 16.8122C92.6643 14.6468 90.401 12.7499 87.7901 14.0411C86.8563 14.5032 86.5664 15.399 86.5556 16.3718C86.5339 18.3408 86.5484 20.3098 86.5448 22.2788C86.5436 22.8772 86.1966 23.2936 85.6729 23.3405C85.1503 23.3873 84.7198 23.0665 84.6296 22.5503C84.6049 22.4103 84.6073 22.2649 84.6073 22.1219C84.6061 19.0967 84.6061 16.0714 84.6073 13.0461C84.6073 12.9031 84.6061 12.7577 84.6308 12.6177C84.7036 12.2049 85.0415 11.8823 85.4438 11.8234C85.8214 11.7681 86.2333 11.979 86.4251 12.3335C86.4804 12.4357 86.5165 12.5474 86.5706 12.676L86.5712 12.6766Z" fill="#ACB4C0"/>
<path d="M27.6553 15.8228C28.392 14.6788 29.0925 13.5648 29.8267 12.4731C29.974 12.2538 30.2266 12.0627 30.4731 11.9617C30.8567 11.8049 31.2843 11.9744 31.52 12.2856C31.7599 12.6022 31.7809 13.0168 31.55 13.3815C30.7208 14.692 29.8898 16.0012 29.0462 17.3021C28.9007 17.5268 28.8844 17.686 29.0378 17.9216C29.864 19.1875 30.6703 20.4662 31.4815 21.7418C31.8285 22.2873 31.7593 22.8774 31.3215 23.164C30.8164 23.495 30.2193 23.3358 29.8453 22.7632C29.2043 21.7808 28.5675 20.796 27.9283 19.8124C27.8586 19.7055 27.7828 19.6021 27.6824 19.4579C27.1827 20.212 26.7041 20.9336 26.226 21.6564C25.9602 22.0584 25.7023 22.4664 25.4299 22.8641C25.1058 23.3376 24.5063 23.4704 24.0559 23.1808C23.6097 22.8936 23.5051 22.3035 23.8214 21.8048C24.6313 20.5286 25.4383 19.25 26.2639 17.9846C26.4353 17.7215 26.4551 17.5358 26.2747 17.2606C25.4521 16.0085 24.6548 14.7389 23.8508 13.4747C23.5075 12.9351 23.5917 12.3685 24.0547 12.0681C24.546 11.7496 25.1629 11.9005 25.5087 12.4406C26.2182 13.548 26.9193 14.6614 27.6553 15.821V15.8228Z" fill="#ACB4C0"/>
<path d="M8.25216 28.8973C8.25216 28.4406 8.24795 27.984 8.25276 27.5273C8.26419 26.5275 8.92924 25.8504 9.92261 25.8407C10.8643 25.8317 11.8053 25.8317 12.747 25.8407C13.7091 25.8492 14.3898 26.4903 14.415 27.4474C14.4409 28.425 14.4397 29.4044 14.4162 30.382C14.3934 31.3319 13.7433 31.9682 12.7915 31.9856C11.824 32.0036 10.8558 32.0042 9.88893 31.9856C8.913 31.967 8.26479 31.2874 8.25276 30.3057C8.24735 29.8364 8.25156 29.3665 8.25156 28.8967L8.25216 28.8973Z" fill="#ACB4C0"/>
<path d="M61.6622 12.6736C62.3669 12.1785 63.148 11.8702 64.0073 11.7777C64.2274 11.7543 64.4529 11.7338 64.6712 11.7549C65.216 11.8071 65.6152 12.2367 65.6068 12.7312C65.5978 13.2294 65.1907 13.6349 64.6507 13.6956C64.2364 13.7425 63.8131 13.7611 63.412 13.8626C62.4012 14.1186 61.7891 14.8504 61.676 15.8881C61.6405 16.2114 61.6213 16.5382 61.6201 16.8633C61.6147 18.6893 61.6207 20.5146 61.6141 22.3406C61.6123 22.8279 61.3038 23.1962 60.8516 23.3014C60.4656 23.3909 60.0002 23.1974 59.8234 22.8279C59.7374 22.6483 59.7061 22.4277 59.7055 22.2259C59.6983 19.1219 59.7001 16.0179 59.7013 12.9145C59.7013 12.3179 60.0044 11.9111 60.5005 11.8252C60.9863 11.741 61.4012 12.0331 61.6063 12.6021C61.6135 12.6231 61.6345 12.6393 61.6616 12.6736H61.6622Z" fill="#ACB4C0"/>
<path d="M7.4581 21.5722C7.4581 21.9891 7.46772 22.4061 7.45569 22.8225C7.43465 23.5477 6.87964 24.1005 6.15085 24.1107C5.32825 24.1222 4.50505 24.1179 3.68246 24.1125C2.89955 24.1077 2.3277 23.5886 2.30305 22.8147C2.27599 21.9687 2.27719 21.1209 2.30305 20.2749C2.3259 19.5371 2.85866 19.0065 3.6115 18.9813C4.45936 18.9525 5.31021 18.95 6.15746 18.9831C6.94698 19.0137 7.44848 19.5743 7.4575 20.3614C7.46171 20.7652 7.4581 21.169 7.4575 21.5728L7.4581 21.5722Z" fill="#ACB4C0"/>
<path d="M69.372 17.571C69.372 19.1608 69.3744 20.7507 69.3702 22.3405C69.369 22.799 69.1104 23.1613 68.7076 23.3019C68.3564 23.4244 67.9096 23.3205 67.6865 23.0015C67.5603 22.8212 67.4622 22.576 67.4616 22.3591C67.4472 19.1795 67.4484 15.9998 67.4544 12.8207C67.4556 12.212 67.8603 11.8112 68.4183 11.8185C68.9649 11.8257 69.3684 12.2499 69.3702 12.8405C69.375 14.4171 69.372 15.9938 69.3714 17.571H69.372Z" fill="#ACB4C0"/>
<path d="M24.7242 6.93049C24.7242 7.26937 24.7296 7.60765 24.723 7.94593C24.7115 8.53776 24.3225 8.98239 23.7398 9.00342C22.9966 9.03046 22.2516 9.02865 21.5083 9.00282C20.9479 8.98299 20.5258 8.53716 20.5035 7.94713C20.4783 7.25795 20.4777 6.56638 20.5035 5.8772C20.5252 5.29378 20.9275 4.86357 21.5186 4.83113C22.2467 4.79147 22.9803 4.78967 23.7079 4.83173C24.3375 4.86838 24.7091 5.31901 24.7217 5.95351C24.7284 6.27917 24.723 6.60483 24.723 6.92989L24.7242 6.93049Z" fill="#ACB4C0"/>
<path d="M68.4182 10.3897C67.7766 10.3927 67.2276 9.86693 67.2198 9.24025C67.2114 8.60756 67.7424 8.0704 68.3834 8.06259C69.0292 8.05478 69.5758 8.57631 69.58 9.206C69.5842 9.8447 69.052 10.3867 68.4182 10.3897Z" fill="#ACB4C0"/>
<path d="M98.976 22.1806C98.8335 22.5723 98.691 22.9641 98.5485 23.3558C98.5016 23.3648 98.4547 23.3738 98.4071 23.3829C98.2436 22.9641 98.08 22.5453 97.9165 22.1271C97.8948 22.1271 97.8738 22.1259 97.8521 22.1253C97.8521 22.4467 97.8636 22.7688 97.8443 23.089C97.8389 23.1756 97.7403 23.2561 97.6844 23.3396C97.6321 23.2531 97.5364 23.1678 97.534 23.08C97.5196 22.5723 97.5172 22.0634 97.5352 21.5557C97.5389 21.4511 97.6459 21.3496 97.7054 21.2468C97.8076 21.3244 97.9604 21.3808 98.0037 21.483C98.16 21.8537 98.2791 22.2394 98.4534 22.7363C98.6026 22.3109 98.7 21.9727 98.8419 21.6542C98.9116 21.4974 99.0626 21.3772 99.1768 21.2402C99.249 21.4139 99.3711 21.5833 99.3843 21.7612C99.4155 22.1758 99.4065 22.5951 99.3861 23.0115C99.3807 23.1233 99.2736 23.2308 99.2129 23.3402C99.1576 23.2254 99.0656 23.1143 99.0554 22.9959C99.0313 22.7309 99.0481 22.4618 99.0481 22.1944C99.0247 22.1902 99.0012 22.186 98.9772 22.1818L98.976 22.1806Z" fill="#ACB4C0"/>
<path d="M96.4286 21.6798C96.211 21.5656 96.0534 21.4833 95.8965 21.401C96.0745 21.3421 96.2482 21.2616 96.431 21.2316C96.6084 21.2021 96.7972 21.2057 96.9752 21.2328C97.0835 21.249 97.1815 21.3361 97.2843 21.3908C97.1869 21.4509 97.0931 21.52 96.9903 21.568C96.9355 21.5933 96.864 21.5824 96.7546 21.5921C96.7546 22.0733 96.7654 22.5486 96.7467 23.0233C96.7425 23.1308 96.6367 23.2348 96.5772 23.3399C96.5279 23.2378 96.4395 23.1368 96.4365 23.0329C96.4208 22.5672 96.4298 22.101 96.4298 21.6792L96.4286 21.6798Z" fill="#ACB4C0"/>
</g>
<defs>
<clipPath id="clip0_2707_6591">
<rect width="99.1648" height="32" fill="white" transform="translate(0.239258)"/>
</clipPath>
</defs>
</svg>
