<svg width="127" height="32" viewBox="0 0 127 32" fill="none" xmlns="http://www.w3.org/2000/svg">
<g clip-path="url(#clip0_2707_6433)">
<path d="M28.6864 26.0962C26.4971 29.0569 23.4572 30.6873 19.9309 31.5375C15.0926 32.7042 10.7115 31.6222 6.7096 28.8176C6.15666 28.4304 5.70517 27.9025 5.30273 27.5293C7.80798 25.0964 10.2201 22.7539 12.8376 20.2125C15.3395 21.7369 18.1416 21.7788 20.6884 19.3262C21.7311 19.7751 21.934 21.3932 23.4107 21.2361C20.8098 24.7963 17.1837 25.2608 12.9573 24.4123C12.3063 25.1769 11.6236 25.9786 10.7905 26.9562C13.1793 28.284 15.6987 28.6483 18.3403 28.215C21.6355 27.674 24.2762 25.9737 26.4431 23.5038C26.5404 25.3077 26.9511 25.7821 28.6856 26.0962H28.6864Z" fill="#ACB4C0"/>
<path d="M73.3132 18.0076H70.0887V24.3969C69.1025 24.4528 68.2702 24.4997 67.2725 24.5564V7.56483C70.1485 7.56483 72.9772 7.3379 75.7469 7.63718C77.9237 7.87316 79.2033 9.53235 79.6956 11.6734C80.1679 13.7247 79.3613 15.3305 77.8805 16.6789C77.4689 17.053 76.9733 17.3367 76.3979 17.7469C77.5163 19.8288 78.6271 21.8958 79.9392 24.3377C78.6313 24.4405 77.6926 24.5136 76.7081 24.5909C75.5257 22.2978 74.4165 20.1469 73.3132 18.0076ZM70.1643 15.5344C71.6244 15.5344 72.88 15.5911 74.128 15.5196C75.6538 15.4316 76.7846 14.311 76.8669 12.9404C76.9517 11.5361 75.9913 10.3085 74.409 10.1375C73.0097 9.98621 71.5812 10.1062 70.1643 10.1062V15.5344Z" fill="#ACB4C0"/>
<path d="M14.9818 0.0957722C19.7869 -0.413169 23.8587 1.12188 27.439 4.32928C24.7858 6.70379 22.2423 8.98046 19.4743 11.4586C18.2155 10.6693 16.1293 10.2532 13.9026 11.0688C13.5276 9.77635 12.6595 9.0117 11.3408 8.72804C13.8153 6.88714 16.5567 6.77614 19.5658 7.61396C20.3208 6.74079 21.0932 5.84706 21.8523 4.96895C19.3479 3.00142 12.6653 2.55415 7.92009 6.62979C6.97802 5.9819 6.03679 5.334 5.09473 4.68529C7.67065 1.83226 10.9966 0.528249 14.7532 0.113861L14.8704 0.164837L14.9818 0.0957722Z" fill="#ACB4C0"/>
<path d="M115.621 24.4346V7.50391H126.336V9.98201H118.537V14.454H125.118V17.1713H118.48V21.8883H126.302C126.367 22.7656 126.422 23.5121 126.49 24.4346H115.62H115.621Z" fill="#ACB4C0"/>
<path d="M98.2456 10.0758C97.7808 10.5633 97.2786 11.0904 96.6192 11.7827C94.7193 10.3874 92.6456 9.30127 90.3307 10.2591C89.1717 10.7393 88.0284 11.6141 87.2676 12.604C85.6221 14.7434 85.9879 18.0963 87.8213 20.0417C90.0522 22.408 92.3371 22.4655 96.6009 20.2119C96.951 20.5078 97.3451 20.8096 97.6993 21.1516C97.9122 21.358 98.0635 21.626 98.2265 21.8447C96.2351 24.498 92.6339 25.446 89.1675 24.2916C85.5356 23.0822 83.0711 19.6536 83.1168 15.8715C83.1626 12.0828 85.6903 8.80137 89.3313 7.55656C92.3113 6.53786 96.8179 7.49407 98.2464 10.0758H98.2456Z" fill="#ACB4C0"/>
<path d="M54.7672 10.0415C54.2184 10.6253 53.7228 11.1531 53.1034 11.8109C51.265 10.4206 49.2836 9.39775 47.1034 10.1517C45.8762 10.576 44.6514 11.4927 43.8407 12.5114C42.0505 14.7593 42.3865 17.9832 44.3471 20.06C46.6004 22.4477 49.153 22.5094 53.041 20.1529C53.569 20.6339 54.1427 21.1552 54.6874 21.651C53.3005 24.1439 49.8814 25.3073 46.4773 24.5591C42.9477 23.7838 40.0251 20.5788 39.6858 17.1124C39.2792 12.9505 41.4236 9.30895 45.1503 7.76404C48.2999 6.45839 52.7816 7.18768 54.7672 10.0415Z" fill="#ACB4C0"/>
<path d="M5.09504 4.68555C6.03711 5.33344 6.97834 5.98133 7.92041 6.63005C5.25302 9.29809 3.61501 12.4167 3.73142 16.2564C3.80542 18.7172 4.59449 20.9782 6.05207 23.1891C5.25469 23.9439 4.46561 24.6897 3.67322 25.4387C-1.31066 20.0146 -0.8916 9.95996 5.09504 4.68555Z" fill="#ACB4C0"/>
<path d="M28.6868 26.0949C26.9515 25.7808 26.5416 25.3064 26.4443 23.5025C29.0826 19.5839 29.5433 15.4154 27.8587 11.0257C27.551 10.224 27.0804 9.48403 26.5915 8.53439C27.4205 7.76975 28.2087 7.0421 28.9986 6.31445C33.7173 11.4269 33.7173 20.7342 28.686 26.0941L28.6868 26.0949Z" fill="#ACB4C0"/>
<path d="M112.12 21.8896V24.3759H102.441V7.46656C103.225 7.42628 104.007 7.38599 105.094 7.33008C105.388 9.82628 105.203 12.2287 105.237 14.6148C105.271 16.9761 105.244 19.3391 105.244 21.8896H112.119H112.12Z" fill="#ACB4C0"/>
<path d="M58.9033 7.43359H61.5507V24.3873H58.9033V7.43359Z" fill="#ACB4C0"/>
<path d="M11.3408 8.72852C12.6595 9.01135 13.5276 9.776 13.9026 11.0693C11.0714 13.2227 10.6091 14.3803 11.1637 18.0555C10.5018 18.7815 9.8059 19.5445 9.12575 20.2903C6.17317 17.7645 7.24578 10.946 11.3416 8.72852H11.3408Z" fill="#ACB4C0"/>
<path d="M23.4117 21.235C21.9342 21.3921 21.7321 19.7732 20.6895 19.3251C21.8485 17.5606 21.8352 15.612 21.4328 13.5606C22.2734 12.8692 23.0459 12.2336 23.9804 11.4648C25.892 14.9238 25.6584 17.9166 23.7418 20.856C23.6304 20.9826 23.519 21.1101 23.4076 21.2367L23.4117 21.235Z" fill="#ACB4C0"/>
<path d="M14.9816 0.0949656L14.8702 0.16403L14.7529 0.113054L14.8643 0.0078125L14.9816 0.0949656Z" fill="#ACB4C0"/>
</g>
<defs>
<clipPath id="clip0_2707_6433">
<rect width="126.25" height="32" fill="white" transform="translate(0.241211)"/>
</clipPath>
</defs>
</svg>
