<svg width="165" height="32" viewBox="0 0 165 32" fill="none" xmlns="http://www.w3.org/2000/svg">
<g clip-path="url(#clip0_2707_6509)">
<path d="M33.7592 32.0001C33.3885 31.818 33.2274 31.4914 33.0743 31.1244C32.1133 28.8225 31.1271 26.5308 30.1568 24.2332C27.7025 18.4215 25.2525 12.6083 22.7975 6.79657C22.6855 6.53213 22.5627 6.26915 22.4131 6.02494C22.1408 5.57916 21.7362 5.28511 21.2087 5.27427C20.5614 5.26127 19.909 5.28222 19.2652 5.35013C18.6041 5.41949 18.1967 5.85877 17.9517 6.45049C16.4049 10.1836 14.858 13.9167 13.3227 17.6549C13.2158 17.9158 13.0958 18.0126 12.8032 18.0097C10.8901 17.9938 8.9769 18.0017 7.01172 18.0017C7.06735 17.8558 7.10781 17.7373 7.15766 17.6239C9.5773 12.0831 12.0063 6.54658 14.4093 0.999273C14.7157 0.292674 15.1643 -0.00499415 15.9259 6.33074e-05C18.9704 0.0195707 22.0158 0.00801075 25.0603 0.00801075C25.9714 0.00801075 26.1593 0.12939 26.5097 0.951588C30.5318 10.3845 34.5532 19.8181 38.5746 29.251C38.8427 29.8795 39.1223 30.5038 39.3737 31.1396C39.4821 31.4148 39.5319 31.7125 39.6085 32.0001H39.0305C38.9366 31.9842 38.8434 31.9553 38.7495 31.9553C37.5638 31.948 36.3789 31.9437 35.1933 31.9444C35.0763 31.9444 34.9592 31.9813 34.8422 32.0008H33.7592V32.0001Z" fill="#ACB4C0"/>
<path d="M0.828125 32.0002C0.862082 31.8745 0.880867 31.7423 0.932164 31.6252C2.05998 29.0568 3.19502 26.4919 4.31777 23.9213C4.42687 23.6713 4.55042 23.5694 4.84303 23.5723C6.68322 23.5897 8.52341 23.581 10.3636 23.581H10.7624C10.5117 24.1771 10.2805 24.7269 10.0479 25.2767C9.24013 27.1862 8.42443 29.0929 7.62824 31.0075C7.4534 31.428 7.25977 31.8066 6.82049 32.0009H0.828125V32.0002Z" fill="#ACB4C0"/>
<path d="M97.1365 10.4598V16.0259H94.0312V0.223478C94.1497 0.223478 94.2762 0.223478 94.4026 0.223478C97.0014 0.223478 99.6002 0.190243 102.198 0.24154C103.088 0.25888 103.989 0.423609 104.856 0.638912C105.979 0.917795 106.707 1.70387 107.027 2.80134C107.501 4.43273 107.543 6.08869 107.122 7.74248C106.828 8.89919 106.104 9.67587 104.976 10.0776C104.922 10.0971 104.872 10.1274 104.781 10.1722C105.959 12.1259 107.126 14.0614 108.327 16.0533C107.407 16.0533 106.543 16.0064 105.689 16.0692C105.096 16.1133 104.805 15.8965 104.527 15.3951C103.653 13.8223 102.714 12.2848 101.813 10.7264C101.688 10.5104 101.55 10.4309 101.302 10.433C100.04 10.4446 98.7759 10.4381 97.5129 10.4395C97.4067 10.4395 97.3005 10.4504 97.1358 10.4598H97.1365ZM97.1539 8.46136C97.2673 8.47292 97.3374 8.48665 97.4082 8.48737C98.8879 8.48881 100.368 8.49821 101.848 8.48231C102.326 8.47725 102.81 8.43896 103.281 8.35732C103.853 8.25834 104.109 7.92166 104.111 7.35233C104.117 6.04317 104.117 4.73401 104.111 3.42557C104.109 2.85264 103.885 2.55063 103.316 2.43503C102.895 2.34906 102.459 2.30426 102.029 2.29993C100.537 2.28403 99.0454 2.29342 97.5534 2.29487C97.4255 2.29487 97.2976 2.30571 97.1546 2.31293V8.46208L97.1539 8.46136Z" fill="#ACB4C0"/>
<path d="M50.6191 0.224488C50.7557 0.224488 50.8735 0.224488 50.9905 0.224488C53.5532 0.224488 56.1159 0.194143 58.6771 0.241105C59.5326 0.257 60.401 0.402222 61.2333 0.608855C62.4847 0.919528 63.2512 1.79302 63.5583 3.0256C63.9622 4.64543 63.9802 6.27899 63.5764 7.90677C63.1826 9.49337 62.1357 10.3856 60.5477 10.6457C59.9104 10.7498 59.258 10.7989 58.6121 10.8098C57.1447 10.8336 55.6766 10.817 54.2092 10.817C54.0676 10.817 53.9267 10.817 53.749 10.817V16.0269H50.6191V0.224488ZM53.7721 2.29443V8.84674C53.8631 8.85468 53.9224 8.8648 53.9809 8.8648C55.4613 8.8648 56.9417 8.87491 58.4221 8.85685C58.8881 8.85107 59.3606 8.80628 59.8172 8.71307C60.328 8.60976 60.5599 8.31281 60.5621 7.8338C60.5701 6.33246 60.5701 4.83039 60.5614 3.32905C60.5585 2.88254 60.3511 2.61811 59.9191 2.47723C59.7269 2.41437 59.5217 2.36307 59.3216 2.35801C58.0832 2.32839 56.8442 2.31033 55.6058 2.29516C55.0054 2.28793 54.4057 2.29371 53.7721 2.29371V2.29443Z" fill="#ACB4C0"/>
<path d="M142.265 0.242188H152.962C152.859 0.87437 152.769 1.49716 152.642 2.112C152.625 2.19292 152.414 2.2854 152.291 2.28612C150.246 2.29696 148.201 2.29407 146.155 2.29407C145.917 2.29407 145.679 2.29407 145.413 2.29407V7.48447H151.692C151.692 8.10798 151.702 8.70187 151.677 9.29432C151.675 9.34923 151.461 9.43882 151.344 9.43954C149.744 9.44893 148.144 9.44604 146.543 9.44604C146.173 9.44604 145.803 9.44604 145.397 9.44604V16.0251H142.265V0.242188H142.265Z" fill="#ACB4C0"/>
<path d="M87.4338 16.1227C86.4714 16.1227 85.5943 16.14 84.7194 16.1053C84.5727 16.0996 84.369 15.8973 84.3032 15.739C82.929 12.4531 81.57 9.16072 80.2089 5.86831C79.9112 5.14799 79.6215 4.42405 79.3231 3.70372C79.0442 3.03035 78.8376 2.94004 78.1143 2.93932C77.4236 2.9386 77.0631 3.23049 76.8182 3.87929C76.1781 5.57281 75.4621 7.23744 74.7887 8.91796C74.6991 9.14194 74.59 9.2243 74.3444 9.21924C73.4911 9.20262 72.6371 9.21274 71.7246 9.21274C71.7737 9.07474 71.8048 8.96854 71.8482 8.86739C72.9695 6.24184 74.0915 3.61702 75.2143 0.992921C75.4722 0.39036 75.5191 0.36724 76.186 0.368685C77.5703 0.371575 78.9546 0.378078 80.3382 0.36146C80.7305 0.356403 80.9574 0.495844 81.1091 0.859982C83.1588 5.80112 85.2179 10.7379 87.2734 15.6769C87.3225 15.7947 87.3601 15.9168 87.4338 16.122V16.1227Z" fill="#ACB4C0"/>
<path d="M134.45 16.1118C133.935 16.1118 133.495 16.1104 133.053 16.1118C132.668 16.1133 132.282 16.1082 131.898 16.1263C131.59 16.1407 131.414 16.0186 131.296 15.7304C129.659 11.7487 128.013 7.76992 126.369 3.79042C126.023 2.95016 125.22 2.63443 124.412 3.07009C124.205 3.18208 124.036 3.43929 123.94 3.66832C123.216 5.40592 122.51 7.15147 121.811 8.8999C121.717 9.13471 121.602 9.22575 121.342 9.21997C120.489 9.2019 119.636 9.21346 118.741 9.21346C118.786 9.08125 118.813 8.98082 118.854 8.88617C119.98 6.24979 121.106 3.61413 122.234 0.978473C122.482 0.399033 122.542 0.367243 123.179 0.368688C124.564 0.371578 125.948 0.378803 127.332 0.361463C127.736 0.356406 127.971 0.492957 128.129 0.874434C130.173 5.80474 132.229 10.7307 134.28 15.6574C134.33 15.7773 134.372 15.9009 134.45 16.1111L134.45 16.1118Z" fill="#ACB4C0"/>
<path d="M161.402 0.242188H164.431V16.0309H161.402V0.242188Z" fill="#ACB4C0"/>
<path d="M68.6689 16.0513C68.9753 15.3317 69.2592 14.6613 69.5453 13.9915C69.8083 13.3745 70.0634 12.7546 70.3459 12.1463C70.3964 12.0379 70.5597 11.9151 70.6731 11.9129C71.5734 11.8941 72.4743 11.9021 73.4309 11.9021C73.3811 12.0451 73.3464 12.1629 73.3001 12.2756C72.8507 13.3723 72.3898 14.4647 71.9549 15.5673C71.8154 15.9199 71.6117 16.0687 71.2259 16.0578C70.3979 16.0354 69.5692 16.0513 68.6697 16.0513H68.6689Z" fill="#ACB4C0"/>
<path d="M120.5 11.9025C120.478 11.9928 120.47 12.0636 120.444 12.1272C119.963 13.3012 119.477 14.4731 118.998 15.6479C118.904 15.8755 118.777 16.0496 118.506 16.0503C117.608 16.0525 116.709 16.051 115.756 16.051C115.991 15.4991 116.212 14.9846 116.431 14.4702C116.759 13.6993 117.082 12.9263 117.423 12.1611C117.471 12.0542 117.608 11.9155 117.707 11.9133C118.631 11.8945 119.555 11.9018 120.5 11.9018L120.5 11.9025Z" fill="#ACB4C0"/>
<path d="M81.4948 31.5592C81.4153 31.6191 81.3344 31.7232 81.2383 31.7398C81.169 31.7513 81.0389 31.6646 81.0057 31.5902C80.8041 31.1423 80.6097 30.6907 80.4414 30.2305C80.3612 30.0116 80.2434 29.9458 80.018 29.9487C79.1048 29.9603 78.1916 29.961 77.2783 29.9487C77.0507 29.9458 76.933 30.0174 76.8549 30.2319C76.6989 30.6589 76.519 31.0773 76.3413 31.4963C76.2769 31.6473 76.2213 31.8308 75.9822 31.734C75.7604 31.6444 75.7958 31.4927 75.8666 31.3215C76.6844 29.3404 77.4972 27.3571 78.3252 25.3804C78.3743 25.2626 78.5326 25.1311 78.6511 25.1196C78.7435 25.1102 78.9025 25.2568 78.9487 25.3681C79.7796 27.3571 80.5975 29.3512 81.4175 31.3439C81.4399 31.3988 81.458 31.4558 81.4948 31.5599V31.5592ZM77.1887 29.4105H80.0953C79.6113 28.235 79.1438 27.0999 78.6424 25.8825C78.141 27.0999 77.6728 28.235 77.1887 29.4105Z" fill="#ACB4C0"/>
<path d="M141.221 31.5545C141.141 31.616 141.062 31.7207 140.966 31.7381C140.897 31.7503 140.765 31.6665 140.732 31.5936C140.531 31.1463 140.336 30.694 140.167 30.2338C140.087 30.0178 139.974 29.9448 139.746 29.9477C138.833 29.9593 137.92 29.9593 137.007 29.9477C136.782 29.9448 136.66 30.0091 136.58 30.2266C136.418 30.6644 136.244 31.0986 136.043 31.5199C135.994 31.621 135.812 31.7359 135.712 31.72C135.482 31.6831 135.516 31.4989 135.588 31.3248C136.41 29.3321 137.228 27.3381 138.06 25.3498C138.105 25.2421 138.258 25.1265 138.371 25.1157C138.461 25.107 138.617 25.2298 138.658 25.3302C139.497 27.3417 140.323 29.3582 141.152 31.3739C141.17 31.418 141.186 31.4628 141.222 31.5553L141.221 31.5545ZM139.82 29.408C139.336 28.2325 138.868 27.0989 138.367 25.8815C137.864 27.1018 137.397 28.2368 136.915 29.408H139.82Z" fill="#ACB4C0"/>
<path d="M59.2674 28.4178C59.2674 27.9496 59.2464 27.48 59.2717 27.0126C59.3274 25.9982 59.7125 25.2244 60.9031 25.1391C61.6661 25.0849 62.4456 25.0734 63.2021 25.1688C64.0568 25.2764 64.4672 25.8233 64.4918 26.6846C64.4946 26.7915 64.3711 26.902 64.3061 27.0111C64.21 26.9309 64.098 26.863 64.0229 26.7662C63.9766 26.7077 63.9853 26.6058 63.9701 26.5227C63.8733 25.9758 63.65 25.6933 63.1132 25.6608C62.3358 25.6138 61.5505 25.6124 60.7738 25.6629C60.2189 25.6991 59.8468 26.0842 59.8259 26.6759C59.7833 27.8608 59.7883 29.05 59.8309 30.2349C59.8504 30.7825 60.2363 31.1539 60.7911 31.1907C61.5563 31.2413 62.3286 31.2442 63.0945 31.203C63.6269 31.1749 63.8697 30.8851 63.9694 30.3541C63.9824 30.2833 63.9752 30.1973 64.0135 30.1446C64.0929 30.0362 64.197 29.9459 64.2902 29.8484C64.3595 29.9777 64.4961 30.1113 64.4874 30.2342C64.4166 31.1741 63.9022 31.7016 62.9355 31.75C62.2173 31.7861 61.4912 31.7594 60.7745 31.6972C59.9624 31.6264 59.4466 31.1272 59.3447 30.3194C59.266 29.6908 59.2696 29.0514 59.2363 28.4171C59.2472 28.4171 59.2573 28.4164 59.2681 28.4156L59.2674 28.4178Z" fill="#ACB4C0"/>
<path d="M92.9204 28.4246C92.9204 27.4528 92.9218 26.4811 92.9189 25.51C92.9189 25.3048 92.9276 25.096 93.1964 25.0997C94.1559 25.1119 95.1175 25.0997 96.0726 25.1733C96.7106 25.2225 97.1347 25.6603 97.2149 26.2903C97.2756 26.7708 97.2843 27.2729 97.2163 27.7519C97.1101 28.5012 96.5502 28.9455 95.7844 28.9614C95.0994 28.9758 94.4145 28.9758 93.7296 28.9614C93.4724 28.9563 93.3994 29.0495 93.4037 29.2952C93.416 29.9909 93.4081 30.6867 93.4074 31.3825C93.4074 31.5537 93.4196 31.7509 93.1827 31.7567C92.9327 31.7625 92.9189 31.5689 92.9189 31.376C92.9211 30.3926 92.9197 29.4086 92.9197 28.4253L92.9204 28.4246ZM94.6912 28.473C94.6912 28.473 94.6912 28.4679 94.6912 28.4658C95.0272 28.4658 95.3653 28.4845 95.6998 28.4621C96.4021 28.4145 96.6998 28.145 96.7763 27.4499C96.8125 27.1212 96.7937 26.778 96.7438 26.45C96.6673 25.9515 96.3768 25.669 95.8776 25.6408C95.1348 25.5989 94.3899 25.6097 93.6458 25.5953C93.4507 25.5917 93.4059 25.6957 93.4066 25.8677C93.411 26.6472 93.4131 27.4268 93.4059 28.2057C93.4037 28.4087 93.4832 28.4817 93.6826 28.4759C94.0186 28.4658 94.3553 28.473 94.6912 28.473Z" fill="#ACB4C0"/>
<path d="M123.805 25.5939C123.805 26.0318 123.805 26.4024 123.805 26.7738C123.805 28.2635 123.805 29.7526 123.805 31.2424C123.805 31.35 123.828 31.4707 123.788 31.5625C123.752 31.6455 123.644 31.7474 123.567 31.7481C123.488 31.7489 123.376 31.6513 123.338 31.5697C123.296 31.4794 123.319 31.358 123.318 31.2496C123.318 29.4961 123.31 27.7419 123.326 25.9884C123.328 25.6633 123.227 25.5751 122.916 25.5874C122.363 25.6098 121.809 25.5932 121.256 25.5925C121.082 25.5925 120.885 25.5889 120.883 25.3584C120.88 25.1171 121.07 25.0918 121.267 25.0918C122.795 25.094 124.324 25.094 125.852 25.0918C126.047 25.0918 126.242 25.1077 126.24 25.3526C126.239 25.6127 126.02 25.5918 125.84 25.5925C125.181 25.5939 124.521 25.5925 123.805 25.5925V25.5939Z" fill="#ACB4C0"/>
<path d="M152.717 28.3998C152.717 27.4273 152.708 26.4541 152.727 25.4816C152.729 25.353 152.857 25.1341 152.952 25.1182C153.208 25.077 153.205 25.3024 153.205 25.4874C153.205 25.5835 153.205 25.6796 153.205 25.7757C153.205 27.4454 153.205 29.1143 153.205 30.784C153.205 31.1058 153.37 31.2671 153.702 31.2681C154.519 31.2681 155.338 31.2666 156.156 31.2702C156.342 31.271 156.584 31.2312 156.574 31.5246C156.565 31.7731 156.358 31.7695 156.171 31.7695C155.16 31.768 154.15 31.7594 153.14 31.7738C152.798 31.7789 152.707 31.6351 152.711 31.3186C152.725 30.3462 152.716 29.373 152.716 28.4005L152.717 28.3998Z" fill="#ACB4C0"/>
<path d="M108.809 28.4321C108.809 27.4604 108.809 26.4879 108.809 25.5161C108.809 25.3305 108.801 25.1108 109.045 25.1094C109.288 25.1079 109.285 25.3269 109.285 25.5125C109.285 27.4568 109.29 29.401 109.275 31.3445C109.273 31.484 109.136 31.7332 109.046 31.7404C108.807 31.7599 108.809 31.5338 108.809 31.3481C108.809 30.3764 108.809 29.4039 108.809 28.4321Z" fill="#ACB4C0"/>
</g>
<defs>
<clipPath id="clip0_2707_6509">
<rect width="163.604" height="32" fill="white" transform="translate(0.828125)"/>
</clipPath>
</defs>
</svg>
