<svg width="203" height="32" viewBox="0 0 203 32" fill="none" xmlns="http://www.w3.org/2000/svg">
<g clip-path="url(#clip0_2707_6345)">
<path d="M24.6733 2.79803H2.87608C7.35888 10.602 11.7824 18.3028 16.2664 26.1116C16.4357 25.8248 16.5446 25.6437 16.6498 25.4602C21.1979 17.5468 25.7447 9.63217 30.2916 1.71998C31.1684 0.194666 32.7864 -0.392367 34.2847 0.312559C28.3423 10.658 22.4023 20.9997 16.3837 31.4776C16.0258 30.9939 15.6775 30.6098 15.4248 30.1698C12.6277 25.3265 9.84515 20.4747 7.05777 15.6265C4.98506 12.0204 2.90631 8.41799 0.842073 4.80707C-0.229348 2.93294 0.590543 0.706345 2.55078 0.147266C2.89422 0.0488193 3.26547 0.0111422 3.62341 0.00992678C9.58758 0.000203663 15.5529 -0.00344251 21.5171 0.00384983C23.2391 0.00628061 24.5971 1.18642 24.6733 2.79803Z" fill="#ACB4C0"/>
<path d="M4.03418 3.49219H24.6439C24.6875 4.48151 23.8845 5.59846 22.7828 5.98131C22.3173 6.14295 21.8009 6.21831 21.3075 6.22074C17.4003 6.23897 13.4932 6.23168 9.58598 6.23168C9.36831 6.23168 9.14943 6.23168 8.82292 6.23168C8.96683 6.50271 9.06115 6.69352 9.16757 6.87705C11.9622 11.7423 14.7532 16.6087 17.5612 21.4654C17.7885 21.8592 17.8405 22.1569 17.5769 22.5592C17.1258 23.2484 16.7413 23.98 16.2709 24.7931C12.175 17.6649 8.12396 10.6119 4.03418 3.49219Z" fill="#ACB4C0"/>
<path d="M34.8588 0.634766C36.1793 1.56819 36.5095 3.29647 35.6811 4.74765C33.8007 8.04257 31.9058 11.329 30.0156 14.619C27.0094 19.8513 24.0043 25.0836 20.9956 30.3134C20.1225 31.8314 18.461 32.4148 17.0195 31.6904C22.9595 21.3523 28.8971 11.0142 34.8588 0.634766Z" fill="#ACB4C0"/>
<path d="M63.9966 15.2974H59.001V13.6857C59.1111 13.6614 59.2054 13.6213 59.2997 13.6213C61.295 13.6177 63.2903 13.6298 65.2844 13.6067C65.7258 13.6019 65.7839 13.8498 65.8056 14.1683C66.0547 17.6552 64.1767 20.2002 61.2297 21.0923C57.1847 22.3174 53.0151 20.0155 52.0138 16.0059C50.9509 11.7508 53.5254 7.66227 57.799 6.94884C59.8898 6.60002 61.8428 7.04729 63.508 8.46078C63.6906 8.61635 63.9022 8.73789 64.0812 8.86308C63.5673 9.36017 63.1791 9.73694 62.7498 10.1526C61.7292 9.00285 60.382 8.51912 58.8462 8.56045C57.6454 8.59205 56.5607 8.99069 55.6259 9.76368C53.6717 11.3789 53.0417 14.2631 54.13 16.5954C55.1543 18.7904 57.591 20.0471 59.9854 19.6144C62.3169 19.1939 63.8139 17.6236 63.9953 15.2974H63.9966Z" fill="#ACB4C0"/>
<path d="M90.9507 12.7819V7.17773H92.6546V21.0393H91.0342V19.8482C90.8891 19.9491 90.8068 19.9879 90.7488 20.0487C89.0473 21.8147 86.5296 21.8803 84.7653 20.2019C82.4858 18.0336 82.6938 14.0252 85.1692 12.0952C86.5756 10.9989 89.1936 10.7182 90.9519 12.7819H90.9507ZM91.0269 16.1826C90.9918 15.9456 90.9725 15.5773 90.8782 15.2297C90.571 14.0945 89.8829 13.2766 88.7293 12.9873C87.6119 12.7078 86.63 13.0092 85.8306 13.883C84.6988 15.1203 84.6782 17.4611 85.8089 18.7458C86.8791 19.9612 88.5527 20.1131 89.8176 19.1031C90.7113 18.3885 90.9846 17.4004 91.0257 16.1838L91.0269 16.1826Z" fill="#ACB4C0"/>
<path d="M128.859 7.18289C128.975 7.15858 129.015 7.14521 129.053 7.144C130.217 7.09538 130.983 7.62408 131.349 8.73008C132.415 11.9229 133.488 15.1145 134.615 18.4799C134.75 18.1554 134.839 17.9743 134.904 17.786C136.077 14.4363 137.258 11.0892 138.407 7.72982C138.566 7.26554 138.77 7.07351 139.261 7.1282C139.674 7.17317 140.098 7.13792 140.597 7.13792C140.515 7.39558 140.462 7.58397 140.395 7.76749C138.867 12.0007 137.328 16.2303 135.819 20.4695C135.648 20.9533 135.412 21.0967 134.917 21.0809C133.703 21.0444 133.698 21.0712 133.286 19.8947C131.856 15.8219 130.429 11.7467 129.003 7.67269C128.951 7.52442 128.912 7.37128 128.857 7.18289H128.859Z" fill="#ACB4C0"/>
<path d="M193.89 16.6966H186.537C186.43 17.9363 187.221 19.1153 188.436 19.5771C189.794 20.0924 190.984 19.6415 192.111 18.1588C192.595 18.3593 193.09 18.5635 193.636 18.7895C193.049 20.0596 192.144 20.8679 190.848 21.2288C188.317 21.9338 185.835 20.6965 184.971 18.2985C184.021 15.6672 185.121 12.6275 187.461 11.626C190.052 10.5176 193.513 11.7038 193.885 15.4788C193.923 15.8544 193.89 16.236 193.89 16.6966ZM191.974 15.1251C191.868 13.77 190.826 12.9192 189.323 12.8998C187.973 12.8828 186.792 13.8575 186.664 15.1251H191.974Z" fill="#ACB4C0"/>
<path d="M105.984 18.1452C106.501 18.3591 106.995 18.5657 107.486 18.7687C106.943 20.3621 105.249 21.4365 103.364 21.4219C101.024 21.4037 99.1823 19.9185 98.6768 17.6396C98.1278 15.1651 99.2125 12.5836 101.272 11.6575C103.84 10.5028 107.432 11.6295 107.788 15.5115C107.919 16.948 107.894 16.6697 106.706 16.6782C104.833 16.6928 102.959 16.6819 101.084 16.6819H100.438C100.329 17.9495 101.167 19.1759 102.393 19.6049C103.772 20.0874 105.042 19.5903 105.986 18.1452H105.984ZM100.535 15.1274H105.85C105.861 14.053 104.89 13.0503 103.747 12.9251C102.085 12.7428 100.846 13.5656 100.535 15.1274Z" fill="#ACB4C0"/>
<path d="M147.848 18.1582C148.332 18.3575 148.828 18.5617 149.376 18.789C148.79 20.0603 147.886 20.8661 146.591 21.2283C144.095 21.9271 141.605 20.7081 140.729 18.3587C139.775 15.8003 140.803 12.7789 143.035 11.6996C145.531 10.4927 149.28 11.5465 149.631 15.5366C149.662 15.8927 149.634 16.2537 149.634 16.6742H142.282C142.165 17.9273 142.955 19.1098 144.174 19.5753C145.537 20.0943 146.739 19.6398 147.848 18.1582ZM147.698 15.1258C147.68 13.8229 146.57 12.9077 145.038 12.898C143.697 12.8895 142.463 13.9323 142.421 15.1258H147.698Z" fill="#ACB4C0"/>
<path d="M81.7726 21.0439H80.1583C80.1401 20.655 80.122 20.2868 80.099 19.8091C79.9188 20.0024 79.8136 20.113 79.712 20.2248C78.4362 21.6322 76.0407 21.8267 74.5484 20.6441C72.83 19.2816 73.0199 16.6187 74.9402 15.5346C76.4337 14.6911 78.0118 14.7093 79.6105 15.2113C79.7435 15.2526 79.8705 15.311 80.0023 15.3584C80.0192 15.3644 80.0422 15.3535 80.0615 15.3511C80.2332 14.3593 79.6673 13.4465 78.6382 13.0576C77.3914 12.586 76.1265 13.0272 75.3623 14.2511C74.8544 14.0336 74.3356 13.8099 73.8241 13.59C74.1699 12.394 75.4977 11.3889 76.9234 11.2856C77.5571 11.2394 78.2174 11.2722 78.8401 11.3962C80.6323 11.7535 81.7872 13.1816 81.8053 15.0132C81.8234 16.8752 81.8101 18.7359 81.8077 20.5979C81.8077 20.734 81.7872 20.8714 81.7739 21.0439H81.7726ZM77.9078 16.2577C77.3431 16.4109 76.7759 16.4899 76.2777 16.7184C75.6162 17.0234 75.222 17.5874 75.2655 18.3604C75.3018 18.9924 75.7758 19.4421 76.5836 19.6657C78.0783 20.0814 79.8934 18.9061 80.0869 17.3625C80.1099 17.1754 79.9237 16.8338 79.758 16.7731C79.1642 16.5543 78.5366 16.4242 77.9066 16.2577H77.9078Z" fill="#ACB4C0"/>
<path d="M159.663 21.0387H157.969C157.957 20.8077 157.933 20.5732 157.933 20.3398C157.929 18.6589 157.954 16.978 157.924 15.2984C157.896 13.7962 157.184 12.9891 155.905 12.915C154.371 12.8263 153.177 13.9602 153.14 15.6059C153.105 17.1847 153.128 18.7635 153.127 20.3435C153.127 20.5622 153.127 20.781 153.127 21.0338H151.376V11.589H153.007C153.025 11.967 153.044 12.334 153.064 12.7716C153.305 12.5358 153.474 12.3474 153.668 12.1845C154.855 11.1867 156.201 10.9801 157.627 11.51C158.993 12.0193 159.611 13.1569 159.668 14.5363C159.754 16.6171 159.718 18.7039 159.73 20.7871C159.73 20.8624 159.693 20.9378 159.667 21.0374L159.663 21.0387Z" fill="#ACB4C0"/>
<path d="M117.825 21.0466H116.088C116.088 20.7671 116.09 20.5094 116.088 20.2505C116.077 18.47 116.094 16.6894 116.044 14.9113C116.018 14.0447 115.616 13.3362 114.745 13.0518C113.838 12.7552 112.954 12.7941 112.22 13.516C111.585 14.142 111.283 14.9113 111.284 15.8034C111.284 17.522 111.284 19.2417 111.284 21.0138H109.55V11.5872H111.162C111.181 11.9603 111.202 12.3286 111.226 12.7929C111.497 12.5231 111.687 12.2958 111.913 12.1135C113.123 11.1387 114.487 10.9759 115.885 11.5495C117.333 12.1439 117.83 13.4383 117.874 14.8834C117.936 16.8644 117.89 18.848 117.888 20.8315C117.888 20.8886 117.855 20.9457 117.824 21.0466H117.825Z" fill="#ACB4C0"/>
<path d="M176.444 21.0381H174.784C174.761 20.6905 174.737 20.3235 174.706 19.8458C174.056 20.6054 173.356 21.1244 172.468 21.3079C170.024 21.8147 168.22 20.4547 168.084 17.8623C167.977 15.8046 168.063 13.736 168.063 11.6091H169.845C169.845 13.3435 169.84 15.0596 169.849 16.777C169.851 17.1598 169.883 17.5439 169.937 17.9231C170.058 18.7738 170.489 19.39 171.337 19.6416C172.282 19.9224 173.138 19.768 173.831 19.0303C174.439 18.3825 174.694 17.5852 174.696 16.7028C174.699 15.0231 174.696 13.3435 174.696 11.6055H176.444V21.0381Z" fill="#ACB4C0"/>
<path d="M202.69 13.4667C202.181 13.6794 201.706 13.8788 201.183 14.0975C200.525 12.9344 199.504 12.6804 198.295 12.9308C198.121 12.9672 197.95 13.0341 197.788 13.1118C197.375 13.3075 197.026 13.6369 197.15 14.0927C197.243 14.4318 197.537 14.8523 197.842 14.9677C198.644 15.2704 199.525 15.3615 200.329 15.6605C200.99 15.906 201.714 16.205 202.186 16.6972C203.397 17.9649 202.978 19.9387 201.363 20.8539C199.425 21.9526 196.179 21.5928 194.994 18.6662C195.496 18.4559 196 18.2444 196.54 18.0184C196.958 18.795 197.426 19.5218 198.312 19.6579C198.909 19.7491 199.554 19.7272 200.141 19.5923C200.664 19.472 201.048 19.0405 201.027 18.4328C201.008 17.8592 200.637 17.4994 200.125 17.339C199.456 17.1287 198.751 17.0278 198.092 16.7933C197.438 16.5599 196.771 16.295 196.2 15.9072C195.162 15.2047 194.971 13.7767 195.685 12.7339C197.152 10.5875 201.305 10.8063 202.535 13.0948C202.591 13.1969 202.627 13.31 202.692 13.4667H202.69Z" fill="#ACB4C0"/>
<path d="M125.07 21.006C124.016 21.3268 123.044 21.3645 122.107 20.9549C120.904 20.4299 120.579 19.37 120.568 18.168C120.553 16.7302 120.54 15.2924 120.576 13.8558C120.59 13.3162 120.425 13.1181 119.894 13.1837C119.602 13.2202 119.301 13.1898 118.967 13.1898V11.5648H120.539V8.68555H122.365V11.5198H124.659V13.1886C124.094 13.1886 123.52 13.2068 122.945 13.1825C122.549 13.1655 122.362 13.2627 122.37 13.7136C122.393 15.1915 122.364 16.6694 122.384 18.1474C122.4 19.2789 122.947 19.7322 124.04 19.5463C124.351 19.494 124.527 19.5463 124.627 19.8708C124.739 20.2318 124.902 20.5781 125.072 21.0047L125.07 21.006Z" fill="#ACB4C0"/>
<path d="M166.895 20.9653C165.074 21.6338 162.973 21.1014 162.543 19.265C162.447 18.8554 162.416 18.4239 162.411 18.0022C162.395 16.6458 162.405 15.2894 162.405 13.933C162.405 13.7143 162.405 13.4967 162.405 13.2087H160.812V11.5849C161.316 11.563 161.827 11.5399 162.406 11.5144C162.406 10.7268 162.424 9.98059 162.399 9.23677C162.385 8.81017 162.493 8.6145 162.967 8.62543C164.5 8.66068 164.182 8.45649 164.214 9.86756C164.226 10.3902 164.217 10.914 164.217 11.5424H166.525V13.1661H164.277C164.25 13.3922 164.217 13.5478 164.217 13.7033C164.213 15.1606 164.206 16.6191 164.22 18.0763C164.231 19.2893 164.723 19.6916 165.925 19.5615C166.084 19.5445 166.341 19.6758 166.419 19.8143C166.612 20.1607 166.729 20.5508 166.894 20.9665L166.895 20.9653Z" fill="#ACB4C0"/>
<path d="M67.3291 21.0365V11.5869H68.9616V13.0514C70.0681 11.5164 71.3983 11.0181 73.153 11.5443C72.9523 12.0511 72.7938 12.5239 72.5701 12.9639C72.5109 13.0806 72.2315 13.1717 72.0804 13.1401C70.4394 12.795 69.0269 14.1902 69.0717 15.9161C69.1092 17.394 69.0789 18.8731 69.0789 20.3523C69.0789 20.5698 69.0789 20.7874 69.0789 21.0365H67.3291Z" fill="#ACB4C0"/>
<path d="M178.698 21.0196V11.5882H180.333V13.0588C181.445 11.514 182.776 11.0266 184.534 11.5408C184.324 12.0658 184.153 12.5544 183.925 13.015C183.875 13.1135 183.608 13.1742 183.463 13.1439C181.795 12.7902 180.403 14.217 180.448 15.9101C180.487 17.388 180.457 18.8671 180.455 20.345C180.455 20.5626 180.455 20.7814 180.455 21.0196H178.698Z" fill="#ACB4C0"/>
<path d="M95.1562 11.5859H96.8734V21.0392H95.1562V11.5859Z" fill="#ACB4C0"/>
<path d="M96.0371 7.00708C96.7529 7.00951 97.2705 7.54549 97.2669 8.28202C97.2645 9.02462 96.7602 9.52293 96.0141 9.52293C95.3079 9.52293 94.7601 8.96872 94.7637 8.25893C94.7673 7.56008 95.332 7.00465 96.0371 7.00586V7.00708Z" fill="#ACB4C0"/>
</g>
<defs>
<clipPath id="clip0_2707_6345">
<rect width="202.514" height="32" fill="white" transform="translate(0.368164)"/>
</clipPath>
</defs>
</svg>
