<svg width="212" height="20" viewBox="0 0 212 20" fill="none" xmlns="http://www.w3.org/2000/svg">
<g clip-path="url(#clip0_2707_6450)">
<path d="M24.6026 0C25.3468 0.216809 26.1288 0.350357 26.8286 0.66609C29.5024 1.87214 30.9274 4.03693 31.3415 6.87771C31.6247 8.82321 31.3341 10.6987 30.3397 12.4241C28.8241 15.053 25.844 16.541 22.8861 16.1642C19.892 15.7825 17.3499 13.6136 16.5752 10.6723C15.7479 7.52978 16.232 4.64367 18.5288 2.21096C19.6648 1.00738 21.0857 0.308314 22.7322 0.0758419C22.8088 0.0651251 22.882 0.0255554 22.9569 0C23.5052 0 24.0543 0 24.6026 0ZM23.8732 2.11698C22.0728 2.11286 20.6346 2.8416 19.5858 4.29331C18.4012 5.93215 18.1312 7.76473 18.514 9.72013C18.9322 11.8536 20.5951 13.5427 22.7305 13.9986C24.7993 14.4405 27.05 13.5419 28.2659 11.7497C29.3477 10.1562 29.486 8.38218 29.1188 6.5529C28.5771 3.85557 26.5108 2.12769 23.8732 2.11615V2.11698Z" fill="#ACB4C0"/>
<path d="M7.81564 0C8.27748 0.108817 8.74343 0.20197 9.19949 0.330572C10.7776 0.774082 12.3253 1.92078 12.9971 3.14826C12.4653 3.55633 11.9277 3.96851 11.3638 4.39965C11.1604 4.15399 10.9801 3.91822 10.7809 3.70059C9.57653 2.38655 8.04944 1.94468 6.31737 2.09225C5.3336 2.17633 4.39018 2.39644 3.65751 3.126C2.626 4.15234 2.89931 5.8052 4.25764 6.32126C5.06441 6.62792 5.95267 6.72849 6.80966 6.89254C7.91114 7.10441 9.0332 7.22724 10.1166 7.50505C10.7513 7.66745 11.3704 7.99143 11.9227 8.35332C13.938 9.67479 14.3422 13.4026 11.6017 15.0934C10.1964 15.9598 8.66522 16.2565 7.04428 16.2145C4.66432 16.1527 2.64823 15.2871 1.05775 13.4941C0.860995 13.2723 0.680707 13.0374 0.492188 12.8082C0.492188 12.7538 0.492188 12.6986 0.492188 12.6442C1.08656 12.2279 1.68011 11.8116 2.28189 11.3895C2.33293 11.4513 2.3708 11.49 2.40208 11.5337C3.7991 13.4858 5.70077 14.3382 8.08731 14.1206C8.99863 14.0373 9.87619 13.8378 10.6031 13.2328C11.8009 12.2361 11.6272 10.5082 10.2491 9.78278C9.96098 9.6311 9.64816 9.50167 9.33121 9.43572C8.56808 9.27662 7.79671 9.15461 7.02699 9.02931C5.7444 8.82074 4.44616 8.68719 3.24013 8.14888C1.33765 7.29896 0.507829 5.58345 1.04787 3.57364C1.45043 2.07329 2.52145 1.16648 3.88307 0.591896C4.55401 0.309138 5.29491 0.192078 6.00454 0C6.60797 0 7.21139 0 7.81564 0Z" fill="#ACB4C0"/>
<path d="M42.8716 0C43.4536 0.139318 44.048 0.239891 44.6152 0.425374C46.0163 0.882074 47.4084 2.03537 48.0629 3.24306C47.5146 3.63464 46.9614 4.03034 46.3785 4.44582C46.2896 4.33947 46.2024 4.2422 46.1233 4.13915C44.8555 2.47805 43.1473 1.85236 41.1238 2.15737C39.1547 2.45414 37.761 3.57858 37.0349 5.43176C36.3524 7.1753 36.3252 8.97407 36.9772 10.7259C37.7774 12.875 39.4502 13.9178 41.6861 14.1157C43.68 14.2921 45.184 13.4463 46.3028 11.8396C46.3728 11.739 46.4469 11.6409 46.5201 11.5428C46.5275 11.5329 46.5423 11.5296 46.586 11.5065C47.1277 11.8907 47.6825 12.2847 48.2711 12.7027C47.8282 13.5048 47.2651 14.1857 46.5531 14.7216C44.0718 16.5896 41.3749 16.6588 38.6328 15.4651C36.2709 14.4372 35.0303 12.4653 34.589 9.99464C34.2104 7.87107 34.4005 5.79284 35.4386 3.85804C36.6043 1.68501 38.4286 0.427023 40.8761 0.07172C40.9394 0.062652 40.9987 0.024731 41.0596 0C41.6631 0 42.2665 0 42.8699 0L42.8716 0Z" fill="#ACB4C0"/>
<path d="M105.989 0C106.402 0.0840856 106.819 0.150859 107.227 0.256379C108.953 0.702362 110.253 1.72293 111.234 3.22988C110.658 3.64124 110.105 4.03611 109.552 4.43098C109.196 4.046 108.887 3.64124 108.51 3.31561C105.887 1.04942 101.664 2.00816 100.289 5.18857C99.5116 6.98487 99.4836 8.83888 100.108 10.6747C100.797 12.7035 102.681 14.006 104.865 14.128C106.715 14.2311 108.177 13.5625 109.273 12.0803C109.411 11.894 109.55 11.7093 109.715 11.4876C110.285 11.8932 110.846 12.2922 111.432 12.7093C110.19 14.6128 108.562 15.8971 106.275 16.1576C104.342 16.3786 102.505 16.0538 100.855 14.9573C98.9888 13.7167 98.0264 11.9121 97.7021 9.75228C97.4164 7.85129 97.5704 5.98244 98.4093 4.22159C99.533 1.86307 101.398 0.476485 103.991 0.0758419C104.083 0.0618276 104.172 0.0255554 104.262 0C104.839 0 105.414 0 105.99 0L105.989 0Z" fill="#ACB4C0"/>
<path d="M113.888 15.8446C114.319 14.6723 114.731 13.5462 115.146 12.4218C116.59 8.5151 118.04 4.61006 119.471 0.698435C119.592 0.367039 119.75 0.268115 120.087 0.278007C120.881 0.301914 121.677 0.292846 122.472 0.281305C122.708 0.278007 122.84 0.33901 122.928 0.578902C124.776 5.60343 126.632 10.6238 128.487 15.6459C128.505 15.6945 128.512 15.7481 128.529 15.8239H126.234C125.797 14.6006 125.343 13.3714 124.926 12.13C124.819 11.8093 124.671 11.7235 124.344 11.726C122.247 11.7417 120.148 11.7417 118.05 11.726C117.733 11.7235 117.6 11.8274 117.503 12.1209C117.124 13.261 116.71 14.3895 116.323 15.5272C116.246 15.7522 116.157 15.8594 115.896 15.8511C115.243 15.8297 114.588 15.8437 113.888 15.8437V15.8446ZM118.429 9.581H124.013C123.082 7.02876 122.165 4.51526 121.209 1.89212C120.255 4.5301 119.347 7.04195 118.429 9.581Z" fill="#ACB4C0"/>
<path d="M58.7695 15.8458C59.1128 14.906 59.4355 14.0091 59.7665 13.1155C61.2911 8.992 62.8231 4.87181 64.3346 0.743374C64.4646 0.388895 64.6211 0.260294 65.003 0.276781C65.7966 0.31058 66.5935 0.275133 67.3879 0.298215C67.5229 0.302337 67.7312 0.424343 67.7748 0.540579C69.6518 5.58159 71.514 10.6284 73.3769 15.6752C73.3901 15.7114 73.3868 15.7535 73.3942 15.8194H71.1139C70.6784 14.6035 70.2256 13.376 69.8049 12.1378C69.6996 11.8278 69.567 11.7223 69.232 11.7248C67.1344 11.7429 65.0368 11.7413 62.9392 11.7256C62.6264 11.7231 62.484 11.813 62.3852 12.1106C62.0073 13.2507 61.5957 14.3801 61.2104 15.5177C61.1289 15.7584 61.0186 15.8615 60.7469 15.8516C60.1056 15.8293 59.4635 15.8442 58.7704 15.8442L58.7695 15.8458ZM66.0897 1.89172C65.1405 4.51568 64.2292 7.0366 63.3047 9.59132H68.8953C67.9675 7.04484 67.0496 4.52475 66.0897 1.89172Z" fill="#ACB4C0"/>
<path d="M182.191 15.8453C181.474 15.8453 180.789 15.8584 180.105 15.8321C179.999 15.8279 179.849 15.6639 179.805 15.5427C179.383 14.4026 178.968 13.2609 178.58 12.1092C178.478 11.8075 178.332 11.7259 178.025 11.7275C175.927 11.7415 173.83 11.7448 171.732 11.7251C171.391 11.7218 171.263 11.838 171.162 12.1438C170.793 13.2584 170.386 14.3606 170.011 15.4726C169.92 15.7397 169.809 15.8692 169.496 15.8543C168.868 15.8246 168.238 15.8453 167.553 15.8453C167.803 15.1684 168.038 14.5312 168.273 13.8948C169.9 9.48855 171.528 5.08395 173.147 0.675225C173.25 0.39494 173.377 0.267987 173.7 0.277879C174.521 0.304259 175.345 0.294367 176.167 0.282001C176.394 0.278704 176.509 0.350424 176.588 0.565584C178.442 5.60083 180.303 10.6336 182.161 15.6672C182.174 15.7035 182.174 15.7455 182.191 15.8453ZM177.685 9.59901C176.748 7.03111 175.834 4.52338 174.918 2.01482C174.886 2.01977 174.855 2.02472 174.823 2.02966C173.915 4.54234 173.008 7.05501 172.09 9.59901H177.685Z" fill="#ACB4C0"/>
<path d="M132.202 0.324656C132.274 0.312291 132.339 0.290033 132.405 0.290033C134.79 0.298277 137.178 0.248815 139.56 0.334549C142.277 0.432649 144.362 2.70131 144.349 5.40112C144.336 8.10257 142.221 10.3168 139.495 10.4149C137.92 10.4718 136.342 10.4347 134.766 10.4397C134.643 10.4397 134.52 10.4397 134.337 10.4397V15.8236H132.201V0.324656H132.202ZM134.36 2.45647C134.351 2.48697 134.328 2.5249 134.328 2.56282C134.324 4.39539 134.327 6.22878 134.319 8.06135C134.318 8.3301 134.472 8.33339 134.665 8.33257C136.118 8.3301 137.572 8.33916 139.025 8.32762C139.914 8.32103 140.748 8.10999 141.392 7.45709C142.259 6.57749 142.404 5.50416 142.047 4.37643C141.685 3.23303 140.815 2.5455 139.652 2.4812C137.905 2.38393 136.149 2.45565 134.36 2.45565V2.45647Z" fill="#ACB4C0"/>
<path d="M166.947 0.3125V2.39485H161.853V15.8205H159.73V2.41546H154.628V0.3125H166.946H166.947Z" fill="#ACB4C0"/>
<path d="M79.4295 13.7209H88.6612V15.8124H77.3467V0.318359H79.4295V13.7209Z" fill="#ACB4C0"/>
<path d="M188.229 0.314453V13.703H197.446V15.8093H186.111V0.314453H188.229Z" fill="#ACB4C0"/>
<path d="M52.7744 0.3125H54.8704V15.8139H52.7744V0.3125Z" fill="#ACB4C0"/>
<path d="M150.579 15.8348H148.49V0.314453H150.579V15.8348Z" fill="#ACB4C0"/>
<path d="M211.13 20.0009H199.806V17.9375H211.13V20.0009Z" fill="#ACB4C0"/>
</g>
<defs>
<clipPath id="clip0_2707_6450">
<rect width="210.638" height="20" fill="white" transform="translate(0.491211)"/>
</clipPath>
</defs>
</svg>
