<svg width="113" height="32" viewBox="0 0 113 32" fill="none" xmlns="http://www.w3.org/2000/svg">
<path d="M51.2869 20.7542C51.1001 20.9873 50.9277 21.2321 50.7264 21.4508C49.6473 22.6139 48.2815 23.0455 46.7361 22.9369C44.7663 22.7993 43.247 21.9071 42.2867 20.1502C41.8174 19.2927 41.5611 18.3614 41.4713 17.3939C41.2728 15.2214 41.5306 13.1386 42.908 11.3498C44.1522 9.73491 45.8555 9.17004 47.8412 9.38585C49.2954 9.54517 50.4179 10.2679 51.2782 11.5512C51.2782 11.1297 51.2883 10.7937 51.2768 10.4577C51.2376 9.42206 51.1218 9.55821 52.1443 9.54662C52.4224 9.54373 52.6991 9.54662 52.9772 9.54662C53.4184 9.54662 53.6376 9.77305 53.6347 10.2259C53.6188 12.6751 53.5956 15.1258 53.5884 17.575C53.584 19.1189 53.6101 20.6644 53.6072 22.2083C53.6043 23.1918 53.471 24.1578 53.0727 25.0689C52.3964 26.6201 51.1913 27.563 49.5662 27.9251C47.9035 28.2958 46.2335 28.2843 44.6142 27.6774C43.0268 27.0821 42.0723 25.9422 41.8029 24.2534C41.7334 23.8189 41.7827 23.7624 42.2085 23.7624C42.74 23.7624 43.2701 23.7682 43.8017 23.7595C44.0175 23.7552 44.1406 23.8262 44.1797 24.0492C44.4013 25.2847 45.1762 25.9842 46.3595 26.2797C47.1692 26.4825 47.9832 26.5028 48.7942 26.2898C49.9211 25.9958 50.6583 25.2803 51.0508 24.1911C51.4535 23.073 51.3825 21.9186 51.2854 20.7542H51.2869ZM51.3854 16.2555C51.3579 15.1011 51.2434 13.9526 50.6931 12.8982C50.0326 11.6352 48.9796 11.0051 47.5559 11.0327C46.1756 11.0587 45.0907 11.641 44.4969 12.9097C43.5786 14.8723 43.5888 16.9087 44.271 18.9321C44.733 20.3008 45.7382 21.054 47.188 21.2292C48.8464 21.4291 50.2021 20.6846 50.8683 19.1653C51.2739 18.2412 51.3593 17.2592 51.3868 16.2569L51.3854 16.2555Z" fill="#ACB4C0"/>
<path d="M4.99196 32.0005C4.98327 31.8817 4.96878 31.7774 4.96878 31.6717C4.96733 30.4044 4.97313 29.137 4.96299 27.8697C4.96009 27.6018 5.01948 27.4902 5.31929 27.4902C12.693 27.4975 20.0666 27.496 27.4389 27.4975C27.5214 27.4975 27.604 27.5105 27.7097 27.5206V32.0005H4.99196Z" fill="#ACB4C0"/>
<path d="M65.1705 11.4346C65.1705 10.8944 65.1836 10.4005 65.1648 9.90803C65.1546 9.63719 65.2545 9.53725 65.5167 9.54159C66.0598 9.55028 66.603 9.56042 67.1447 9.5387C67.485 9.52566 67.5835 9.66036 67.5777 9.9848C67.5444 11.8184 67.5068 13.6506 67.5082 15.4843C67.5097 17.764 67.5473 20.0438 67.5734 22.3235C67.5821 23.0303 67.5893 23.0303 66.9014 23.0318C66.4668 23.0318 66.0323 23.0173 65.5993 23.0376C65.2748 23.0535 65.1778 22.9202 65.1879 22.6117C65.2053 22.0889 65.1923 21.5646 65.1923 20.9896C64.9359 21.2981 64.7273 21.5892 64.4797 21.8412C62.1782 24.1673 58.1184 23.6401 56.4368 20.7984C55.4592 19.1458 55.2217 17.3368 55.3607 15.4626C55.4563 14.1735 55.7793 12.9409 56.4759 11.8344C57.6535 9.96452 59.3481 9.12736 61.5525 9.31999C63.0356 9.4489 64.2117 10.105 65.0547 11.3419C65.0721 11.368 65.1054 11.3854 65.1691 11.4361L65.1705 11.4346ZM57.7679 16.1896C57.7679 17.3208 57.8968 18.4303 58.3719 19.4702C58.9194 20.668 59.8231 21.411 61.1672 21.5139C62.591 21.6225 63.7482 21.1503 64.5086 19.883C64.9924 19.0777 65.1749 18.1841 65.2517 17.2643C65.3777 15.7566 65.298 14.2705 64.597 12.8902C63.964 11.6461 62.9314 11.0233 61.5351 11.0291C60.1215 11.0363 59.0627 11.6417 58.4139 12.9236C57.8939 13.9519 57.7722 15.0585 57.7679 16.1882V16.1896Z" fill="#ACB4C0"/>
<path d="M83.7947 11.4423C83.7947 10.8876 83.8063 10.3966 83.7903 9.90706C83.7817 9.642 83.8772 9.53627 84.1437 9.54062C84.6985 9.55075 85.2532 9.55365 85.8079 9.54062C86.1092 9.53337 86.2019 9.65069 86.199 9.94906C86.1671 12.4823 86.1353 15.0155 86.1309 17.5487C86.128 19.2245 86.1628 20.9017 86.2004 22.5774C86.2077 22.9265 86.1034 23.0569 85.7485 23.0395C85.2793 23.0163 84.8071 23.0351 84.3378 23.0337C83.8077 23.0337 83.8077 23.0279 83.8135 22.5123C83.8179 22.0242 83.8135 21.5375 83.8135 20.9944C83.5716 21.2869 83.379 21.5578 83.1487 21.7924C81.7119 23.2538 79.9608 23.571 78.0475 23.0844C76.2356 22.6238 75.1102 21.3594 74.5164 19.6546C73.6503 17.1649 73.6792 14.6722 74.8582 12.2737C76.2791 9.3813 79.2946 8.72953 81.7206 9.69849C82.4187 9.97658 82.791 10.3025 83.7932 11.4452L83.7947 11.4423ZM76.392 16.1394C76.3949 17.343 76.5224 18.5249 77.0699 19.6199C77.7303 20.9379 78.8065 21.5737 80.2824 21.5259C81.7279 21.4796 82.7432 20.7844 83.3413 19.4794C83.8251 18.4264 83.9308 17.2996 83.9164 16.1597C83.9019 15.043 83.7628 13.9451 83.2501 12.9313C82.6432 11.732 81.6699 11.0701 80.3171 11.031C78.8832 10.9904 77.7637 11.5423 77.0757 12.8473C76.5325 13.8785 76.3891 14.9938 76.3906 16.1394H76.392Z" fill="#ACB4C0"/>
<path d="M4.92781 27.3803C-1.04094 21.7041 -1.54643 11.1687 4.92781 4.78711V27.3803Z" fill="#ACB4C0"/>
<path d="M5.04102 4.67494C11.2039 -1.62404 21.6684 -1.49224 27.6617 4.67494H5.04102Z" fill="#ACB4C0"/>
<path d="M27.7656 4.79297C33.856 10.5937 34.1573 21.1973 27.7656 27.4151V4.79297Z" fill="#ACB4C0"/>
<path d="M99.8555 9.54418C100.103 9.54418 100.267 9.54418 100.432 9.54418C100.975 9.54418 101.518 9.56445 102.06 9.53838C102.396 9.52245 102.557 9.6557 102.671 9.96131C103.64 12.5553 104.621 15.1465 105.597 17.7376C105.817 18.3242 106.034 18.9123 106.256 19.4974C106.292 19.5945 106.347 19.6857 106.437 19.8653C106.598 19.383 106.738 18.9818 106.867 18.5777C107.785 15.6983 108.708 12.8204 109.613 9.93669C109.707 9.63832 109.852 9.52969 110.152 9.53838C110.695 9.55431 111.238 9.54128 111.781 9.54562C111.886 9.54562 111.991 9.56445 112.159 9.58039C112.088 9.82226 112.039 10.0279 111.971 10.2249C110.972 13.0898 109.969 15.9547 108.97 18.8196C108.005 21.5816 107.038 24.3437 106.079 27.1086C105.986 27.378 105.837 27.4924 105.548 27.4809C105.09 27.4635 104.631 27.478 104.172 27.4765C103.698 27.4765 103.675 27.4475 103.827 27.0058C104.234 25.821 104.639 24.6362 105.061 23.4558C105.159 23.1792 105.162 22.9402 105.051 22.6607C103.387 18.5009 101.733 14.3354 100.079 10.1713C100.006 9.98883 99.9482 9.80054 99.8584 9.54128L99.8555 9.54418Z" fill="#ACB4C0"/>
<path d="M87.7537 9.56889C87.9391 9.55875 88.0521 9.54571 88.1665 9.54571C88.7705 9.54571 89.373 9.56309 89.9755 9.53992C90.3014 9.52688 90.481 9.66303 90.6403 9.92663C91.5296 11.3895 92.4305 12.8451 93.3271 14.3036C93.3821 14.3934 93.4429 14.4803 93.54 14.6266C93.7572 14.2703 93.9499 13.9575 94.1367 13.6432C94.8826 12.3903 95.6314 11.1389 96.3701 9.88174C96.5077 9.6471 96.6772 9.53847 96.9524 9.54281C97.5867 9.5544 98.2211 9.54716 98.9308 9.54716C98.8338 9.74704 98.7831 9.87739 98.7107 9.99471C97.5361 11.8892 96.3629 13.7851 95.1781 15.6738C95.0449 15.8867 95.0463 16.0344 95.1825 16.2502C96.5294 18.3794 97.8619 20.5157 99.1988 22.6521C99.2553 22.7419 99.2973 22.8404 99.3625 22.9678C99.2524 22.9968 99.1771 23.033 99.1003 23.033C98.4123 23.0373 97.7243 23.0286 97.0378 23.0402C96.7583 23.0446 96.6337 22.8737 96.5106 22.6709C95.4938 21.0038 94.4756 19.3382 93.4574 17.6711C93.414 17.6001 93.3647 17.5321 93.2865 17.4147C93.1967 17.5436 93.12 17.6421 93.0548 17.7479C92.0409 19.4019 91.0227 21.0545 90.019 22.7143C89.8741 22.9533 89.7018 23.046 89.4324 23.0402C88.8777 23.0286 88.3229 23.0373 87.7682 23.0359C87.6654 23.0359 87.5625 23.02 87.3945 23.0069C87.4756 22.8432 87.5205 22.7245 87.5872 22.6202C88.9371 20.465 90.2869 18.3098 91.6455 16.1604C91.7744 15.9562 91.7715 15.8085 91.6397 15.6072C90.4158 13.7417 89.2021 11.8704 87.9884 10.0005C87.9131 9.88463 87.8566 9.75717 87.7566 9.57323L87.7537 9.56889Z" fill="#ACB4C0"/>
<path d="M69.8536 13.8596C69.8536 11.0006 69.8536 8.14146 69.8536 5.28236C69.8536 4.89999 70.0448 4.70881 70.4272 4.70881C70.8863 4.70881 71.3455 4.72764 71.8017 4.70301C72.1319 4.68563 72.2478 4.78847 72.2435 5.12884C72.2159 6.93786 72.1971 8.74833 72.1957 10.5573C72.1928 13.512 72.2029 16.4682 72.2116 19.4229C72.2145 20.4845 72.2188 21.5462 72.242 22.6078C72.2493 22.9482 72.1204 23.0525 71.7945 23.038C71.3006 23.0163 70.8038 23.0134 70.3113 23.038C69.9637 23.0539 69.8421 22.9294 69.8479 22.5832C69.8725 21.0146 69.8841 19.446 69.8913 17.8789C69.8971 16.5391 69.8913 15.2008 69.8913 13.8611C69.8783 13.8611 69.8652 13.8611 69.8507 13.8611L69.8536 13.8596Z" fill="#ACB4C0"/>
</svg>
