<svg width="166" height="24" viewBox="0 0 166 24" fill="none" xmlns="http://www.w3.org/2000/svg">
<g clip-path="url(#clip0_2707_6569)">
<path d="M33.0102 9.62424C27.4539 14.4558 22.0115 19.183 16.4696 24.0024C10.9812 19.1952 5.58236 14.4679 0.0429688 9.61939C3.76903 6.36848 7.42964 3.17576 11.0708 0H21.9581C25.5824 3.15636 29.226 6.3297 33.0078 9.62424H33.0102ZM18.5011 7.2C18.8284 7.93939 19.2333 7.66061 19.6357 7.45455C20.746 6.8897 21.8612 6.33455 22.9715 5.76727C23.2745 5.61212 23.5605 5.42061 23.8951 5.22424C23.1702 3.98545 22.5108 2.85576 21.7593 1.56848C20.6127 3.54667 19.5702 5.35273 18.5011 7.19758V7.2ZM14.3605 11.583C12.4745 12.0945 10.8745 13.0303 9.11691 13.92C9.84418 15.1758 10.4963 16.303 11.2915 17.68C12.3896 15.4861 13.7593 13.7721 14.3605 11.583ZM9.3157 4.89455C10.7824 6.00242 13.5727 7.45212 14.5715 7.57091C13.6963 5.45455 12.4502 3.67515 11.2745 1.5903C10.5618 2.79273 9.9557 3.81576 9.3157 4.89455ZM21.7399 17.7042C22.5133 16.3564 23.1193 15.3018 23.7715 14.1648C22.0163 13.2097 20.4187 12.3418 18.8187 11.4715C18.6757 11.697 18.5351 11.8376 18.5618 11.8885C19.5654 13.7479 20.5836 15.6 21.7399 17.7042ZM12.2248 1.12485C13.323 3.02303 14.3363 4.78545 15.3739 6.53333C15.4393 6.64485 15.7108 6.63515 15.9581 6.70061V1.12485H12.2248ZM12.4018 18.0533H15.9193C16.1908 16.3006 16.1108 13.2848 15.7933 12.5261C15.1193 12.9091 12.9787 16.3879 12.4018 18.0533ZM17.1193 1.1297V6.70545C17.929 6.27151 20.1496 2.66424 20.6102 1.1297H17.1193ZM20.6442 18.0679C19.8612 15.9612 17.8781 12.8412 17.1024 12.5406V18.0679H20.6442ZM24.2733 13.28C24.8939 12.223 25.5315 11.2848 26.0018 10.1842C23.243 9.88848 20.1278 10.0121 19.3084 10.5261C20.9908 11.4594 22.5884 12.3467 24.2733 13.28ZM13.8539 8.72485C12.0284 7.72364 10.409 6.83636 8.72903 5.91515C8.11327 7.01576 7.57751 7.97333 7.01267 8.98424C8.96418 9.27515 12.8018 9.17818 13.8539 8.72485ZM8.7266 15.8739C8.79933 15.8158 8.86963 15.7576 8.94236 15.6994C7.85388 13.8182 6.76782 11.937 5.74479 10.1673H2.60782L2.506 10.3782C4.58115 12.2109 6.65388 14.0412 8.72903 15.8739H8.7266ZM27.3157 10.1212C26.7436 11.1079 26.2078 12.0048 25.6987 12.9164C25.2163 13.7818 24.6345 14.6036 24.3824 15.5976C26.5012 13.8691 28.6272 12.2061 30.6927 10.1212H27.3157ZM13.7521 10.4024C12.5642 9.98788 8.17873 9.97576 7.04418 10.3248C7.56297 11.2218 8.06479 12.0945 8.59085 13.0036C10.3484 12.1188 11.9436 11.3139 13.7521 10.4024ZM30.4115 9.07879C30.4478 8.99152 30.4842 8.90424 30.5205 8.81697L24.4721 3.55879C24.3945 3.61697 24.3193 3.67515 24.2418 3.73333C25.2672 5.52242 26.2902 7.30909 27.306 9.08121H30.4115V9.07879ZM24.4502 6.19636C22.6975 7.07879 21.0781 7.89576 19.3084 8.78788C20.3436 9.17333 24.523 9.24364 26.0284 8.95515C25.5169 8.06061 25.0272 7.20242 24.4502 6.19394V6.19636ZM8.80661 3.72606C8.72903 3.66061 8.65145 3.59515 8.5763 3.5297C6.54721 5.30909 4.51812 7.08849 2.48903 8.86788C2.53509 8.92849 2.58115 8.98909 2.62964 9.05212H5.74236C6.77994 7.25091 7.7957 5.48848 8.80903 3.72848L8.80661 3.72606ZM15.9678 22.1382V19.2703C14.8939 19.2655 13.9024 19.1103 12.7218 19.3842C13.8418 20.3345 14.8018 21.1491 15.9678 22.1382ZM17.1048 19.3018V22.0097C18.2248 21.0715 19.1751 20.2715 20.1278 19.4739C20.0866 19.3939 20.0454 19.3164 20.0042 19.2364C19.3254 19.2364 18.6466 19.2315 17.9678 19.2388C17.6963 19.2412 17.4248 19.2776 17.1048 19.3042V19.3018Z" fill="#ACB4C0"/>
<path d="M65.8978 20.0683C65.5269 20.0925 65.1729 20.1313 64.819 20.1361C64.019 20.1458 63.219 20.1386 62.3875 20.1386C62.2687 19.6852 62.1814 19.3531 62.0675 18.9192C59.7717 20.5701 57.2869 20.8004 54.6905 20.0271C52.0238 19.2319 50.1426 17.4889 49.3911 14.8368C48.3972 11.3192 48.8554 8.03191 51.7281 5.4113C53.1632 4.10221 54.9087 3.54464 56.7972 3.38221C58.7123 3.21736 60.4529 3.76767 62.0893 4.90706C62.179 4.49979 62.2444 4.19676 62.3269 3.82342H65.8978V20.0658V20.0683ZM62.1717 11.901C62.1717 11.6586 62.1838 11.4162 62.1717 11.1762C62.0384 9.0307 60.516 7.23676 58.5523 6.90706C56.0335 6.48282 53.9026 7.48645 53.0832 9.62464C52.7754 10.4246 52.6638 11.3483 52.6687 12.2137C52.6857 15.4501 55.3547 17.8865 59.2457 16.6646C61.2166 16.0465 62.2154 14.2913 62.1741 11.901H62.1717Z" fill="#ACB4C0"/>
<path d="M165.602 13.3115H152.887C152.797 14.6691 153.689 16.0606 155.107 16.6521C157.318 17.5733 159.362 17.3333 161.044 15.5466H164.933C164.339 18.9648 159.806 21.0933 155.127 20.2084C150.618 19.3551 147.806 14.5721 149.023 9.61451C150.167 4.95027 154.593 2.49451 159.607 3.65087C164.404 4.75633 166.516 9.583 165.602 13.3163V13.3115ZM161.704 10.0581C161.224 7.84966 159.333 6.52118 156.945 6.66178C154.833 6.783 153.095 8.23997 152.923 10.0581H161.704Z" fill="#ACB4C0"/>
<path d="M92.8189 13.3263H79.7643C80.1377 15.1614 81.0783 16.3129 82.6225 16.8317C84.688 17.5275 86.6055 17.2147 88.1474 15.5275H92.1595C91.8637 16.7372 91.2358 17.6414 90.3655 18.3614C88.1498 20.199 85.5971 20.6838 82.7752 20.2935C79.7765 19.879 76.7849 17.5711 76.1255 14.1238C75.3328 9.96383 76.4601 6.41716 80.0649 4.44868C84.3874 2.08504 90.6225 3.5105 92.4698 8.88504C92.9377 10.2499 92.9765 11.639 92.8189 13.3263ZM88.8043 10.0753C88.2977 7.82807 86.4795 6.55534 84.0892 6.66201C81.9801 6.75656 80.2637 8.17474 80.0116 10.0753H88.8043Z" fill="#ACB4C0"/>
<path d="M132.648 11.9217C132.639 16.9375 129.121 20.4478 124.11 20.4429C119.097 20.4357 115.56 16.8914 115.584 11.8999C115.608 6.9084 119.157 3.35689 124.132 3.34961C129.073 3.34477 132.658 6.95204 132.648 11.9217ZM128.84 11.8854C128.84 11.6842 128.847 11.4829 128.84 11.2817C128.745 9.18234 127.366 7.33749 125.427 6.96416C123.271 6.55204 121.281 6.97386 120.033 8.98113C119.414 9.97507 119.284 11.0733 119.303 12.2272C119.349 15.3133 121.909 17.9314 125.916 16.6636C127.873 16.0454 128.869 14.2805 128.845 11.8854H128.84Z" fill="#ACB4C0"/>
<path d="M137.249 20.0602H133.574V3.84447C134.718 3.65538 135.906 3.76205 137.138 3.77175C137.213 4.0869 137.274 4.34872 137.354 4.68569C137.569 4.57902 137.785 4.50387 137.965 4.37781C140.687 2.45781 145.293 3.22387 147.07 6.83114C147.504 7.71356 147.817 8.74629 147.843 9.71841C147.935 13.1051 147.88 16.4942 147.88 19.9972C146.621 20.2493 145.409 20.1499 144.112 20.0505C144.112 17.7742 144.112 15.5972 144.112 13.4202C144.112 12.4117 144.12 11.4008 144.112 10.3924C144.091 8.15235 142.852 6.86508 140.721 6.85538C138.52 6.84569 137.269 8.12811 137.257 10.4408C137.242 13.1875 137.254 15.9317 137.254 18.6784C137.254 19.1124 137.254 19.5463 137.254 20.0627L137.249 20.0602Z" fill="#ACB4C0"/>
<path d="M104.317 8.51954H100.763C100.679 8.30621 100.586 8.08803 100.502 7.86985C100.06 6.71591 98.8192 6.23348 97.7428 6.79591C96.7804 7.30015 96.6349 8.72803 97.5464 9.45045C98.0386 9.84076 98.664 10.0783 99.2555 10.3208C100.036 10.6408 100.858 10.8662 101.639 11.1862C103.588 11.9886 104.458 13.5208 104.434 15.5741C104.409 17.6759 103.26 19.3098 101.275 19.9983C99.0034 20.7862 96.8095 20.6505 94.8822 19.0771C93.7283 18.1365 93.2046 16.8614 93.207 15.2856H96.7998C96.8943 15.5765 96.9646 15.8892 97.0931 16.1753C97.5949 17.2783 99.3113 17.5959 100.191 16.7595C100.96 16.0298 100.877 14.7474 99.9295 14.1486C99.2919 13.7462 98.5428 13.5183 97.8422 13.2202C97.0664 12.8905 96.2252 12.6698 95.5198 12.2262C93.7816 11.1377 93.2749 9.43106 93.5367 7.49651C93.8155 5.43591 95.1004 4.16318 97.0446 3.6056C98.647 3.145 100.262 3.27833 101.743 4.07833C103.428 4.98985 104.373 6.39348 104.322 8.52197L104.317 8.51954Z" fill="#ACB4C0"/>
<path d="M106.52 7.1928C105.858 7.15401 105.378 7.12734 104.808 7.09583C104.583 6.03643 104.677 4.97946 104.779 3.86431C105.337 3.78916 105.844 3.72128 106.501 3.63158V0.00976562H110.132V3.68007H115.138V7.14189H110.28C110.224 7.45461 110.159 7.64613 110.159 7.83764C110.151 9.93461 110.113 12.034 110.178 14.131C110.197 14.7395 110.428 15.3964 110.738 15.9273C111.082 16.514 111.759 16.6595 112.44 16.6546C113.32 16.6449 114.197 16.6546 115.157 16.6546V19.9613C114.867 20.0098 114.566 20.1019 114.263 20.0995C113.296 20.0946 112.326 20.0922 111.361 20.0219C108.319 19.8013 106.593 17.9879 106.532 14.9189C106.491 12.8219 106.52 10.7225 106.517 8.62552C106.517 8.18916 106.517 7.7528 106.517 7.19522L106.52 7.1928Z" fill="#ACB4C0"/>
<path d="M49.1259 7.5727C47.538 8.23694 45.9089 8.91815 44.1683 9.64542V20.0648H40.4883V3.85876H44.0883C44.1319 4.45512 44.1756 5.04421 44.2313 5.81027C45.8798 5.12421 47.4459 4.46967 49.1259 3.77148V7.5727Z" fill="#ACB4C0"/>
<path d="M76.0895 3.75977V7.56583C74.4701 8.23977 72.8386 8.92098 71.0907 9.64825V20.0628H67.418V3.84704H70.9889C71.0471 4.4337 71.1052 5.05189 71.1804 5.81795C72.8458 5.11977 74.4216 4.45795 76.0919 3.75977H76.0895Z" fill="#ACB4C0"/>
</g>
<defs>
<clipPath id="clip0_2707_6569">
<rect width="165.767" height="24" fill="white" transform="translate(0.0429688)"/>
</clipPath>
</defs>
</svg>
