<svg width="237" height="32" viewBox="0 0 237 32" fill="none" xmlns="http://www.w3.org/2000/svg">
<g clip-path="url(#clip0_2707_6304)">
<path d="M131.861 10.4815H128.957C128.212 9.44334 127.568 8.32171 126.715 7.3968C123.045 3.41702 117.744 2.1687 112.916 4.21833C108.034 6.28959 105.094 11.0532 105.182 16.2246C105.285 22.2994 109.181 27.2957 114.964 28.611C120.638 29.9016 126.257 26.9785 128.742 21.7957C129.342 20.5443 129.66 19.1559 130.162 17.6686C129.528 17.6202 129.146 17.5677 128.764 17.5667C125.354 17.5605 121.943 17.5636 118.533 17.5626C118.214 17.5626 117.892 17.5863 117.579 17.5451C116.687 17.4287 116.173 16.8364 116.193 15.9867C116.211 15.2287 116.742 14.6416 117.537 14.5211C117.715 14.4943 117.899 14.5025 118.082 14.5025C122.811 14.5025 127.54 14.5015 132.27 14.5056C132.488 14.5056 132.706 14.5509 133.039 14.587C133.281 17.0692 132.92 19.4196 132.074 21.7082C129.791 27.8838 124.038 32.0047 117.713 32.0017C110.921 31.9986 104.847 27.4049 102.895 20.7946C100.45 12.5126 104.529 3.98659 112.551 0.958488C116.919 -0.690487 121.237 -0.156965 125.265 2.16973C128.346 3.94951 130.524 6.57489 131.805 9.9264C131.854 10.0531 131.913 10.1777 131.952 10.3075C131.961 10.3384 131.914 10.3868 131.863 10.4836L131.861 10.4815Z" fill="#ACB4C0"/>
<path d="M124.406 21.123C121.391 24.9092 115.102 25.2717 111.484 21.4444C108.152 17.9178 108.301 12.5125 111.919 9.22279C115.891 5.61173 121.698 6.62624 124.176 9.81193C123.768 9.83768 123.435 9.87681 123.102 9.87784C121.33 9.88402 119.557 9.82635 117.788 9.89329C113.879 10.0426 111.335 13.4992 112.387 17.1649C113.028 19.3968 115.253 21.0581 117.715 21.1168C118.804 21.1426 119.896 21.122 120.986 21.122C122.074 21.122 123.163 21.122 124.408 21.122L124.406 21.123Z" fill="#ACB4C0"/>
<path d="M40.8501 21.2476C39.438 21.6874 38.6581 21.1148 37.8998 20.0858C36.0655 17.5954 34.1061 15.1986 32.1959 12.7648C32.0658 12.599 31.9264 12.4425 31.5739 12.0222V21.2693H29.3389V8.24329C30.5194 7.94666 31.4909 8.0167 32.3404 9.21146C33.9473 11.4712 35.7129 13.6187 37.4182 15.8074C37.6846 16.1503 37.9818 16.4696 38.4706 17.0382V8.22784H40.8522V21.2476H40.8501Z" fill="#ACB4C0"/>
<path d="M59.1851 16.8654V21.455H56.9111V8.20138C59.3142 8.20138 61.6702 8.08396 64.0087 8.2364C66.0695 8.37132 67.3556 9.65878 67.6825 11.4746C68.0586 13.5623 67.3423 15.0383 65.4249 16.1198C65.1903 16.2526 64.9515 16.3783 64.6799 16.5276C65.8215 18.1375 66.9385 19.7133 68.2256 21.5281C67.2951 21.5281 66.5829 21.6002 65.8963 21.4972C65.5602 21.4467 65.1995 21.1285 64.975 20.8349C64.2034 19.8235 63.444 18.7977 62.7656 17.7224C62.3496 17.0622 61.8669 16.7738 61.0942 16.8531C60.5122 16.9128 59.9178 16.8654 59.1851 16.8654ZM59.2671 10.1233V14.5027C60.6659 14.5027 62.0124 14.5686 63.3477 14.4821C64.4452 14.411 65.2056 13.5562 65.2794 12.5499C65.3614 11.4293 64.7486 10.5415 63.5189 10.3715C62.1528 10.183 60.7581 10.2005 59.2671 10.1233Z" fill="#ACB4C0"/>
<path d="M10.7248 15.9353H7.32868V14.0257H13.2088C13.2088 15.7602 13.2191 17.5183 13.1934 19.2755C13.1904 19.4598 13.0069 19.6895 12.844 19.8172C10.197 21.8957 6.3695 22.4241 3.38639 20.221C1.19441 18.6029 0.257767 15.2153 1.21183 12.455C2.2243 9.52994 4.83439 7.74398 7.89948 7.84594C9.7082 7.90568 11.3837 8.32488 12.7333 9.74932C12.2517 10.3076 11.7854 10.8483 11.3017 11.4107C10.1386 10.5651 8.96934 10.048 7.58077 10.082C5.06804 10.1438 3.2378 12.0328 3.20296 14.6777C3.16709 17.3999 4.98401 19.4155 7.52953 19.4743C7.71092 19.4784 7.89333 19.467 8.07471 19.4578C10.6428 19.3301 11.2003 18.6122 10.7248 15.9353Z" fill="#ACB4C0"/>
<path d="M25.2953 13.5991V15.7105H18.7347V19.198H26.2176V21.2754H16.4023V8.20312H26.1079V10.1395H18.7419V13.5991H25.2953Z" fill="#ACB4C0"/>
<path d="M53.7142 8.18164V10.189H46.3482V13.6168H52.8309V15.7055H46.3656V19.2579H53.8259V21.3147H43.9502V8.18164H53.7132H53.7142Z" fill="#ACB4C0"/>
<path d="M213.14 19.3735C213.578 18.8761 214.021 18.3734 214.388 17.9563C215.494 18.4414 216.47 19.0563 217.529 19.2788C218.459 19.4745 219.497 19.3241 220.457 19.1531C221.101 19.0388 221.529 18.4806 221.559 17.7586C221.588 17.0571 221.137 16.6658 220.553 16.4484C219.748 16.1497 218.924 15.9056 218.106 15.6482C217.331 15.4041 216.538 15.2094 215.776 14.9292C212.833 13.8467 213.212 10.2377 214.979 8.9266C216.502 7.7957 218.199 7.76583 219.927 8.00478C221.19 8.17988 222.383 8.63409 223.477 9.61771C223.069 10.1615 222.652 10.7198 222.368 11.0978C221.047 10.7208 219.904 10.3078 218.727 10.0946C218.148 9.98953 217.498 10.2326 216.889 10.3603C216.271 10.4891 215.88 10.9865 215.958 11.5355C216.024 12.0062 216.376 12.548 216.765 12.8302C217.222 13.1608 217.849 13.2658 218.414 13.4317C219.416 13.7262 220.447 13.9322 221.428 14.2824C223.094 14.8777 223.963 16.1024 223.941 17.6556C223.917 19.2767 222.988 20.5467 221.378 21.1554C218.72 22.1606 215.038 21.384 213.14 19.3735Z" fill="#ACB4C0"/>
<path d="M167.624 21.2407C167.439 21.3262 167.399 21.3592 167.357 21.3623C165.962 21.4673 165.013 20.8881 164.509 19.6247C164.141 18.6998 163.465 18.237 162.482 18.2363C161.345 18.2363 160.198 18.3311 159.074 18.2095C157.942 18.087 157.406 18.5484 157.101 19.5722C156.922 20.1747 156.592 20.733 156.313 21.3489H153.85C155.792 16.8757 157.7 12.4819 159.584 8.14061C161.734 7.97684 161.765 7.96345 162.591 9.81121C164.276 13.584 165.923 17.3732 167.624 21.2407ZM160.866 11.1337C160.768 11.1316 160.669 11.1285 160.571 11.1265C159.883 12.7528 159.195 14.3781 158.482 16.0652H162.96C162.234 14.3564 161.551 12.7446 160.866 11.1337Z" fill="#ACB4C0"/>
<path d="M178.663 21.3445H176.329C178.259 16.8693 180.144 12.4991 182.017 8.15677C184.196 7.94357 184.188 7.94769 185.042 9.88712C186.578 13.3746 188.127 16.8579 189.668 20.3433C189.794 20.6276 189.898 20.9222 190.055 21.3197H187.611C187.289 20.574 186.904 19.7624 186.59 18.924C186.401 18.4194 186.115 18.2206 185.581 18.2288C183.992 18.2525 182.402 18.2504 180.813 18.2288C180.298 18.2226 179.98 18.3699 179.776 18.889C179.447 19.7295 179.034 20.5359 178.663 21.3434V21.3445ZM185.398 16.0927C184.644 14.3098 183.95 12.6691 183.16 10.8017C182.37 12.668 181.663 14.3376 180.919 16.0927H185.398Z" fill="#ACB4C0"/>
<path d="M74.9656 7.97461H77.1616C79.0974 12.3705 81.0455 16.7932 83.01 21.254C81.4271 21.4304 80.3729 20.8382 79.8476 19.4773C79.6836 19.0539 79.4828 18.644 79.2798 18.1867H72.9181C72.4549 19.193 71.9671 20.2497 71.4793 21.3106H69.1377C71.1042 16.8097 73.0277 12.4096 74.9656 7.97564V7.97461ZM78.3114 16.0743C77.5757 14.3532 76.8768 12.7197 76.0569 10.8008C75.2341 12.7433 74.5444 14.3717 73.8229 16.0743H78.3114Z" fill="#ACB4C0"/>
<path d="M151.275 17.8895C151.74 18.3406 152.191 18.7774 152.621 19.1945C151.068 21.721 146.316 22.7674 143.222 20.2904C140.208 17.8772 139.715 13.2588 142.195 10.2801C144.862 7.07797 150.092 7.26646 152.557 10.0154C152.348 10.277 152.14 10.5582 151.91 10.8209C151.679 11.0866 151.428 11.3338 151.196 11.5769C148.008 9.64568 145.823 9.6498 144.153 11.5521C142.604 13.3144 142.558 16.2189 144.076 17.9626C145.028 19.0565 146.23 19.521 147.694 19.5024C149.123 19.4839 150.114 18.6012 151.275 17.8906V17.8895Z" fill="#ACB4C0"/>
<path d="M173.186 10.3434V21.3249H170.749V10.3743H166.577V8.29688H177.304V10.3434H173.185H173.186Z" fill="#ACB4C0"/>
<path d="M207.153 21.4214H204.826C204.826 20.1422 204.779 18.8383 204.842 17.5395C204.888 16.5806 204.638 15.7793 204.111 14.9821C202.835 13.0488 201.623 11.0723 200.392 9.10922C200.231 8.85276 200.111 8.57055 199.928 8.21315H202.602C203.676 10.0063 204.787 11.8633 206.004 13.8944C206.381 13.3177 206.696 12.8583 206.988 12.3835C207.632 11.3381 208.341 10.3236 208.877 9.22458C209.306 8.34499 209.885 8.036 210.803 8.15547C211.188 8.20594 211.586 8.16371 212.187 8.16371C211.115 9.88582 210.277 11.509 209.181 12.9314C207.575 15.0171 206.793 17.2573 207.144 19.8878C207.209 20.3729 207.153 20.8735 207.153 21.4225V21.4214Z" fill="#ACB4C0"/>
<path d="M231.961 21.3469H229.56V10.388H225.427V8.29102H236.164V10.3149H231.962V21.3469H231.961Z" fill="#ACB4C0"/>
<path d="M192.166 8.16602H194.494V19.2196H201.404V21.3022H192.166V8.16602Z" fill="#ACB4C0"/>
<path d="M87.384 8.2168V19.1386H94.2684V21.3035H85.1172V8.2168H87.384Z" fill="#ACB4C0"/>
</g>
<defs>
<clipPath id="clip0_2707_6304">
<rect width="235.323" height="32" fill="white" transform="translate(0.839844)"/>
</clipPath>
</defs>
</svg>
