<svg width="89" height="28" viewBox="0 0 89 28" fill="none" xmlns="http://www.w3.org/2000/svg">
<g clip-path="url(#clip0_2707_6582)">
<path d="M32.1133 8.80696C33.696 7.17711 35.4446 6.35338 37.5675 6.40861C39.7244 6.46384 41.4672 7.19592 42.3521 9.23822C42.7228 8.9186 43.0852 8.62835 43.4241 8.31225C45.3304 6.53199 47.5733 6.0126 50.0645 6.6448C52.1049 7.16301 53.1252 8.63775 53.4735 10.6307C53.5641 11.1489 53.6124 11.6812 53.6147 12.2065C53.63 15.0655 53.6076 17.9245 53.6394 20.7835C53.6453 21.3487 53.4582 21.4768 52.9381 21.4627C51.7049 21.4321 50.4704 21.4533 49.1549 21.4533C49.1549 21.2171 49.1549 21.0302 49.1549 20.8422C49.1549 18.492 49.1843 16.1419 49.136 13.7929C49.1219 13.0831 49.0078 12.3299 48.7383 11.6801C48.0487 10.0138 45.587 9.68945 44.2125 11.0267C43.3853 11.8316 42.9534 12.8363 42.9275 13.9679C42.8746 16.2182 42.864 18.4709 42.8875 20.7224C42.8934 21.3275 42.7192 21.4967 42.1262 21.4674C41.1483 21.418 40.1657 21.4544 39.1855 21.4533C38.4077 21.4533 38.41 21.4509 38.4065 20.6977C38.3935 18.2112 38.3959 15.7247 38.35 13.2382C38.3406 12.7423 38.2241 12.2182 38.0323 11.76C37.3062 10.0291 34.9633 9.65185 33.4853 11.0067C32.4027 11.9985 32.1356 13.3122 32.1191 14.693C32.0956 16.7494 32.0991 18.8058 32.1227 20.861C32.1286 21.3299 31.985 21.4721 31.5225 21.4603C30.4246 21.4321 29.3267 21.438 28.2288 21.4603C27.8193 21.4685 27.6346 21.3792 27.6357 20.9139C27.651 16.351 27.6487 11.7882 27.6381 7.22529C27.6381 6.81519 27.7734 6.67888 28.1818 6.6871C29.3185 6.70943 30.4564 6.71413 31.5931 6.6918C32.0203 6.68358 32.1391 6.84809 32.118 7.24292C32.0933 7.7012 32.1121 8.16301 32.1121 8.80814L32.1133 8.80696Z" fill="#ACB4C0"/>
<path d="M59.9982 8.20944C60.3383 7.94152 60.5854 7.72883 60.849 7.54082C63.0436 5.97677 66.7798 6.00263 69.138 7.55257C71.7398 9.26232 72.5505 11.7794 72.3646 14.71C72.1505 18.0778 70.4512 20.4022 67.3988 21.3328C64.8864 22.099 62.4376 21.9709 60.3183 20.1448C60.2618 20.0955 60.1877 20.0649 60.1194 20.0297C60.1077 20.0238 60.0853 20.0379 60.0006 20.0602V27.7335H55.5607C55.5513 27.5103 55.5337 27.3011 55.5337 27.0919C55.5325 20.5161 55.5395 13.9403 55.5195 7.36455C55.5184 6.81344 55.6784 6.6595 56.2115 6.6783C57.2682 6.71473 58.3284 6.71356 59.3851 6.6783C59.89 6.66068 60.0524 6.84752 60.0041 7.3199C59.9782 7.57137 59.9994 7.82636 59.9994 8.20944H59.9982ZM67.7341 13.9874C67.7024 13.7006 67.6824 13.3081 67.6141 12.9251C67.3093 11.2141 66.0596 9.93095 64.4828 9.69005C62.8201 9.43623 61.255 10.1742 60.5313 11.6924C59.7652 13.2976 59.7652 14.9568 60.6066 16.5479C61.5656 18.3587 63.8956 19.0109 65.676 17.9956C67.1869 17.1342 67.6694 15.723 67.7341 13.9874Z" fill="#ACB4C0"/>
<path d="M21.2748 19.5741C20.3251 20.1487 19.4626 20.8068 18.4953 21.2275C16.8149 21.9572 15.038 21.9819 13.3423 21.278C11.1324 20.3591 10.3087 18.4648 10.2546 16.2333C10.1804 13.2204 10.2381 10.2051 10.224 7.19103C10.2228 6.80912 10.3475 6.67634 10.7323 6.68221C11.8691 6.70101 13.0058 6.70571 14.1425 6.67986C14.585 6.66929 14.7133 6.82322 14.7097 7.25331C14.6932 9.4848 14.6968 11.7163 14.7074 13.9466C14.7097 14.3955 14.7438 14.8467 14.8074 15.2909C15.0274 16.8232 15.8217 17.6904 17.1668 17.9043C18.6095 18.1334 19.9662 17.4742 20.6346 16.2333C21.1218 15.3273 21.2736 14.3532 21.2736 13.3426C21.2736 11.3461 21.2877 9.34966 21.2642 7.35319C21.2583 6.85848 21.3701 6.65519 21.9126 6.67516C23.0081 6.71629 24.1072 6.69984 25.2051 6.68104C25.5993 6.67399 25.7558 6.78445 25.7546 7.20865C25.7417 11.7692 25.7429 16.3297 25.7535 20.8902C25.7535 21.2756 25.6676 21.4613 25.2345 21.4531C24.079 21.4307 22.9222 21.4319 21.7655 21.4519C21.3666 21.4589 21.2536 21.2944 21.2701 20.929C21.2901 20.4625 21.2748 19.9948 21.2748 19.5729V19.5741Z" fill="#ACB4C0"/>
<path d="M0.595903 27.9145V24.8463C0.938336 24.7982 1.28194 24.7606 1.62202 24.6983C3.10943 24.4257 3.82489 23.5878 3.86254 22.0708C3.87549 21.542 3.86725 21.0132 3.86725 20.4844C3.86725 16.1378 3.87784 11.7899 3.85431 7.44328C3.85078 6.86984 3.9661 6.64305 4.59095 6.67478C5.66649 6.72765 6.74792 6.70063 7.82581 6.68418C8.20355 6.6783 8.3424 6.80756 8.34123 7.19181C8.32828 12.381 8.35535 17.5702 8.30357 22.7582C8.28945 24.1319 7.69755 25.3305 6.62083 26.2517C5.13107 27.5255 2.53988 28.2564 0.594727 27.9145H0.595903Z" fill="#ACB4C0"/>
<path d="M81.2406 20.8317C79.1648 20.8317 77.0902 20.8187 75.0144 20.8411C74.4755 20.8469 74.2801 20.6542 74.3025 20.1231C74.3331 19.4004 74.3201 18.6766 74.3084 17.9527C74.3013 17.5532 74.4743 17.3945 74.8709 17.3945C79.1389 17.4004 83.407 17.4016 87.6762 17.3957C88.0751 17.3957 88.2422 17.5602 88.2351 17.9574C88.2234 18.7001 88.2151 19.4439 88.2398 20.1865C88.2563 20.6695 88.0657 20.8411 87.5856 20.8375C85.471 20.8223 83.3564 20.8305 81.2417 20.8305L81.2406 20.8317Z" fill="#ACB4C0"/>
<path d="M6.08718 0.0176733C7.4981 -0.173866 8.59835 1.22919 8.576 2.39958C8.54893 3.79558 7.46986 4.87784 6.05777 4.86961C4.71157 4.86139 3.63368 3.738 3.62308 2.36785C3.61602 1.30087 4.60566 -0.145664 6.08718 0.0176733Z" fill="#ACB4C0"/>
</g>
<defs>
<clipPath id="clip0_2707_6582">
<rect width="87.6438" height="28" fill="white" transform="translate(0.595703)"/>
</clipPath>
</defs>
</svg>
