<svg width="65" height="32" viewBox="0 0 65 32" fill="none" xmlns="http://www.w3.org/2000/svg">
<g clip-path="url(#clip0_2707_6324)">
<path d="M17.8838 31.9998C17.8911 31.9215 17.9047 31.8432 17.9047 31.7649C17.9056 25.3432 17.9056 18.9214 17.9056 12.4992C17.9056 12.4323 17.9056 12.3654 17.9056 12.2871H30.2197V17.0645H22.8584V19.6655H30.2206V24.457H22.8629V27.1764H30.2429V31.9998H17.8838Z" fill="#ACB4C0"/>
<path d="M0.163086 6.45882H2.66219C2.66219 6.74191 2.66219 7.00406 2.66219 7.26621C2.66219 7.90156 3.00687 8.21331 3.67666 8.18555C4.21595 8.16325 4.54107 7.76047 4.49878 7.17746C4.4765 6.86843 4.33463 6.61356 4.09136 6.44926C3.5798 6.10292 3.04597 5.7907 2.52487 5.45801C2.05424 5.15763 1.56861 4.87591 1.12617 4.53776C0.342698 3.93836 0.151263 3.10367 0.27631 2.1643C0.415452 1.1198 1.02795 0.488547 2.01332 0.211834C3.0246 -0.0721617 4.04771 -0.0744373 5.05672 0.228218C6.063 0.529963 6.57364 1.21856 6.60729 2.26852C6.61456 2.49517 6.6082 2.72228 6.6082 2.96577H4.2978C4.2978 2.74367 4.30826 2.53204 4.29552 2.32177C4.26733 1.85209 3.92721 1.57538 3.40974 1.58857C2.92547 1.60086 2.62809 1.89487 2.60717 2.36137C2.59308 2.67358 2.6872 2.9421 2.94275 3.11368C3.36154 3.3954 3.79761 3.65118 4.23005 3.91197C4.70795 4.20051 5.20131 4.46494 5.66831 4.77032C6.54863 5.34605 6.91649 6.17938 6.81737 7.21933C6.78826 7.52654 6.76098 7.84057 6.67686 8.13549C6.45451 8.91465 5.89566 9.38252 5.14766 9.61418C4.05043 9.9537 2.94048 9.95643 1.84689 9.59506C0.898813 9.28194 0.344517 8.61883 0.209467 7.61938C0.20401 7.57933 0.179001 7.54247 0.163086 7.50378C0.163086 7.15516 0.163086 6.80699 0.163086 6.45837L0.163086 6.45882Z" fill="#ACB4C0"/>
<path d="M5.11446 31.9525C5.11492 31.968 5.11537 31.9839 5.11628 31.9994H0.163086C0.163086 25.4247 0.163086 18.8501 0.163086 12.2754C0.17991 12.2772 0.19628 12.279 0.213104 12.2809C0.21174 12.3264 0.208557 12.3714 0.208557 12.4169C0.208557 18.8583 0.208557 25.2991 0.208557 31.7405C0.208557 31.806 0.216742 31.8715 0.222653 31.9525H5.11446Z" fill="#ACB4C0"/>
<path d="M48.832 31.9601C48.8306 31.9737 48.8297 31.9874 48.8284 32.0015H42.376C42.376 31.986 42.3764 31.9706 42.3769 31.9551C44.5286 31.9569 46.6803 31.9583 48.832 31.9601Z" fill="#ACB4C0"/>
<path d="M30.7891 32.0002C30.7913 31.9834 30.7936 31.9661 30.7963 31.9492C32.6702 31.9492 34.5441 31.9497 36.418 31.9501L36.4239 32.0002H30.7895H30.7891Z" fill="#ACB4C0"/>
<path d="M59.501 31.9499C59.5028 31.9667 59.5046 31.9831 59.5064 31.9999H54.5537C54.5578 31.9817 54.5624 31.9635 54.5664 31.9453C56.2111 31.9467 57.8558 31.9485 59.501 31.9499Z" fill="#ACB4C0"/>
<path d="M11.9775 32.0005C11.9784 31.9845 11.9789 31.9686 11.9798 31.9531C13.584 31.9531 15.1883 31.9531 16.7925 31.9536C16.793 31.9691 16.7934 31.985 16.7943 32.0005H11.9775Z" fill="#ACB4C0"/>
<path d="M16.7927 31.9538C15.1885 31.9538 13.5843 31.9538 11.98 31.9533C10.6 29.7779 9.21948 27.6024 7.83942 25.4264C6.97774 24.0675 6.11697 22.7076 5.25528 21.3481C5.22527 21.3008 5.18935 21.2571 5.12387 21.167V21.4373C5.12387 24.8521 5.12387 28.2673 5.12387 31.6821C5.12387 31.7726 5.11796 31.8632 5.11523 31.9538H0.223422C0.217965 31.8728 0.209325 31.8072 0.209325 31.7417C0.208871 25.3004 0.208871 18.8595 0.209325 12.4182C0.209325 12.3727 0.212054 12.3276 0.213873 12.2821C1.84129 12.2803 3.46917 12.2762 5.09659 12.2835C5.17616 12.2835 5.28348 12.3654 5.33077 12.4391C7.12643 15.2554 8.91709 18.0749 10.7082 20.8943C11.0761 21.4737 11.4439 22.0526 11.8523 22.6261V12.2876H16.8023V12.4869C16.8023 18.9082 16.8023 25.3295 16.8023 31.7508C16.8023 31.8186 16.7964 31.8864 16.7936 31.9542L16.7927 31.9538Z" fill="#ACB4C0"/>
<path d="M59.5009 31.9506C57.8562 31.9492 56.2115 31.9474 54.5664 31.9461C54.5646 31.8555 54.5614 31.7645 54.5614 31.6739C54.5614 26.9024 54.5614 22.1314 54.5614 17.3599V17.0736H49.7441V12.2871H64.3686V17.0591H59.5068V17.3412C59.5068 22.12 59.5068 26.8988 59.5068 31.6775C59.5068 31.7681 59.5032 31.8591 59.5014 31.9497L59.5009 31.9506Z" fill="#ACB4C0"/>
<path d="M36.4181 31.9501C34.5442 31.9501 32.6703 31.9497 30.7965 31.9492C31.5972 30.6312 32.3962 29.3118 33.1987 27.9951C34.356 26.0964 35.5128 24.1971 36.6796 22.3048C36.7828 22.1373 36.7319 22.0353 36.65 21.902C34.7257 18.7525 32.8027 15.6022 30.8801 12.4523C30.8529 12.4077 30.8288 12.3608 30.791 12.2939C30.8592 12.2871 30.9138 12.2771 30.9679 12.2771C32.7095 12.2762 34.4506 12.278 36.1921 12.2734C36.329 12.2734 36.4076 12.3139 36.4822 12.4318C38.4902 15.6099 40.5014 18.7858 42.5163 21.9593C42.5908 22.0767 42.5999 22.1578 42.5226 22.2802C40.4851 25.502 38.452 28.7265 36.4181 31.9506V31.9501Z" fill="#ACB4C0"/>
<path d="M22.72 7.28802C23.0942 4.971 23.4685 2.65398 23.8445 0.326494H27.5945C27.6627 3.3708 27.731 6.41601 27.7996 9.47852H25.4651V1.26313C25.441 1.26131 25.4169 1.25995 25.3928 1.25813C24.884 3.99431 24.3752 6.73004 23.8636 9.48034H21.525C21.0198 6.76236 20.5128 4.03345 20.0058 1.30409C19.9817 1.305 19.9576 1.30591 19.9335 1.30728V9.48444H17.5977C17.6636 6.43285 17.7291 3.38263 17.795 0.324219H21.5491C21.9238 2.64761 22.298 4.96645 22.6723 7.28529C22.6882 7.2862 22.7045 7.28711 22.7205 7.28802H22.72Z" fill="#ACB4C0"/>
<path d="M53.2462 7.47002C53.2067 5.09566 53.1671 2.72084 53.1271 0.330996H55.3984V9.39063H55.1674C54.2284 9.39063 53.2894 9.38517 52.3509 9.39564C52.1731 9.39746 52.1058 9.33738 52.0571 9.17536C51.346 6.8192 50.6289 4.4644 49.9132 2.10961C49.8968 2.0559 49.8768 2.00357 49.825 1.95805C49.8672 4.42208 49.91 6.8861 49.9527 9.37061H47.7051V0.315067C47.7833 0.315067 47.8629 0.315067 47.9429 0.315067C48.9119 0.315067 49.8813 0.323259 50.8503 0.308695C51.0604 0.305509 51.1327 0.376963 51.1864 0.564018C51.8361 2.81232 52.4937 5.05879 53.1494 7.30527C53.1657 7.36125 53.1848 7.41632 53.2026 7.47139C53.2171 7.47093 53.2317 7.47002 53.2462 7.46957V7.47002Z" fill="#ACB4C0"/>
<path d="M38.7345 0.322266H41.0512C41.0512 0.404187 41.0512 0.483378 41.0512 0.562569C41.0512 2.77355 41.0512 4.98452 41.0512 7.1955C41.0512 7.7776 41.3945 8.11484 41.9702 8.1021C42.4913 8.09072 42.8273 7.75211 42.8292 7.2219C42.8328 6.12415 42.8301 5.02594 42.8301 3.92819C42.8301 2.80768 42.8301 1.68672 42.8301 0.56621C42.8301 0.491571 42.8301 0.416931 42.8301 0.329092H45.155C45.155 0.404187 45.155 0.483834 45.155 0.563935C45.155 2.73714 45.155 4.91034 45.155 7.08354C45.155 8.54721 44.4998 9.3728 43.0656 9.66453C42.1953 9.84157 41.3177 9.8261 40.4592 9.58261C39.3251 9.26038 38.734 8.48167 38.7226 7.22508C38.7022 4.95357 38.7172 2.68207 38.7176 0.410559C38.7176 0.388713 38.7254 0.366867 38.7336 0.323176L38.7345 0.322266Z" fill="#ACB4C0"/>
<path d="M62.0008 5.67462H61.075V4.34612H64.2953C64.2989 4.35067 64.3162 4.36205 64.3162 4.37297C64.308 5.36423 64.3394 6.35776 64.278 7.34582C64.208 8.46906 63.6246 9.15038 62.5415 9.4635C61.4524 9.77799 60.3579 9.77435 59.293 9.36201C58.3799 9.00838 57.8684 8.31523 57.8334 7.33763C57.7888 6.08969 57.7929 4.84038 57.792 3.59153C57.792 3.1314 57.8088 2.66718 57.8679 2.2116C57.9993 1.1976 58.5964 0.557695 59.5617 0.269604C60.5567 -0.027135 61.5643 -0.0253145 62.5597 0.262777C63.6805 0.587278 64.2735 1.39239 64.3012 2.57707C64.3062 2.78824 64.3021 2.99942 64.3021 3.22516H61.9685C61.9685 2.98394 61.9826 2.74273 61.9654 2.50334C61.9335 2.05049 61.6243 1.75785 61.1696 1.72781C60.6026 1.69049 60.2393 1.92306 60.1415 2.39638C60.1142 2.52882 60.1001 2.66627 60.1001 2.80099C60.0974 4.20185 60.0974 5.60317 60.0988 7.00403C60.0992 7.78046 60.6576 8.1878 61.407 7.9616C61.7544 7.85647 61.9831 7.60433 61.9967 7.23978C62.0158 6.72731 62.0017 6.21348 62.0017 5.67462H62.0008Z" fill="#ACB4C0"/>
<path d="M13.3072 9.48783C12.8989 6.71478 12.4929 3.95993 12.0873 1.20509C12.0713 1.206 12.0554 1.20691 12.0391 1.20736C11.6239 3.96039 11.2087 6.71341 10.7913 9.481H8.30176C8.8656 6.43715 9.42899 3.39467 9.99557 0.333984H14.0912C14.6518 3.37465 15.2143 6.42396 15.7791 9.48737H13.3072V9.48783Z" fill="#ACB4C0"/>
<path d="M36.3709 2.99466H34.0987C34.0987 2.79668 34.1019 2.60872 34.0983 2.42121C34.0905 2.0339 33.8827 1.74899 33.5435 1.65478C33.1579 1.54738 32.7482 1.66662 32.5618 1.94014C32.3567 2.24098 32.3549 2.71704 32.6073 2.97463C32.8155 3.18809 33.0606 3.37651 33.3171 3.52943C33.8418 3.84301 34.3988 4.10242 34.9154 4.42784C35.3024 4.67178 35.672 4.95714 36.0044 5.27117C36.5355 5.77317 36.6206 6.44584 36.5933 7.13489C36.5824 7.41343 36.5556 7.69606 36.4928 7.9664C36.2964 8.81292 35.7262 9.32812 34.9254 9.57298C33.8514 9.90157 32.7605 9.9084 31.6887 9.55614C30.6279 9.20706 30.0659 8.42926 30.0263 7.31603C30.0163 7.03795 30.0249 6.75942 30.0249 6.46996H32.4713C32.4713 6.72711 32.4713 6.98926 32.4713 7.25095C32.4722 7.70926 32.64 7.97323 33.0092 8.09793C33.4121 8.23401 33.8905 8.13662 34.1033 7.87583C34.3311 7.59639 34.3807 7.03886 34.1588 6.7444C33.9982 6.5314 33.7995 6.32751 33.5763 6.18506C33.0488 5.84781 32.4931 5.55562 31.9561 5.23294C31.6587 5.05408 31.3686 4.86111 31.0881 4.65631C30.2159 4.01959 29.9627 3.14394 30.1268 2.11218C30.2655 1.24153 30.752 0.64214 31.5746 0.352228C32.7082 -0.0473679 33.8646 -0.0505538 35.0004 0.332658C35.9076 0.638954 36.3673 1.34667 36.3714 2.31016C36.3723 2.53544 36.3714 2.76027 36.3714 2.99466H36.3709Z" fill="#ACB4C0"/>
<path d="M48.8599 12.2871C47.7482 14.0407 46.6578 15.761 45.5505 17.5078C44.4765 15.7542 43.4216 14.032 42.3525 12.2871H48.8599Z" fill="#ACB4C0"/>
<path d="M48.8321 31.9598C46.6804 31.958 44.5287 31.9567 42.377 31.9548C42.7339 31.3609 43.0872 30.7647 43.4483 30.173C44.1399 29.0389 44.8356 27.907 45.539 26.7578C45.5795 26.8061 45.6159 26.8406 45.6423 26.8821C46.6858 28.5269 47.7289 30.1726 48.7707 31.8188C48.798 31.8615 48.8116 31.913 48.8321 31.9603V31.9598Z" fill="#ACB4C0"/>
</g>
<defs>
<clipPath id="clip0_2707_6324">
<rect width="64.2051" height="32" fill="white" transform="translate(0.163086)"/>
</clipPath>
</defs>
</svg>
