<svg width="85" height="28" viewBox="0 0 85 28" fill="none" xmlns="http://www.w3.org/2000/svg">
<g clip-path="url(#clip0_2707_6560)">
<mask id="mask0_2707_6560" style="mask-type:luminance" maskUnits="userSpaceOnUse" x="0" y="0" width="85" height="28">
<path d="M84.0437 0H0.105469V28H84.0437V0Z" fill="white"/>
</mask>
<g mask="url(#mask0_2707_6560)">
<path d="M16.2124 18.6948C16.2265 19.6184 16.0568 20.5356 15.7131 21.393C15.3694 22.2505 14.8586 23.031 14.2104 23.6891C13.5622 24.3473 12.7896 24.8699 11.9376 25.2267C11.0855 25.5835 10.171 25.7672 9.24724 25.7672C8.3235 25.7672 7.40898 25.5835 6.55691 25.2267C5.70484 24.8699 4.93224 24.3473 4.28406 23.6891C3.63588 23.031 3.12508 22.2505 2.78138 21.393C2.43768 20.5356 2.26795 19.6184 2.28206 18.6948V9.42773L0.105663 9.47759V18.6948C0.0898009 21.1345 1.04366 23.4805 2.75745 25.217C4.47123 26.9534 6.80458 27.938 9.24426 27.9542C11.6838 27.9397 14.0177 26.9569 15.7326 25.2217C17.4475 23.4866 18.4029 21.1414 18.3888 18.7018V9.47759L16.2124 9.4299V18.6948Z" fill="#ACB4C0"/>
<path d="M31.1352 9.45703H22.0308L21.9863 11.6632H31.1352C32.9906 11.6862 34.7621 12.4394 36.066 13.7595C37.3699 15.0797 38.101 16.8604 38.101 18.7159C38.101 20.5714 37.3699 22.3522 36.066 23.6723C34.7621 24.9925 32.9906 25.7456 31.1352 25.7686H21.9863L22.0346 27.97H31.139C33.5727 27.9377 35.8958 26.9483 37.6055 25.2159C39.3151 23.4835 40.2736 21.1474 40.2736 18.7135C40.2736 16.2796 39.3151 13.9435 37.6055 12.2111C35.8958 10.4787 33.5727 9.48929 31.139 9.45703" fill="#ACB4C0"/>
<path d="M67.9298 18.5453C67.9206 16.687 68.6487 14.901 69.9544 13.5789C71.2602 12.2567 73.037 11.5065 74.8952 11.4926H84.0463L84.0008 9.28906H74.8963C72.4626 9.32132 70.1395 10.3107 68.4299 12.0432C66.7203 13.7756 65.7617 16.1116 65.7617 18.5455C65.7617 20.9795 66.7203 23.3155 68.4299 25.0479C70.1395 26.7803 72.4626 27.7697 74.8963 27.802H84.0008L84.0463 25.5985H74.8952C73.037 25.5846 71.2602 24.8343 69.9544 23.5122C68.6487 22.1901 67.9206 20.4035 67.9298 18.5453Z" fill="#ACB4C0"/>
<path d="M53.0127 9.4746C51.6842 9.47311 50.3716 9.76488 49.1688 10.3291C47.966 10.8933 46.9025 11.7161 46.0543 12.7387V0H43.9029L43.873 27.9491L46.0494 27.9967V20.4037H46.0543V18.5379C46.0799 16.6909 46.8381 14.9298 48.1622 13.642C49.4863 12.3541 51.2677 11.6449 53.1146 11.6705C54.9615 11.6961 56.7226 12.4543 58.0105 13.7784C59.2984 15.1024 60.0076 16.8839 59.982 18.7308V27.9978L62.1584 27.9507V18.7313C62.1709 16.2917 61.2149 13.9467 59.5003 12.2112C57.7856 10.4757 55.4524 9.4915 53.0127 9.4746Z" fill="#ACB4C0"/>
</g>
</g>
<defs>
<clipPath id="clip0_2707_6560">
<rect width="83.9382" height="28" fill="white" transform="translate(0.105469)"/>
</clipPath>
</defs>
</svg>
