<svg width="154" height="18" viewBox="0 0 154 18" fill="none" xmlns="http://www.w3.org/2000/svg">
<g clip-path="url(#clip0_2707_6423)">
<path d="M0.484375 0.301999C1.97811 -0.13763 2.81692 0.429634 3.58361 1.66462C5.19873 4.26458 7.01573 6.74399 8.75101 9.27305C8.84355 9.40777 8.9493 9.53541 9.10432 9.73868C10.3421 7.9187 11.545 6.15309 12.7467 4.38512C13.5651 3.17968 14.4075 1.98843 15.1862 0.759356C15.4734 0.305545 15.7943 0.140093 16.3134 0.188547C16.7449 0.228728 17.1835 0.196819 17.6702 0.196819V17.808H15.7006V3.83086C15.6441 3.80486 15.5888 3.77886 15.5323 3.75286C13.3981 6.82672 11.2626 9.90058 9.04904 13.0879C6.87152 9.96913 4.74928 6.92717 2.50086 3.70322V17.8198H0.484375V0.301999Z" fill="#ACB4C0"/>
<path d="M114.86 0.214949H116.88V17.8155C116.064 17.884 115.375 18.0282 114.714 17.1868C111.238 12.7574 107.676 8.39183 104.143 4.00498C104.056 3.89744 103.958 3.79935 103.738 3.5559V17.8344H101.734V0.218495C102.654 0.265767 103.499 -0.0438651 104.283 0.97012C107.583 5.23051 111.003 9.40227 114.38 13.6059C114.498 13.7525 114.626 13.8896 114.858 14.1555V0.214949H114.86Z" fill="#ACB4C0"/>
<path d="M78.2812 17.8222V0.199219H91.2334V2.03337C90.9173 2.03337 90.6313 2.03337 90.3453 2.03337C87.2689 2.03337 84.1925 2.04637 81.1161 2.02155C80.5261 2.01683 80.3061 2.15628 80.3218 2.77318C80.3626 4.46788 80.3362 6.16495 80.3362 7.95065H90.087V9.78953H80.4047V15.9904H91.392V17.821H78.2812V17.8222Z" fill="#ACB4C0"/>
<path d="M27.3887 17.8748C27.7732 16.9979 28.1025 16.2132 28.4606 15.4403C30.1959 11.6905 31.9396 7.94533 33.6773 4.19785C34.2301 3.00659 34.8009 1.82243 35.3104 0.614627C35.4883 0.193906 35.713 0.0899074 36.1588 0.0284537C37.1815 -0.112181 37.685 0.267177 38.096 1.19607C39.764 4.97074 41.5209 8.7076 43.2478 12.4574C44.0638 14.2301 44.8857 16.0005 45.7534 17.8748C45.0504 17.8748 44.4375 17.9469 43.8583 17.8417C43.5951 17.7945 43.3223 17.4293 43.1853 17.1468C42.6457 16.0312 42.1362 14.9002 41.6615 13.7574C41.4764 13.3119 41.2313 13.1535 40.7386 13.1571C37.9073 13.1795 35.0761 13.1783 32.246 13.1571C31.7858 13.1535 31.5382 13.3036 31.3628 13.7125C30.8845 14.8305 30.3425 15.9225 29.8907 17.0499C29.6431 17.6668 29.3138 17.993 28.6024 17.8831C28.2503 17.8287 27.8814 17.8736 27.3899 17.8736L27.3887 17.8748ZM40.5788 11.3785C39.2244 8.39678 37.8977 5.47301 36.5254 2.44996C35.1542 5.45646 33.8179 8.38615 32.4527 11.3785H40.5788Z" fill="#ACB4C0"/>
<path d="M68.594 0.195756C67.7876 2.04764 67.0354 3.76952 66.2879 5.49258C64.9311 8.62317 63.5792 11.7573 62.2201 14.8867C61.8403 15.7624 61.4161 16.6204 61.0616 17.5056C60.7612 18.256 60.1315 17.9074 59.628 17.9842C59.2158 18.048 58.9814 17.8968 58.8072 17.4879C57.5766 14.596 56.3208 11.7136 55.0626 8.83235C53.8224 5.99249 52.569 3.15735 51.2676 0.196938C52.0138 0.196938 52.6784 0.178029 53.3405 0.212301C53.4823 0.219392 53.6782 0.394298 53.7383 0.537296C55.029 3.58634 56.2992 6.64248 57.5814 9.69388C58.3433 11.5079 59.1172 13.3161 59.9632 15.3098C60.5965 13.8101 61.1565 12.4818 61.7177 11.1558C63.1947 7.66119 64.6752 4.16779 66.1461 0.670839C66.2963 0.313936 66.509 0.155575 66.9188 0.18512C67.4259 0.221755 67.9379 0.193392 68.5952 0.193392L68.594 0.195756Z" fill="#ACB4C0"/>
<path d="M135.312 17.848H133.319V2.14778C132.115 2.50705 131.04 2.82732 129.911 3.16295C129.741 2.62996 129.584 2.13833 129.39 1.5297C131.357 1.01444 133.108 -0.151999 135.312 0.076088V17.848Z" fill="#ACB4C0"/>
<path d="M153.241 17.8391H151.251V2.15778C150.071 2.50641 148.99 2.82668 147.945 3.13513C147.857 3.0654 147.795 3.04177 147.784 3.00513C147.342 1.53024 147.335 1.50424 148.868 1.02916C150.152 0.632076 151.358 -0.0829129 152.781 0.0518124C152.922 0.0648122 153.062 0.071903 153.243 0.0849028V17.8391H153.241Z" fill="#ACB4C0"/>
</g>
<defs>
<clipPath id="clip0_2707_6423">
<rect width="152.757" height="18" fill="white" transform="translate(0.484375)"/>
</clipPath>
</defs>
</svg>
