<svg width="128" height="32" viewBox="0 0 128 32" fill="none" xmlns="http://www.w3.org/2000/svg">
<g clip-path="url(#clip0_2707_6467)">
<path d="M0.128906 15.1277C0.155263 15.0384 0.201547 14.9496 0.206047 14.859C0.270974 13.5508 0.542253 12.2883 0.947243 11.0418C1.33809 9.84035 1.86908 8.71473 2.52028 7.63604C3.30583 6.33557 4.2733 5.18746 5.39056 4.16277C6.56761 3.08344 7.88736 2.21689 9.32797 1.52584C10.5519 0.938278 11.8325 0.516574 13.1599 0.266509C14.7709 -0.0369121 16.3992 -0.0677684 18.034 0.105799C20.039 0.318579 21.9251 0.91385 23.6968 1.8524C25.5128 2.81409 27.091 4.08627 28.4242 5.65481C29.5421 6.97006 30.4273 8.43188 31.065 10.0281C31.3839 10.8271 31.5844 11.6757 31.8094 12.5094C32.1636 13.8221 32.278 15.1689 32.2215 16.5201C32.1835 17.4201 32.0897 18.3284 31.9052 19.2091C31.6442 20.4543 31.2437 21.6596 30.6844 22.8174C30.039 24.1539 29.249 25.3785 28.2776 26.4983C26.8403 28.1543 25.138 29.4496 23.1664 30.4119C22.0209 30.9712 20.8258 31.3723 19.5909 31.6584C19.0471 31.7844 18.484 31.8242 17.9305 31.9091C17.8411 31.9226 17.7569 31.9689 17.6701 32.0004H14.7143C14.6269 31.9689 14.5414 31.9239 14.4514 31.9078C13.6067 31.7574 12.7434 31.677 11.9212 31.4501C10.6914 31.11 9.50539 30.6369 8.39006 29.9986C7.26959 29.357 6.21854 28.6222 5.27485 27.7448C4.19681 26.7419 3.24283 25.626 2.50485 24.3486C2.06322 23.5843 1.64923 22.7975 1.30981 21.9843C1.01603 21.281 0.805175 20.5353 0.631608 19.7915C0.447113 19.0015 0.348115 18.1915 0.214404 17.3905C0.181619 17.1938 0.157834 16.9952 0.130192 16.7972C0.130192 16.2411 0.130192 15.6851 0.130192 15.129L0.128906 15.1277ZM26.7477 23.7437C21.6082 18.6929 17.9716 12.7781 16.2141 5.74352C14.4887 12.7897 10.8419 18.6948 5.6522 23.7193C12.7016 21.227 19.7105 21.2141 26.7477 23.7444V23.7437Z" fill="#ACB4C0"/>
<path d="M101.483 20.685C101.489 20.5622 101.5 20.4394 101.5 20.3166C101.501 17.8051 101.5 15.2928 101.501 12.7813C101.501 12.4963 101.648 12.3536 101.942 12.3531C102.327 12.3531 102.713 12.3608 103.098 12.3499C103.293 12.3441 103.374 12.42 103.363 12.6096C103.359 12.6842 103.363 12.7594 103.363 12.834C103.363 16.3612 103.363 19.8885 103.362 23.4151C103.362 23.572 103.345 23.7289 103.335 23.9133C102.788 23.9133 102.275 23.923 101.764 23.9043C101.672 23.9011 101.567 23.7963 101.499 23.7134C100.618 22.6457 99.7388 21.576 98.8645 20.5024C97.9575 19.3884 97.0575 18.2692 96.1518 17.1545C95.7204 16.6235 95.2839 16.097 94.7876 15.4941C94.7703 15.7094 94.751 15.8386 94.751 15.9672C94.7491 18.4685 94.7497 20.9691 94.7497 23.4704C94.7497 23.7627 94.6014 23.9091 94.3049 23.9095C93.941 23.9095 93.5765 23.8953 93.2133 23.914C92.9446 23.9275 92.8604 23.8278 92.8623 23.5643C92.8726 22.3461 92.8668 21.1273 92.8668 19.9091C92.8668 17.5364 92.8668 15.1636 92.8668 12.7909V12.3589C93.4435 12.3589 93.9944 12.3473 94.544 12.3698C94.6411 12.3737 94.7459 12.5093 94.823 12.6032C95.856 13.8593 96.8872 15.1167 97.9131 16.378C99.0516 17.7768 100.185 19.1801 101.32 20.5828C101.353 20.6239 101.374 20.6754 101.401 20.7223C101.428 20.7094 101.455 20.6972 101.482 20.6844L101.483 20.685Z" fill="#ACB4C0"/>
<path d="M127.839 12.3795V14.0304C127.685 14.0374 127.55 14.0484 127.414 14.0484C125.369 14.0497 123.324 14.0542 121.279 14.0432C120.996 14.0419 120.907 14.1281 120.912 14.4071C120.926 15.2299 120.928 16.0534 120.911 16.8762C120.905 17.179 121.017 17.2471 121.303 17.2452C123.347 17.2336 125.392 17.2388 127.437 17.2388C127.564 17.2388 127.691 17.2388 127.856 17.2388C127.856 17.7633 127.865 18.2622 127.845 18.7604C127.843 18.8221 127.697 18.923 127.612 18.9282C127.303 18.9487 126.992 18.9372 126.681 18.9372C124.894 18.9372 123.105 18.9436 121.317 18.9314C121.018 18.9295 120.901 19.0002 120.909 19.3203C120.929 20.1534 120.927 20.9878 120.91 21.8216C120.903 22.125 120.991 22.2247 121.306 22.2227C123.34 22.2092 125.375 22.2157 127.409 22.2157H127.855C127.855 22.7492 127.863 23.2481 127.844 23.7463C127.842 23.8041 127.689 23.8993 127.602 23.9025C127.207 23.9192 126.81 23.9102 126.414 23.9102C124.102 23.9102 121.789 23.9102 119.477 23.9102C119.191 23.9102 119.048 23.7724 119.047 23.4968C119.047 19.9047 119.047 16.3131 119.047 12.7209C119.047 12.6161 119.047 12.5107 119.047 12.3789H127.838L127.839 12.3795Z" fill="#ACB4C0"/>
<path d="M91.3311 23.9075C90.6619 23.9075 90.0757 23.9165 89.4907 23.8972C89.4097 23.8946 89.3011 23.7673 89.2606 23.6741C88.97 22.9972 88.6942 22.3139 88.4114 21.6331C88.3355 21.4499 88.2661 21.2609 88.1619 21.0944C88.1182 21.0237 87.9922 20.9678 87.9035 20.9671C86.1273 20.96 84.3505 20.9594 82.5744 20.969C82.4946 20.969 82.3777 21.0623 82.3429 21.1407C82.0222 21.8607 81.7149 22.5864 81.4063 23.3116C81.3491 23.4453 81.3189 23.5925 81.2462 23.7159C81.1987 23.7963 81.0978 23.8972 81.018 23.8991C80.4652 23.9152 79.9111 23.9075 79.2676 23.9075C79.4354 23.4935 79.5736 23.1373 79.7227 22.7851C80.093 21.9102 80.4658 21.0372 80.8413 20.1648C81.1858 19.3652 81.54 18.5693 81.882 17.7683C82.3937 16.5694 82.8977 15.3667 83.4068 14.1665C83.6376 13.6227 83.8639 13.0769 84.112 12.5414C84.1525 12.454 84.294 12.3633 84.391 12.3608C84.9902 12.344 85.5899 12.3421 86.1884 12.362C86.29 12.3653 86.4359 12.4752 86.479 12.5723C87.001 13.7525 87.5088 14.9392 88.0173 16.1259C88.5361 17.337 89.0497 18.55 89.5665 19.7618C89.9702 20.7081 90.3759 21.6537 90.7789 22.6006C90.9538 23.0107 91.1254 23.4215 91.3305 23.9075H91.3311ZM87.3989 19.2314C86.6821 17.517 85.9853 15.8501 85.2602 14.1151C84.5325 15.8527 83.8324 17.5241 83.1176 19.2314H87.3989Z" fill="#ACB4C0"/>
<path d="M41.5778 23.8737C41.8587 23.2 42.1146 22.5713 42.382 21.9478C42.9625 20.5952 43.5487 19.2453 44.1331 17.8947C44.5586 16.9111 44.9874 15.9295 45.4078 14.9434C45.7415 14.1611 46.0725 13.3774 46.3862 12.5874C46.4602 12.4016 46.5617 12.3476 46.7437 12.3495C47.3004 12.3553 47.8577 12.3662 48.4138 12.3444C48.6355 12.3354 48.748 12.4228 48.8245 12.6022C49.2006 13.4835 49.5722 14.3668 49.9502 15.2475C50.6335 16.8404 51.3213 18.4314 52.004 20.0244C52.5055 21.195 53.0037 22.3669 53.498 23.5401C53.5379 23.6346 53.5417 23.7439 53.5751 23.9097C53.1406 23.9097 52.7253 23.8718 52.3203 23.9194C51.8305 23.9766 51.5753 23.8114 51.41 23.3395C51.1606 22.6247 50.827 21.9401 50.5512 21.2336C50.4664 21.0157 50.35 20.9552 50.1263 20.9565C48.4131 20.9655 46.6999 20.9655 44.9868 20.9565C44.7695 20.9552 44.6634 21.0298 44.5856 21.2252C44.2655 22.0269 43.9351 22.8246 43.6027 23.6211C43.5269 23.803 43.4215 23.9316 43.1746 23.9168C42.7478 23.8911 42.3183 23.911 41.8902 23.9085C41.8015 23.9085 41.7121 23.8898 41.5771 23.8744L41.5778 23.8737ZM49.7078 19.2234C49 17.5373 48.3064 15.8839 47.6128 14.2311C47.5826 14.2305 47.5524 14.2292 47.5221 14.2285C46.8272 15.8832 46.1323 17.5385 45.4246 19.2234H49.7078Z" fill="#ACB4C0"/>
<path d="M111.835 24.1072C110.425 24.1143 109.155 23.7118 108.058 22.8543C107.061 22.0752 106.372 21.0685 106.054 19.8194C105.87 19.0975 105.801 18.3705 105.85 17.6363C105.974 15.7843 106.78 14.2949 108.304 13.2142C109.12 12.635 110.035 12.3567 111.03 12.2159C112.544 12.0025 113.915 12.3348 115.203 13.0876C115.79 13.4309 116.259 13.9182 116.644 14.4851C116.779 14.6844 116.715 14.7918 116.543 14.8953C116.17 15.1196 115.794 15.3375 115.428 15.5728C115.282 15.6667 115.196 15.63 115.11 15.5053C114.503 14.6291 113.636 14.1277 112.612 13.9869C110.972 13.7607 109.457 14.1695 108.413 15.7586C107.849 16.6174 107.68 17.5888 107.779 18.5871C107.923 20.0322 108.608 21.1797 109.919 21.8611C110.703 22.2693 111.56 22.4101 112.458 22.2661C113.093 22.1645 113.698 21.9993 114.215 21.6142C114.509 21.3957 114.772 21.1302 115.019 20.8576C115.196 20.6622 115.314 20.5671 115.56 20.7818C115.86 21.0434 116.199 21.2652 116.539 21.476C116.739 21.6007 116.712 21.7165 116.594 21.8598C115.706 22.9346 114.619 23.6893 113.218 23.9233C112.759 23.9998 112.296 24.0468 111.835 24.1072Z" fill="#ACB4C0"/>
<path d="M55.2041 12.375H57.0323V22.1449C57.1866 22.1449 57.31 22.1449 57.4335 22.1449C59.4346 22.1449 61.4351 22.152 63.4363 22.1378C63.7635 22.1359 63.8754 22.2343 63.8516 22.5576C63.8272 22.8867 63.8304 23.2204 63.8509 23.5508C63.8683 23.8291 63.7777 23.9179 63.4909 23.9166C61.0514 23.9056 58.6118 23.9108 56.1722 23.9101C55.926 23.9101 55.6779 23.9288 55.4349 23.8992C55.3506 23.8889 55.2729 23.7655 55.2092 23.68C55.1835 23.6453 55.2041 23.5765 55.2041 23.5232C55.2041 19.9226 55.2041 16.322 55.2041 12.7215C55.2041 12.6161 55.2041 12.5113 55.2041 12.3756V12.375Z" fill="#ACB4C0"/>
<path d="M65.5576 23.9083V12.3789H67.3396V22.1437C67.5054 22.1437 67.6308 22.1437 67.7561 22.1437C69.7579 22.1437 71.7604 22.1501 73.7622 22.1372C74.0721 22.1353 74.1781 22.2247 74.1569 22.5352C74.1318 22.9074 74.146 23.2834 74.1531 23.6569C74.1563 23.8273 74.1061 23.9108 73.9178 23.9108C71.1452 23.9076 68.3726 23.9083 65.5583 23.9083H65.5576Z" fill="#ACB4C0"/>
<path d="M75.8799 12.3516H77.6747C77.6747 12.4911 77.6747 12.6048 77.6747 12.718C77.6747 16.3198 77.6708 19.9217 77.6818 23.5235C77.6824 23.8334 77.5982 23.9317 77.2884 23.915C76.8306 23.8899 76.3704 23.9086 75.8805 23.9086V12.3516H75.8799Z" fill="#ACB4C0"/>
</g>
<defs>
<clipPath id="clip0_2707_6467">
<rect width="127.729" height="32" fill="white" transform="translate(0.128906)"/>
</clipPath>
</defs>
</svg>
